<svg xmlns="http://www.w3.org/2000/svg" width="65" height="63" viewBox="0 0 65 63"><g><g><path fill="#fff" d="M64.448 25.317l-14.826 14.92 3.502 21.06a1.4 1.4 0 0 1-1.4 1.631 1.403 1.403 0 0 1-.701-.169l-18.384-9.924-18.363 9.924a1.4 1.4 0 0 1-2.045-1.463l3.502-21.058L.837 25.289a1.4 1.4 0 0 1-.343-1.4 1.399 1.399 0 0 1 1.128-.944l20.554-3.066L31.38.752a1.4 1.4 0 0 1 2.535 0l.126.273 9.104 18.854 20.513 3.066a1.399 1.399 0 0 1 .791 2.372zM15.831 36.396l21.71-21.64-1.4-2.918-22.41 22.395zm8.72-14.992L35.481 10.48l-1.4-2.904-5.554 5.542zm13.614-5.332L16.833 37.369l1.4 1.399a1.4 1.4 0 0 1 .4 1.148l20.932-20.933zm-22.06 38.926l31.62-31.6-3.748-.559-27.011 26.987zm25.855-32.46a1.403 1.403 0 0 1-1.05-.784l-.7-1.434L18.226 42.28l-.861 5.172L42.248 22.58zM30.363 9.312l3.074-3.072-.798-1.666zm-11.997 13.97l-7.815 7.803 2.15 2.155 10.75-10.7h-.126zm-8.782 6.808l6.471-6.473-5.063.756-3.565 3.562zM4.78 25.303l1.66 1.637 2.227-2.218zm10.666 33.635l6.562-3.541 31.2-31.18-3.761-.559-33.742 33.713zm16.563-8.923a1.402 1.402 0 0 1 1.33 0l.21.133 25.128-25.111-3.746-.56-28.595 28.59zm17.235 5.333l-2.143 2.1 2.745 1.483v-.056zm-3.446 1.385l3.145-3.142-.617-3.688-5.322 5.326zm1.625-12.191l-8.481 8.482 2.801 1.505 6.303-6.299zm13.075-19.253H60.4L34.831 50.841l2.801 1.511 9.49-9.504-.476-2.862a1.4 1.4 0 0 1 .406-1.218z"/></g></g></svg>