<svg xmlns="http://www.w3.org/2000/svg" width="54" height="64" viewBox="0 0 54 64"><g><g><path fill="#fff" d="M48.957 7.797a6.95 6.95 0 0 1 4.675 7.033l-2.054 32.733a6.956 6.956 0 0 1-3.313 5.468l-.068.041-18.05 9.563a6.17 6.17 0 0 1-6.36 0l-18.035-9.57-.069-.04a6.957 6.957 0 0 1-3.313-5.469L.282 14.802a6.958 6.958 0 0 1 4.669-7.026L24.644 1.01a6.878 6.878 0 0 1 4.449 0zm-.856 2.584l-1.109-.376L33.097 23.88a10.59 10.59 0 0 1 2.095 2.091l14.566-14.538A4.223 4.223 0 0 0 48.1 10.38zm2.15 14.784L18.6 56.784l2.737 1.455L49.97 29.655zM17.325 56.114l16.045-16.021a10.224 10.224 0 0 1-6.393 2.24h-.09l-12.32 12.304zm-4.038-2.16l11.848-11.79a10.289 10.289 0 0 1-3.107-1.108L10.549 52.52zm4.702-16.93a10.242 10.242 0 0 1-1.109-3.104L5.012 45.751l.096 1.627c.042.673.246 1.325.596 1.9zM11.768 8.33l-8.59 8.578.246 3.95 14.758-14.75zM3.91 28.452l.253 3.95L31.77 4.818l-3.121-1.073zM33.234 5.31L4.28 34.22l.246 3.95 31.85-31.796zm4.58 1.558L20.583 24.07a10.224 10.224 0 0 1 6.394-2.242h.075L40.969 7.94zm4.599 1.565L28.819 22c1.089.2 2.138.573 3.108 1.108l13.62-13.582zM4.896 43.961L16.71 32.157v-.075c0-2.321.791-4.574 2.245-6.384L4.643 39.99zm22.082-4.36c4.158 0 7.529-3.367 7.529-7.52 0-4.152-3.37-7.518-7.53-7.518-4.158 0-7.529 3.366-7.529 7.519 0 4.152 3.371 7.518 7.53 7.518zm23.697-21.005l-13.43 13.41v.076A10.19 10.19 0 0 1 35 38.466L50.387 23.1zm-.13-6.014L35.965 27.14c.535.968.91 2.016 1.109 3.103l13.738-13.711.123-1.893a4.267 4.267 0 0 0-.39-2.057zM21.132 5.09L3.541 22.656l.253 3.958 23.273-23.24a4.124 4.124 0 0 0-1.527.226zM3.02 14.625l.041.465 5.757-5.749-2.97 1.019a4.218 4.218 0 0 0-2.828 4.265zm4.066 36.048l2.204 1.17 11.568-11.56a10.59 10.59 0 0 1-2.094-2.091L6.607 50.317c.15.132.31.251.48.356zm18.03 9.576l.068.034.171.089 24.211-24.19.274-4.463-27.236 27.19zm9.644-3.137l14.375-14.354.287-4.484L26.875 60.81a3.427 3.427 0 0 0 1.896-.499l.068-.034zm12.11-6.439a4.21 4.21 0 0 0 1.97-3.295l.165-2.556-10.083 10.075 7.947-4.19zM23.123 33.394a1.366 1.366 0 0 1 .34-1.995 1.37 1.37 0 0 1 1.891.416l.452.643 2.793-3.903a1.37 1.37 0 0 1 1.91-.321c.616.437.76 1.291.321 1.907l-3.915 5.468a1.37 1.37 0 0 1-1.116.574 1.371 1.371 0 0 1-1.115-.581z"/></g></g></svg>