<svg xmlns="http://www.w3.org/2000/svg" width="61" height="61" viewBox="0 0 61 61"><g><g><path fill="#011613" d="M4.588 9.265c7.442-9.887 21.528-11.896 31.46-4.49 9.934 7.408 11.953 21.426 4.51 31.313l4.807 4.783.437-.435a1.33 1.33 0 0 1 1.793-.073l11.77 10.028A4.82 4.82 0 0 1 61 53.923c-.036 3.782-3.053 6.869-6.851 7.01h-.192a4.855 4.855 0 0 1-3.548-1.621L40.234 47.71a1.314 1.314 0 0 1 .067-1.8l.437-.434-4.826-4.796a22.54 22.54 0 0 1-13.316 4.372C10.188 45.068.116 35.07.1 22.72A22.296 22.296 0 0 1 4.588 9.265zm20.5-6.145L2.914 25.19c.142 1.133.383 2.25.722 3.34l24.81-24.692a19.61 19.61 0 0 0-3.356-.718zm4.734 1.205l-25.69 25.55c.371.94.813 1.853 1.323 2.728l27.08-26.954a20.171 20.171 0 0 0-2.713-1.324zM7.984 36.035l28-27.869a19.702 19.702 0 0 0-2.27-1.791l-27.53 27.4a19.716 19.716 0 0 0 1.8 2.26zm31.529-23.593L12.28 39.547c.864.524 1.767.982 2.7 1.37L40.89 15.13c-.39-.93-.85-1.829-1.377-2.689zm2.668 7.3l-.002.002.002.012zm-.002.002a19.27 19.27 0 0 0-.786-3.257L16.318 41.418a19.48 19.48 0 0 0 3.31.783zM22.607 42.419c.997 0 1.993-.074 2.978-.223l16.589-16.512c.152-.991.227-1.994.225-2.997 0-.415-.04-.83-.04-1.239L21.33 42.38c.41.027.827.04 1.278.04zm19.037-14.35l-13.63 13.599a19.841 19.841 0 0 0 6.892-3.518c.05-.074.107-.142.172-.204.12-.123.264-.22.423-.284a20.146 20.146 0 0 0 2.033-1.976c.067-.168.169-.32.298-.448a1.13 1.13 0 0 1 .211-.224 19.609 19.609 0 0 0 3.601-6.945zm5.164 15.095l-.51.5-1.377 1.371-1.873 1.864 9.347 10.68c.422.46 1.021.721 1.648.718a4.206 4.206 0 0 0 2.985-1.317 4.116 4.116 0 0 0 1.324-2.965 2.202 2.202 0 0 0-.721-1.647zm-7.95-5.04a22.05 22.05 0 0 1-.887.876l4.633 4.612.887-.877zM36.925 9.094L8.917 36.971a19.15 19.15 0 0 0 2.238 1.831l27.61-27.48a19.126 19.126 0 0 0-1.84-2.227zm-14.318-6.14a20.18 20.18 0 0 0-3.641.343L3.079 19.109a19.93 19.93 0 0 0-.331 3.578v.79l20.62-20.522h-.761zM3.714 16.619L16.477 3.917A19.812 19.812 0 0 0 3.714 16.619z"/></g></g></svg>