<svg xmlns="http://www.w3.org/2000/svg" width="47" height="61" viewBox="0 0 47 61"><g><g><path fill="#011613" d="M.626 5.822c.003-.272.023-.543.06-.813A6.196 6.196 0 0 1 6.73-.064h36.834c.73 0 1.32.591 1.32 1.321v7.927h.661c.73 0 1.322.592 1.322 1.321V59.39c0 .73-.592 1.32-1.322 1.32H6.572a5.945 5.945 0 0 1-5.945-5.945zm9.248-3.243L4.246 8.227a3.304 3.304 0 0 0 2.325.957h.793L13.97 2.58zm5.945 0L9.213 9.184h4.096l6.606-6.605zm5.946 0l-6.606 6.605h4.095L25.86 2.58zm5.945 0l-6.606 6.605H25.2l6.605-6.605zm5.945 0L27.05 9.184h4.096L37.75 2.58zm10.57 55.488v-46.24H6.57a5.945 5.945 0 0 1-3.303-.998v43.935a3.303 3.303 0 0 0 3.303 3.303zM42.242 5.842L38.9 9.184h3.343zm0-3.263H39.56l-6.606 6.605h4.082l5.206-5.206zM3.533 7.097L8.05 2.58H6.73a3.633 3.633 0 0 0-3.429 2.8 3.432 3.432 0 0 0 .232 1.718zM38.94 20.25v8.258c0 .729-.592 1.32-1.321 1.32H9.544c-.73 0-1.321-.591-1.321-1.32v-8.258c0-.73.591-1.321 1.32-1.321H37.62c.73 0 1.32.59 1.32 1.32zm-2.643 1.321H10.865v5.616h25.432z"/></g></g></svg>