<svg xmlns="http://www.w3.org/2000/svg" width="516" height="777" viewBox="0 0 516 777"><g><g><path fill="#011613" d="M.626 17.464L18.056-.024 79.55 61.645 62.12 79.133zm.007 174.452l17.432-17.486 61.486 61.677-17.432 17.486zM.63 366.358l17.429-17.487 61.495 61.668-17.43 17.488zM.63 540.806l17.428-17.488 61.495 61.668-17.429 17.488zm0 174.446l17.43-17.488 61.494 61.669-17.429 17.487zm.002-566.375L62.12 87.2l17.432 17.486-61.486 61.676zm0 174.449l61.485-61.678 17.432 17.486-61.486 61.677zm.044 174.463l61.495-61.677 17.425 17.482-61.495 61.677zm.007 174.459L62.18 610.57l17.425 17.483-61.495 61.676zM55.07 17.462L72.495-.028 134 61.632l-17.427 17.49zm.021 174.449l17.432-17.486 61.486 61.677-17.431 17.486zm-.013 174.44l17.426-17.49 61.504 61.66-17.427 17.49zm.003 174.445l17.427-17.49 61.503 61.659-17.426 17.49zm.004 174.444l17.426-17.49 61.504 61.66-17.427 17.49zm.001-566.362l61.487-61.677 17.43 17.485-61.485 61.678zm-.002 174.45l61.487-61.677L134 279.136l-61.486 61.677zm.007 174.43l61.48-61.67 17.426 17.479-61.48 61.67zm.004 174.446l61.48-61.67L134 628.011l-61.48 61.671zm54.425-654.742L126.945-.03l61.504 61.66-17.427 17.49zm.036 174.462l17.443-17.487 61.468 61.694-17.442 17.487zm-.03 174.426l17.427-17.49 61.504 61.66-17.426 17.49zm.004 174.445l17.427-17.49 61.503 61.659-17.426 17.49zm.005 174.444l17.426-17.49 61.504 61.66-17.427 17.49zm.037-566.367l61.502-61.683 17.43 17.488-61.5 61.683zm.008 174.458l61.501-61.683 17.432 17.488-61.502 61.683zm-.034 174.445l61.48-61.67 17.426 17.479-61.48 61.67zm0 174.45l61.48-61.67 17.425 17.478-61.48 61.671zm54.423-654.766L181.394-.03l61.504 61.66-17.426 17.49zm.04 174.466l17.442-17.486 61.469 61.694-17.443 17.487zm-.032 174.423l17.426-17.49 61.504 61.66-17.427 17.49zm.003 174.445l17.427-17.49 61.503 61.659-17.426 17.49zm.004 174.444l17.426-17.49 61.504 61.66-17.427 17.49zm.042-566.367l61.502-61.684 17.43 17.488-61.5 61.684zm.008 174.458l61.501-61.683 17.432 17.488-61.502 61.683zm-.043 174.452l61.48-61.67 17.425 17.478-61.48 61.671zm-.001 174.45l61.48-61.671 17.425 17.48-61.48 61.67zm54.428-654.773l17.426-17.49 61.504 61.66-17.426 17.49zm.036 174.475l17.443-17.487 61.469 61.694-17.443 17.487zm-.028 174.414l17.426-17.49 61.504 61.659-17.427 17.49zm.003 174.444l17.426-17.49 61.504 61.66-17.426 17.49zm.004 174.445l17.426-17.49 61.504 61.66-17.427 17.49zm.047-566.37l61.5-61.682 17.432 17.488-61.501 61.683zm.007 174.459l61.502-61.683 17.43 17.488-61.5 61.683zm-.045 174.455l61.48-61.671 17.425 17.48-61.48 61.67zm-.002 174.45l61.48-61.671 17.425 17.479-61.48 61.67zm54.427-654.775l17.426-17.49 61.504 61.66-17.426 17.49zm.04 174.478l17.442-17.487 61.469 61.694-17.442 17.487zm-.032 174.411l17.426-17.49 61.504 61.66-17.427 17.49zm.003 174.444l17.427-17.49 61.503 61.66-17.426 17.49zm.004 174.445l17.426-17.49 61.504 61.66-17.427 17.49zm.051-566.37l61.5-61.684 17.432 17.488-61.501 61.684zm.008 174.458l61.5-61.683 17.432 17.488-61.501 61.683zm-.049 174.458l61.48-61.67 17.425 17.479-61.48 61.67zm-.002 174.449l61.48-61.67 17.426 17.478-61.48 61.67zM327.315 17.45l17.426-17.49 61.504 61.66-17.426 17.49zm.042 174.481l17.443-17.486 61.469 61.694-17.443 17.487zm-.034 174.409l17.426-17.491 61.504 61.66L388.826 428zm.003 174.444l17.427-17.49 61.503 61.659-17.426 17.49zm.004 174.444l17.426-17.49 61.504 61.66-17.427 17.49zm.05-566.365L388.88 87.18l17.431 17.488-61.501 61.684zm.007 174.458l61.5-61.683 17.432 17.488-61.5 61.683zm-.052 174.461l61.48-61.67 17.425 17.478-61.48 61.671zm0 174.449l61.48-61.671 17.425 17.48-61.48 61.67zm54.423-654.778l17.426-17.49 61.504 61.66-17.427 17.49zm.052 174.478l17.442-17.486 61.47 61.694-17.443 17.487zm-.044 174.412l17.426-17.49 61.504 61.659-17.427 17.49zm.003 174.444l17.427-17.49 61.503 61.66-17.426 17.49zm.004 174.445l17.426-17.49 61.504 61.659-17.427 17.49zm.06-566.373l61.501-61.683 17.432 17.488-61.502 61.683zm.007 174.459l61.5-61.684 17.432 17.488-61.5 61.684zm-.055 174.462l61.48-61.67 17.426 17.479-61.48 61.67zm0 174.45l61.48-61.672 17.425 17.48-61.48 61.67zm54.422-654.78l17.426-17.49 61.504 61.66-17.426 17.49zm.048 174.487l17.443-17.486 61.469 61.694-17.443 17.487zm-.04 174.402l17.426-17.49 61.504 61.66L497.718 428zm.003 174.446l17.426-17.491 61.504 61.66-17.426 17.49zm.003 174.444l17.427-17.49 61.504 61.659-17.427 17.49zm.065-566.374l61.501-61.683 17.432 17.488-61.502 61.683zm.007 174.458l61.501-61.683 17.431 17.488-61.5 61.683zm-.057 174.466l61.48-61.67 17.425 17.478-61.48 61.671zm-.001 174.449l61.48-61.67 17.425 17.478-61.48 61.671z"/></g></g></svg>