<svg xmlns="http://www.w3.org/2000/svg" width="779" height="779" viewBox="0 0 779 779"><g><g><path fill="#011613" d="M750.21 429.56v-.003h.003c.025-.896.037-1.818.037-2.766 0 .948.013 1.87.038 2.766h.002v.003c.896.024 1.818.037 2.766.037-.948 0-1.87.013-2.766.038v.002h-.002c-.025.896-.038 1.818-.038 2.766 0-.948-.012-1.87-.037-2.766h-.002v-.002c-.897-.025-1.819-.038-2.767-.038.948 0 1.87-.013 2.767-.037zm.08.077c62.334 1.78 1.778 62.331 0 0zm-.08 0c-1.777 62.331-62.333 1.78 0 0zm0-.08c-62.334-1.774-1.777-62.331 0 0zm.08 0c1.777-62.331 62.334-1.774 0 0zm-.08 80.168v-.006h.003c.025-.896.037-1.818.037-2.766 0 .948.013 1.871.038 2.768h.002v.002l.024-.001h-.024c1.778-62.326 62.318-1.79.024 0 .887.024 1.8.037 2.737.037-.946 0-1.866.012-2.761.037v.006h-.002c-.025.896-.038 1.818-.038 2.766 0-.948-.012-1.871-.037-2.768h-.002v-.002l-.026.001a100.09 100.09 0 0 0-2.74-.037c.947 0 1.87-.012 2.766-.037zm0 .075c-1.778 62.324-62.316 1.796-.025 0h.026zm.08.002c62.333 1.78 1.78 62.329 0 0zm-.08-.083c-62.332-1.77-1.78-62.33 0 0zm0 80.168v-.003h.003c.025-.896.037-1.818.037-2.766 0 .948.013 1.87.038 2.766h.002v.003c.896.024 1.818.037 2.766.037a100.015 100.015 0 0 0-2.766.04h-.002c-.025.896-.038 1.818-.038 2.766 0-.948-.012-1.87-.037-2.766h-.002v-.002c-.897-.025-1.819-.038-2.766-.038.947 0 1.87-.013 2.766-.037zm.08.077c62.334 1.777 1.777 62.334 0 0zm-.08 0c-1.777 62.338-62.334 1.777 0 0zm0-.08c-62.334-1.777-1.777-62.338 0 0zm.08 0c1.777-62.338 62.334-1.777 0 0zm-.08 80.164v-.002h.003c.025-.898.037-1.82.037-2.77 0 .95.013 1.872.038 2.77h.002v.002c.896.025 1.818.038 2.766.038a100.069 100.069 0 0 0-2.766.039h-.002c-.025.897-.038 1.819-.038 2.766 0-.947-.012-1.87-.037-2.766h-.003v-.002a100.03 100.03 0 0 0-2.765-.037c.947 0 1.87-.013 2.766-.038zm.08.077c62.333 1.771 1.78 62.33 0 0zm-.08 0c-1.779 62.33-62.332 1.771 0 0zm0-.08c-62.333-1.783-1.777-62.334 0 0zm.08 0c1.778-62.334 62.334-1.783 0 0zm-.08 80.165v-.002h.003c.025-.897.037-1.819.037-2.766 0 .947.013 1.87.038 2.766h.002v.002c.896.025 1.818.037 2.766.037-.948 0-1.87.013-2.766.038v.002h-.002c-.025.897-.038 1.819-.038 2.766 0-.947-.012-1.87-.037-2.766h-.002v-.002c-.897-.025-1.819-.038-2.766-.038.947 0 1.87-.012 2.766-.037zm.08.077c62.334 1.778 1.777 62.335 0 0zm-.08 0c-1.777 62.335-62.334 1.778 0 0zm0-.08c-62.334-1.777-1.777-62.334 0 0zm.08 0c1.777-62.334 62.334-1.777 0 0zM670.05 429.56v-.003h.002c.025-.896.037-1.818.037-2.766a100 100 0 0 0 .038 2.766h.002v.003c.896.024 1.818.037 2.766.037-.948 0-1.87.013-2.766.038v.002h-.002a100.02 100.02 0 0 0-.038 2.766c0-.948-.012-1.87-.037-2.766h-.003v-.002a99.994 99.994 0 0 0-2.769-.038c.949 0 1.872-.013 2.77-.037zm.079.077c62.328 1.782 1.771 62.33 0 0zm-.08 0c-1.784 62.33-62.333 1.78 0 0zm0-.08c-62.333-1.774-1.783-62.331 0 0zm.08 0c1.77-62.33 62.328-1.776 0 0zm-.08 80.168v-.002h.003c.025-.897.037-1.819.037-2.767 0 .948.013 1.87.038 2.767h.002v.002c.896.025 1.818.037 2.766.037-.948 0-1.87.013-2.766.038v.002h-.002a100.02 100.02 0 0 0-.038 2.766c0-.948-.012-1.87-.037-2.766h-.003v-.002a99.994 99.994 0 0 0-2.769-.038c.949 0 1.872-.012 2.77-.037zm.08.077c62.328 1.783 1.771 62.333 0 0zm-.08 0c-1.784 62.331-62.333 1.78 0 0zm0-.08c-62.333-1.774-1.783-62.334 0 0zm.08 0c1.77-62.333 62.329-1.776 0 0zm-.08 80.165v-.003h.003c.025-.896.037-1.818.037-2.766 0 .948.013 1.87.038 2.766h.002v.003c.896.024 1.818.037 2.766.037a100.034 100.034 0 0 0-2.766.04h-.002c-.025.896-.038 1.818-.038 2.766 0-.948-.012-1.87-.037-2.766h-.003v-.002c-.897-.025-1.82-.038-2.769-.038.95 0 1.872-.013 2.77-.037zm.08.077c62.328 1.78 1.77 62.333 0 0zm-.08 0c-1.783 62.338-62.333 1.778 0 0zm0-.08c-62.334-1.777-1.783-62.338 0 0zm.08 0c1.77-62.337 62.329-1.78 0 0zm-.08 80.164v-.002h.003c.025-.898.037-1.82.037-2.77 0 .95.013 1.872.038 2.77h.002v.002c.896.025 1.818.038 2.766.038a100.05 100.05 0 0 0-2.766.04l-.002-.001a100.05 100.05 0 0 0-.038 2.766c0-.947-.012-1.87-.037-2.766h-.003v-.002a100.02 100.02 0 0 0-2.769-.037c.949 0 1.872-.013 2.77-.038zm.08.077c62.327 1.773 1.773 62.328 0 0zm-.08 0c-1.785 62.33-62.332 1.771 0 0zm0-.08c-62.333-1.784-1.784-62.334 0 0zm.08 0c1.771-62.333 62.328-1.785 0 0zm-.08 80.165v-.002h.003c.025-.897.037-1.819.037-2.766 0 .947.013 1.87.038 2.766h.002v.002c.896.025 1.818.037 2.766.037a99.995 99.995 0 0 0-2.766.04h-.002a100.03 100.03 0 0 0-.038 2.766c0-.947-.012-1.87-.037-2.766h-.003v-.002c-.897-.025-1.82-.038-2.769-.038.949 0 1.872-.012 2.77-.037zm.08.077c62.328 1.78 1.77 62.334 0 0zm-.08 0c-1.783 62.335-62.333 1.778 0 0zm0-.08c-62.333-1.777-1.783-62.334 0 0zm.08 0c1.77-62.333 62.328-1.779 0 0zM589.882 429.56a5.451 5.451 0 0 1 .002-.003c.025-.896.038-1.818.038-2.766 0 .948.012 1.87.037 2.766h.002v.003c.897.024 1.819.037 2.766.037a100.054 100.054 0 0 0-2.766.04h-.002a100.01 100.01 0 0 0-.037 2.766c0-.948-.013-1.87-.038-2.766h-.002v-.002c-.898-.025-1.82-.038-2.77-.038.95 0 1.872-.013 2.77-.037zm.08.077c62.328 1.782 1.774 62.33 0 0zm-.08 0c-1.781 62.33-62.334 1.78 0 0zm0-.08c-62.334-1.774-1.78-62.331 0 0zm.08 0c1.773-62.33 62.328-1.776 0 0zm-.08 80.168v-.002h.002c.025-.898.038-1.821.038-2.77 0 .949.012 1.872.037 2.77h.002v.002c.897.025 1.819.037 2.766.037a100.047 100.047 0 0 0-2.766.04h-.002a100.05 100.05 0 0 0-.037 2.766c0-.948-.013-1.87-.038-2.766h-.002v-.002a99.997 99.997 0 0 0-2.77-.038c.95 0 1.872-.012 2.77-.037zm.08.077c62.326 1.783 1.776 62.328 0 0zm-.08 0c-1.783 62.329-62.333 1.78 0 0zm0-.08c-62.334-1.774-1.78-62.334 0 0zm.08 0c1.773-62.333 62.328-1.776 0 0zm-.084 80.165v-.003h.002c.025-.896.038-1.818.038-2.766a100.026 100.026 0 0 0 .04 2.766v.003c.896.024 1.818.037 2.766.037-.948 0-1.87.013-2.766.038v.002h-.002c-.025.896-.038 1.818-.038 2.766a100.062 100.062 0 0 0-.04-2.766v-.002c-.896-.025-1.818-.038-2.766-.038.948 0 1.87-.013 2.766-.037zm.08.077c62.334 1.777 1.774 62.334 0 0zm-.08 0c-1.78 62.338-62.334 1.777 0 0zm0-.08c-62.334-1.777-1.78-62.338 0 0zm.08 0c1.777-62.338 62.334-1.777 0 0zm-.078 80.164v-.002h.002v-.025c.024-.89.036-1.804.036-2.745 0 .95.013 1.872.037 2.77h.006v.002c.896.025 1.816.038 2.763.038-.947 0-1.869.012-2.765.037v.002h-.001v.022c-.024.89-.036 1.804-.036 2.744 0-.947-.013-1.87-.038-2.766h-.006v-.002c-.896-.025-1.818-.037-2.766-.037.949 0 1.871-.013 2.768-.038zm.001-.027v.025c-62.326-1.783-1.796-62.32 0-.025zm.078.104c62.324 1.771 1.79 62.315 0 .022v-.022zm-.08 0c-1.783 62.33-62.334 1.771 0 0zm.082-.08c1.775-62.333 62.329-1.786 0 0zm-.083 80.165v-.002h.002c.025-.897.038-1.819.038-2.766 0 .947.013 1.87.037 2.766h.003v.002c.896.025 1.818.037 2.766.037-.948 0-1.87.013-2.766.038v.002h-.002c-.025.897-.038 1.819-.038 2.766 0-.947-.013-1.87-.038-2.766h-.002v-.002c-.896-.025-1.818-.038-2.766-.038.948 0 1.87-.012 2.766-.037zm.08.077c62.334 1.778 1.774 62.335 0 0zm-.08 0c-1.78 62.335-62.334 1.778 0 0zm0-.08c-62.334-1.777-1.78-62.334 0 0zm.08 0c1.777-62.334 62.334-1.777 0 0zm-80.24-320.647v-.003h.002c.025-.896.037-1.818.037-2.766 0 .948.013 1.87.038 2.766h.002v.003c.896.024 1.818.037 2.766.037-.948 0-1.87.013-2.766.038v.002h-.002c-.025.896-.038 1.818-.038 2.766 0-.948-.012-1.87-.037-2.766h-.002v-.002c-.897-.025-1.819-.038-2.766-.038.947 0 1.87-.013 2.766-.037zm.079.077c62.33 1.78 1.778 62.33 0 0zm-.08 0c-1.777 62.33-62.33 1.78 0 0zm0-.08c-62.33-1.774-1.777-62.331 0 0zm.08 0c1.777-62.331 62.33-1.774 0 0zm-.08 80.168v-.002h.003c.025-.898.037-1.821.037-2.77 0 .949.013 1.872.038 2.77h.002v.002c.896.025 1.818.037 2.766.037-.948 0-1.87.013-2.766.038v.002h-.002c-.025.896-.038 1.818-.038 2.766 0-.948-.012-1.87-.037-2.766h-.003v-.002a99.997 99.997 0 0 0-2.765-.038c.947 0 1.87-.012 2.766-.037zm.08.077c62.33 1.78 1.78 62.329 0 0zm-.08 0c-1.78 62.329-62.329 1.78 0 0zm0-.08c-62.33-1.774-1.777-62.334 0 0zm.08 0c1.777-62.334 62.33-1.774 0 0zm-.08 80.165v-.003h.003c.025-.894.037-1.814.037-2.76a99.996 99.996 0 0 0 .04 2.76v.003c.896.024 1.818.037 2.766.037-.948 0-1.87.013-2.766.038v.002h-.002c-.025.896-.038 1.818-.038 2.766 0-.948-.012-1.87-.037-2.766h-.002v-.002c-.897-.025-1.819-.038-2.766-.038.947 0 1.87-.013 2.766-.037zm.08.077c62.33 1.777 1.774 62.334 0 0zm-.08 0c-1.777 62.334-62.33 1.777 0 0zm0-.08c-62.33-1.777-1.777-62.338 0 0zm.08 0c1.777-62.338 62.33-1.777 0 0zm-.08 80.164v-.002h.003c.025-.898.037-1.82.037-2.77 0 .95.013 1.872.038 2.77h.002v.002c.896.025 1.818.038 2.766.038a100.028 100.028 0 0 0-2.766.039h-.002c-.025.897-.038 1.819-.038 2.766 0-.947-.012-1.87-.037-2.766h-.003v-.002c-.896-.025-1.818-.037-2.765-.037.947 0 1.87-.013 2.766-.038zm.08.077c62.33 1.771 1.78 62.33 0 0zm-.08 0c-1.779 62.33-62.329 1.771 0 0zm0-.08c-62.33-1.783-1.777-62.334 0 0zm.08 0c1.778-62.334 62.33-1.783 0 0zm-.08 80.165v-.002h.003c.024-.897.037-1.819.037-2.766 0 .947.013 1.87.038 2.766h.002v.002c.896.025 1.818.037 2.766.037-.948 0-1.87.013-2.766.038v.002h-.002c-.025.897-.038 1.819-.038 2.766 0-.947-.012-1.87-.037-2.766h-.003v-.002c-.896-.025-1.818-.038-2.765-.038.947 0 1.87-.012 2.766-.037zm.08.077c62.33 1.778 1.774 62.335 0 0zm-.08 0c-1.78 62.335-62.33 1.778 0 0zm0-.08c-62.33-1.777-1.777-62.334 0 0zm.08 0c1.777-62.334 62.33-1.777 0 0zM429.553 429.56v-.003h.003c.024-.896.037-1.818.037-2.766 0 .948.013 1.87.037 2.766h.003v.003c.897.024 1.82.037 2.77.037-.95 0-1.873.013-2.77.038v.002h-.003c-.024.896-.037 1.818-.037 2.766 0-.948-.013-1.87-.037-2.766h-.003v-.002c-.896-.025-1.818-.038-2.766-.038.948 0 1.87-.013 2.766-.037zm.08.077c62.334 1.78 1.777 62.331 0 0zm-.08 0c-1.777 62.33-62.328 1.783 0 0zm0-.08c-62.328-1.776-1.777-62.33 0 0zm.08 0c1.777-62.331 62.334-1.774 0 0zm-.08 80.168v-.002h.002c.025-.898.038-1.821.038-2.77 0 .949.013 1.872.038 2.77h.002v.002c.897.025 1.82.037 2.77.037-.95 0-1.873.013-2.77.038v.002h-.003c-.024.896-.037 1.818-.037 2.766 0-.948-.013-1.87-.037-2.766h-.003v-.002c-.896-.025-1.818-.038-2.766-.038.948 0 1.87-.012 2.766-.037zm.08.077c62.332 1.78 1.78 62.329 0 0zm-.08 0c-1.78 62.328-62.327 1.783 0 0zm0-.08c-62.328-1.776-1.777-62.333 0 0zm.08 0c1.777-62.334 62.334-1.774 0 0zm-.08 80.165v-.003h.003c.024-.894.037-1.814.037-2.76a100.024 100.024 0 0 0 .04 2.76v.002c.897.025 1.82.038 2.77.038-.95 0-1.873.013-2.77.038v.002h-.003c-.024.896-.037 1.818-.037 2.766 0-.948-.013-1.87-.037-2.766h-.003v-.002c-.896-.025-1.818-.038-2.766-.038.948 0 1.87-.013 2.766-.037zm.08.077c62.334 1.777 1.774 62.334 0 0zm-.08 0c-1.777 62.333-62.328 1.78 0 0zm0-.08c-62.328-1.78-1.777-62.337 0 0zm.08 0c1.777-62.338 62.334-1.777 0 0zm-.08 80.164v-.002h.002c.025-.898.038-1.82.038-2.77 0 .95.013 1.872.038 2.77h.002v.002c.897.025 1.82.038 2.77.038-.95 0-1.873.012-2.77.037v.002h-.003c-.024.897-.037 1.819-.037 2.766 0-.947-.013-1.87-.037-2.766h-.003v-.002a100.03 100.03 0 0 0-2.766-.037c.948 0 1.87-.013 2.766-.038zm.08.077c62.333 1.771 1.78 62.33 0 0zm-.08 0c-1.78 62.328-62.327 1.773 0 0zm0-.08c-62.328-1.786-1.777-62.333 0 0zm.08 0c1.777-62.334 62.334-1.783 0 0zm-.08 80.165v-.002h.003c.024-.895.037-1.815.037-2.76 0 .945.013 1.865.037 2.76h.003v.002c.897.025 1.82.037 2.77.037-.95 0-1.873.013-2.77.038v.002h-.003c-.024.897-.037 1.819-.037 2.766 0-.947-.013-1.87-.037-2.766h-.003v-.002c-.896-.025-1.818-.038-2.766-.038.948 0 1.87-.012 2.766-.037zm.08.077c62.334 1.778 1.774 62.335 0 0zm-.08 0c-1.777 62.334-62.328 1.78 0 0zm0-.08c-62.328-1.779-1.777-62.333 0 0zm.08 0c1.777-62.334 62.334-1.777 0 0zM349.389 429.56v-.003h.002c.025-.896.038-1.818.038-2.766 0 .948.012 1.87.037 2.766h.002v.003c.897.024 1.819.037 2.766.037-.947 0-1.87.013-2.766.038v.002h-.002c-.025.896-.037 1.818-.037 2.766 0-.948-.013-1.87-.038-2.766h-.002v-.002c-.897-.025-1.818-.038-2.766-.038.948 0 1.87-.013 2.766-.037zm.08.077c62.333 1.78 1.777 62.331 0 0zm-.08 0c-1.778 62.331-62.334 1.78 0 0zm0-.08c-62.334-1.774-1.778-62.331 0 0zm.08 0c1.777-62.331 62.333-1.774 0 0zm-.08 80.168v-.006h.002c.025-.896.038-1.818.038-2.766 0 .948.012 1.871.037 2.768h.002v.002l.024-.001h-.024c1.778-62.326 62.319-1.79.024 0 .887.024 1.8.037 2.737.036-.946 0-1.866.013-2.76.038v.006h-.003c-.025.896-.037 1.818-.037 2.766 0-.948-.013-1.871-.038-2.768h-.002v-.002l-.026.001h.026c-1.778 62.325-62.317 1.797-.026 0a100.09 100.09 0 0 0-2.74-.037c.948 0 1.87-.012 2.766-.037zm.08.077c62.332 1.78 1.78 62.329 0 0zm-.08-.083c-62.333-1.77-1.78-62.33 0 0zm0 80.168v-.003h.002c.025-.896.038-1.818.038-2.766 0 .948.012 1.87.037 2.766h.002v.003c.897.024 1.819.037 2.766.037a100.015 100.015 0 0 0-2.766.04h-.002c-.025.896-.037 1.818-.037 2.766 0-.948-.013-1.87-.038-2.766h-.002v-.002c-.897-.025-1.818-.038-2.766-.038.948 0 1.87-.013 2.766-.037zm.08.077c62.333 1.777 1.777 62.334 0 0zm-.08 0c-1.777 62.338-62.334 1.777 0 0zm0-.08c-62.334-1.777-1.777-62.338 0 0zm.08 0c1.776-62.338 62.334-1.777 0 0zm-.08 80.164v-.002h.002c.025-.898.038-1.82.038-2.77 0 .95.012 1.872.037 2.77h.002v.002c.897.025 1.819.038 2.766.038a100.069 100.069 0 0 0-2.766.039h-.002c-.025.897-.037 1.819-.037 2.766 0-.947-.013-1.87-.038-2.766h-.002v-.002a100.03 100.03 0 0 0-2.766-.037c.948 0 1.87-.013 2.766-.038zm.08.077c62.332 1.771 1.779 62.33 0 0zm-.08 0c-1.78 62.33-62.333 1.771 0 0zm0-.08c-62.334-1.783-1.778-62.334 0 0zm.08 0c1.777-62.334 62.333-1.783 0 0zm-.08 80.165v-.002h.002c.025-.897.038-1.819.038-2.766 0 .947.012 1.87.037 2.766h.002v.002c.897.025 1.819.037 2.766.037-.947 0-1.87.013-2.766.038v.002h-.002c-.025.897-.037 1.819-.037 2.766 0-.947-.013-1.87-.038-2.766h-.002v-.002c-.897-.025-1.818-.038-2.766-.038.948 0 1.87-.012 2.766-.037zm.08.077c62.333 1.778 1.777 62.335 0 0zm-.08 0c-1.778 62.335-62.334 1.778 0 0zm0-.08c-62.334-1.777-1.778-62.334 0 0zm.08 0c1.777-62.334 62.333-1.777 0 0zM269.227 429.56v-.003h.002c.025-.896.038-1.818.038-2.766a100 100 0 0 0 .037 2.766h.002v.003c.897.024 1.819.037 2.767.037a100.064 100.064 0 0 0-2.767.04h-.002a100.02 100.02 0 0 0-.037 2.766c0-.948-.013-1.87-.038-2.766h-.002v-.002c-.898-.025-1.82-.038-2.77-.038.95 0 1.872-.013 2.77-.037zm.08.077c62.328 1.782 1.77 62.33 0 0zm-.08 0c-1.784 62.33-62.334 1.78 0 0zm0-.08c-62.334-1.774-1.784-62.331 0 0zm.08 0c1.77-62.33 62.328-1.776 0 0zm-.08 80.168v-.002h.002c.025-.897.038-1.819.038-2.767 0 .948.012 1.87.037 2.767h.002v.002c.897.025 1.819.037 2.767.037a100.064 100.064 0 0 0-2.767.04h-.002a100.06 100.06 0 0 0-.037 2.766c0-.948-.013-1.87-.038-2.766h-.002v-.002c-.898-.025-1.82-.038-2.77-.038.95 0 1.872-.012 2.77-.037zm.08.077c62.328 1.783 1.77 62.333 0 0zm-.08 0c-1.784 62.331-62.334 1.78 0 0zm0-.08c-62.334-1.774-1.784-62.334 0 0zm.08 0c1.77-62.333 62.328-1.776 0 0zm-.08 80.165v-.003h.002c.025-.896.038-1.818.038-2.766 0 .948.012 1.87.037 2.766h.002v.003c.897.024 1.819.037 2.767.037a100.033 100.033 0 0 0-2.767.04h-.002c-.025.896-.037 1.818-.037 2.766 0-.948-.013-1.87-.038-2.766h-.002v-.002c-.898-.025-1.82-.038-2.77-.038.95 0 1.873-.013 2.77-.037zm.08.077c62.328 1.78 1.77 62.333 0 0zm-.08 0c-1.784 62.338-62.334 1.778 0 0zm0-.08c-62.334-1.777-1.784-62.338 0 0zm.08 0c1.77-62.337 62.328-1.78 0 0zm-.08 80.164v-.002h.002c.025-.898.038-1.82.038-2.77 0 .95.012 1.872.037 2.77h.002v.002c.897.025 1.819.038 2.767.038a100.05 100.05 0 0 0-2.767.04h-.002c-.025.896-.037 1.818-.037 2.765 0-.947-.013-1.87-.038-2.766h-.002v-.002c-.898-.025-1.82-.037-2.77-.037.95 0 1.872-.013 2.77-.038zm.08.077c62.327 1.773 1.772 62.328 0 0zm-.08 0c-1.786 62.33-62.333 1.771 0 0zm0-.08c-62.334-1.784-1.784-62.334 0 0zm.08 0c1.77-62.333 62.328-1.785 0 0zm-.08 80.165v-.002h.002c.025-.897.038-1.819.038-2.766 0 .947.012 1.87.037 2.766h.002v.002c.897.025 1.819.037 2.767.037a99.994 99.994 0 0 0-2.767.04h-.002a100.03 100.03 0 0 0-.037 2.766c0-.947-.013-1.87-.038-2.766h-.002v-.002c-.898-.025-1.82-.038-2.77-.038.95 0 1.872-.012 2.77-.037zm.08.077c62.328 1.78 1.77 62.334 0 0zm-.08 0c-1.784 62.335-62.334 1.778 0 0zm0-.08c-62.334-1.777-1.784-62.334 0 0zm.08 0c1.77-62.333 62.328-1.779 0 0zM189.06 429.56a5.451 5.451 0 0 1 .003-.003c.024-.896.037-1.818.037-2.766 0 .948.013 1.87.038 2.766h.002v.003c.896.024 1.818.037 2.766.037a100.054 100.054 0 0 0-2.766.04h-.002a100.01 100.01 0 0 0-.038 2.766c0-.948-.013-1.87-.037-2.766h-.003v-.002c-.897-.025-1.82-.038-2.77-.038.95 0 1.873-.013 2.77-.037zm.08.077c62.328 1.782 1.774 62.33 0 0zm-.08 0c-1.78 62.33-62.334 1.78 0 0zm0-.08c-62.334-1.774-1.78-62.331 0 0zm.08 0c1.774-62.33 62.328-1.776 0 0zm-.08 80.168v-.002h.002c.025-.898.038-1.821.038-2.77 0 .949.013 1.872.038 2.77h.002v.002c.896.025 1.818.037 2.766.037a100.047 100.047 0 0 0-2.766.04h-.002a100.05 100.05 0 0 0-.038 2.766c0-.948-.013-1.87-.037-2.766h-.003v-.002a99.997 99.997 0 0 0-2.77-.038c.95 0 1.873-.012 2.77-.037zm.08.077c62.327 1.783 1.776 62.328 0 0zm-.08 0c-1.783 62.329-62.332 1.78 0 0zm0-.08c-62.334-1.774-1.78-62.334 0 0zm.08 0c1.774-62.333 62.328-1.776 0 0zm-.083 80.165v-.003h.002c.025-.896.038-1.818.038-2.766a100.026 100.026 0 0 0 .04 2.766v.003c.896.024 1.818.037 2.765.037-.947 0-1.87.013-2.766.038v.002h-.002c-.025.896-.037 1.818-.037 2.766a100.062 100.062 0 0 0-.04-2.766v-.002c-.897-.025-1.818-.038-2.766-.038.948 0 1.87-.013 2.766-.037zm.08.077c62.333 1.777 1.774 62.334 0 0zm-.08 0c-1.78 62.338-62.334 1.777 0 0zm0-.08c-62.334-1.777-1.78-62.338 0 0zm.08 0c1.777-62.338 62.334-1.777 0 0zm-.078 80.164v-.002h.001v-.025l-.001.025c-62.326-1.783-1.796-62.32 0-.025.025-.89.038-1.804.038-2.745 0 .95.012 1.872.037 2.77h.006v.002c.895.025 1.816.038 2.762.038-.947 0-1.868.012-2.764.037v.002h-.002v.022c-.023.89-.036 1.804-.036 2.744 0-.947-.013-1.87-.037-2.766h-.006v-.002c-.897-.025-1.818-.037-2.766-.037.948 0 1.87-.013 2.768-.038zm.079.077c62.323 1.771 1.789 62.315-.001.022v-.022zm-.081 0c-1.783 62.33-62.333 1.771 0 0zm.083-.08c1.774-62.333 62.328-1.786 0 0zm-.083 80.165v-.002h.002c.025-.897.038-1.819.038-2.766 0 .947.012 1.87.037 2.766h.002v.002c.897.025 1.819.037 2.766.037-.947 0-1.87.013-2.766.038v.002h-.002c-.025.897-.037 1.819-.037 2.766 0-.947-.013-1.87-.038-2.766h-.002v-.002c-.897-.025-1.818-.038-2.766-.038.948 0 1.87-.012 2.766-.037zm.08.077c62.333 1.778 1.774 62.335 0 0zm-.08 0c-1.78 62.335-62.334 1.778 0 0zm0-.08c-62.334-1.777-1.78-62.334 0 0zm.08 0c1.777-62.334 62.333-1.777 0 0zm-80.24-320.647v-.003h.001c.025-.896.038-1.818.038-2.766 0 .948.013 1.87.037 2.766h.003v.003c.896.024 1.818.037 2.766.037-.948 0-1.87.013-2.767.038v.002h-.002c-.024.896-.037 1.818-.037 2.766 0-.948-.013-1.87-.038-2.766h-.002v-.002c-.896-.025-1.818-.038-2.766-.038.948 0 1.87-.013 2.766-.037zm.079.077c62.33 1.78 1.777 62.33 0 0zm-.08 0c-1.777 62.33-62.33 1.78 0 0zm0-.08c-62.33-1.774-1.777-62.331 0 0zm.08 0c1.777-62.331 62.33-1.774 0 0zm-.08 80.168v-.002h.002c.025-.898.038-1.821.038-2.77 0 .949.013 1.872.037 2.77h.003v.002c.896.025 1.818.037 2.766.037-.948 0-1.87.013-2.766.038v.002h-.003c-.024.896-.037 1.818-.037 2.766 0-.948-.013-1.87-.038-2.766h-.002v-.002a99.997 99.997 0 0 0-2.766-.038c.948 0 1.87-.012 2.766-.037zm.08.077c62.329 1.78 1.78 62.329 0 0zm-.08 0c-1.78 62.329-62.33 1.78 0 0zm0-.08c-62.33-1.774-1.777-62.334 0 0zm.08 0c1.777-62.334 62.33-1.774 0 0zm-.08 80.165v-.003h.002c.025-.894.038-1.814.038-2.76a99.996 99.996 0 0 0 .04 2.76v.003c.896.024 1.818.037 2.766.037-.948 0-1.87.013-2.767.038v.002h-.002c-.024.896-.037 1.818-.037 2.766 0-.948-.013-1.87-.038-2.766h-.002v-.002c-.896-.025-1.818-.038-2.766-.038.948 0 1.87-.013 2.766-.037zm.08.077c62.33 1.777 1.774 62.334 0 0zm-.08 0c-1.777 62.334-62.33 1.777 0 0zm0-.08c-62.33-1.777-1.777-62.338 0 0zm.08 0c1.777-62.338 62.33-1.777 0 0zm-.08 80.164v-.002h.002c.025-.898.038-1.82.038-2.77 0 .95.013 1.872.037 2.77h.003v.002c.896.025 1.818.038 2.766.038a100.028 100.028 0 0 0-2.766.039h-.003c-.024.897-.037 1.819-.037 2.766 0-.947-.013-1.87-.038-2.766h-.002v-.002c-.896-.025-1.818-.037-2.766-.037.948 0 1.87-.013 2.766-.038zm.08.077c62.33 1.771 1.779 62.33 0 0zm-.08 0c-1.78 62.33-62.33 1.771 0 0zm0-.08c-62.33-1.783-1.777-62.334 0 0zm.08 0c1.777-62.334 62.33-1.783 0 0zm-.08 80.165v-.002h.002c.025-.897.038-1.819.038-2.766 0 .947.012 1.87.037 2.766h.003v.002c.896.025 1.818.037 2.766.037-.948 0-1.87.013-2.767.038v.002h-.002c-.024.897-.037 1.819-.037 2.766 0-.947-.013-1.87-.038-2.766h-.002v-.002c-.896-.025-1.818-.038-2.766-.038.948 0 1.87-.012 2.766-.037zm.08.077c62.33 1.778 1.774 62.335 0 0zm-.08 0c-1.78 62.335-62.33 1.778 0 0zm0-.08c-62.33-1.777-1.777-62.334 0 0zm.08 0c1.777-62.334 62.33-1.777 0 0zM28.732 429.56v-.003h.002c.025-.896.038-1.818.038-2.766 0 .948.012 1.87.037 2.766h.002v.003c.898.024 1.82.037 2.77.037-.95 0-1.872.013-2.77.038v.002h-.002c-.025.896-.037 1.818-.037 2.766 0-.948-.013-1.87-.038-2.766h-.002v-.002c-.897-.025-1.818-.038-2.766-.038.948 0 1.87-.013 2.766-.037zm.08.077c62.333 1.78 1.777 62.331 0 0zm-.08 0c-1.778 62.33-62.329 1.783 0 0zm0-.08c-62.329-1.776-1.778-62.33 0 0zm.08 0c1.777-62.331 62.333-1.774 0 0zm-.08 80.168v-.002h.002c.025-.898.038-1.821.038-2.77 0 .949.012 1.872.037 2.77h.002v.002c.898.025 1.82.037 2.77.037-.95 0-1.872.013-2.77.038v.002h-.002c-.025.896-.037 1.818-.037 2.766 0-.948-.013-1.87-.038-2.766h-.002v-.002c-.897-.025-1.818-.038-2.766-.038.948 0 1.87-.012 2.766-.037zm.08.077c62.332 1.78 1.78 62.329 0 0zm-.08 0c-1.78 62.328-62.327 1.783 0 0zm0-.08c-62.329-1.776-1.777-62.333 0 0zm.08 0c1.777-62.334 62.333-1.774 0 0zm-.08 80.165v-.003h.002c.025-.894.038-1.814.038-2.76a100.024 100.024 0 0 0 .04 2.76v.002c.897.025 1.82.038 2.769.038-.95 0-1.872.013-2.77.038v.002h-.002c-.025.896-.037 1.818-.037 2.766 0-.948-.013-1.87-.038-2.766h-.002v-.002c-.897-.025-1.818-.038-2.766-.038.948 0 1.87-.013 2.766-.037zm.08.077c62.333 1.777 1.773 62.334 0 0zm-.08 0c-1.778 62.333-62.329 1.78 0 0zm0-.08c-62.329-1.78-1.777-62.337 0 0zm.08 0c1.776-62.338 62.333-1.777 0 0zm-.08 80.164v-.002h.002c.025-.898.038-1.82.038-2.77 0 .95.012 1.872.037 2.77h.002v.002c.898.025 1.82.038 2.77.038-.95 0-1.872.012-2.77.037v.002h-.002c-.025.897-.037 1.819-.037 2.766 0-.947-.013-1.87-.038-2.766h-.002v-.002a100.03 100.03 0 0 0-2.766-.037c.948 0 1.87-.013 2.766-.038zm.08.077c62.332 1.771 1.779 62.33 0 0zm-.08 0c-1.78 62.328-62.328 1.773 0 0zm0-.08c-62.329-1.786-1.778-62.333 0 0zm.08 0c1.777-62.334 62.333-1.783 0 0zm-.08 80.165v-.002h.002c.025-.895.038-1.815.038-2.76 0 .945.012 1.865.037 2.76h.002v.002c.898.025 1.82.037 2.77.037-.95 0-1.872.013-2.77.038v.002h-.002c-.025.897-.037 1.819-.037 2.766 0-.947-.013-1.87-.038-2.766h-.002v-.002c-.897-.025-1.818-.038-2.766-.038.948 0 1.87-.012 2.766-.037zm.08.077c62.333 1.778 1.773 62.335 0 0zm-.08 0c-1.778 62.334-62.329 1.78 0 0zm0-.08c-62.329-1.779-1.778-62.333 0 0zm.08 0c1.777-62.334 62.333-1.777 0 0zM750.21 28.734v-.002h.002c.025-.897.037-1.819.037-2.766 0 .947.013 1.87.038 2.766h.002v.002c.896.025 1.818.037 2.766.037-.948 0-1.87.013-2.766.038v.002h-.002c-.025.897-.038 1.818-.038 2.766 0-.948-.012-1.87-.037-2.766h-.002v-.002c-.897-.025-1.819-.038-2.767-.038.948 0 1.87-.012 2.767-.037zm.079.077c62.334 1.781 1.778 62.332 0 0zm-.08 0c-1.777 62.332-62.333 1.781 0 0zm0-.08c-62.334-1.773-1.777-62.33 0 0zm.08 0c1.777-62.33 62.334-1.773 0 0zm-.08 80.168v-.005h.003c.025-.897.037-1.819.037-2.767 0 .95.013 1.872.038 2.769h.002v.001h.018l-.018-.001c1.778-62.327 62.322-1.785.018 0 .889.025 1.803.037 2.742.037-.946 0-1.865.013-2.76.038v.005h-.002c-.025.897-.038 1.819-.038 2.766 0-.948-.012-1.87-.037-2.768h-.023.02c-1.778 62.326-62.32 1.793-.02 0-.89-.025-1.805-.037-2.745-.037.947 0 1.87-.013 2.766-.038zm.08.077c62.333 1.781 1.78 62.33 0 0zm-.08-.082c-62.332-1.771-1.779-62.33 0 0zm0 80.167v-.002h.003c.025-.897.037-1.819.037-2.766 0 .947.013 1.87.038 2.766h.002v.002c.896.025 1.818.037 2.766.037a100.015 100.015 0 0 0-2.766.04h-.002c-.025.897-.038 1.819-.038 2.766 0-.947-.012-1.87-.037-2.766h-.002v-.002c-.897-.025-1.819-.038-2.766-.038.947 0 1.87-.012 2.766-.037zm.08.077c62.334 1.778 1.777 62.335 0 0zm-.08 0c-1.777 62.338-62.334 1.778 0 0zm0-.08c-62.334-1.777-1.777-62.338 0 0zm.08 0c1.777-62.338 62.334-1.777 0 0zm-.08 80.165v-.003h.003c.025-.897.037-1.82.037-2.77 0 .95.013 1.873.038 2.77h.002v.003c.896.024 1.818.037 2.766.037a100.068 100.068 0 0 0-2.766.04h-.002c-.025.896-.038 1.818-.038 2.766 0-.948-.012-1.87-.037-2.766h-.003v-.002c-.896-.025-1.818-.038-2.765-.038.947 0 1.87-.013 2.766-.037zm.08.077c62.333 1.77 1.78 62.329 0 0zm-.08 0c-1.78 62.329-62.332 1.77 0 0zm0-.08c-62.333-1.784-1.777-62.334 0 0zm.08 0c1.778-62.334 62.334-1.784 0 0zm-.08 80.164v-.002h.003c.025-.896.037-1.818.037-2.766 0 .948.013 1.87.038 2.766h.002v.002c.896.025 1.818.038 2.766.038-.948 0-1.87.013-2.766.037v.003h-.002c-.025.896-.038 1.818-.038 2.766 0-.948-.012-1.87-.037-2.766h-.002v-.003c-.897-.024-1.819-.037-2.766-.037.947 0 1.87-.013 2.766-.038zm.08.078c62.334 1.777 1.777 62.335 0 0zm-.08 0c-1.777 62.335-62.334 1.777 0 0zm0-.08c-62.334-1.777-1.777-62.334 0 0zm.08 0c1.777-62.334 62.334-1.777 0 0zM670.05 28.733v-.002h.002c.025-.897.037-1.819.037-2.766 0 .947.013 1.87.038 2.766h.002v.002c.896.025 1.818.037 2.766.037-.948 0-1.87.013-2.766.038v.002h-.002c-.025.897-.038 1.818-.038 2.766 0-.948-.012-1.87-.037-2.766h-.003v-.002a100.07 100.07 0 0 0-2.769-.038c.949 0 1.872-.012 2.77-.037zm.079.077c62.328 1.783 1.771 62.33 0 0zm-.08 0c-1.784 62.332-62.333 1.781 0 0zm0-.08c-62.333-1.773-1.783-62.33 0 0zm.08 0c1.77-62.33 62.328-1.775 0 0zm-.08 80.168v-.002h.003c.025-.896.037-1.818.037-2.766 0 .948.013 1.87.038 2.766h.002v.002c.896.025 1.818.038 2.766.038-.948 0-1.87.012-2.766.037v.003h-.002a100.02 100.02 0 0 0-.038 2.765c0-.947-.012-1.87-.037-2.766h-.003v-.002c-.897-.025-1.82-.037-2.769-.037.949 0 1.872-.013 2.77-.038zm.08.078c62.328 1.782 1.771 62.333 0 0zm-.08 0c-1.784 62.33-62.333 1.78 0 0zm0-.08c-62.333-1.774-1.783-62.335 0 0zm.08 0c1.77-62.334 62.329-1.776 0 0zm-.08 80.164v-.002h.003c.025-.897.037-1.819.037-2.766 0 .947.013 1.87.038 2.766h.002v.002c.896.025 1.818.037 2.766.037a100.034 100.034 0 0 0-2.766.04h-.002c-.025.897-.038 1.819-.038 2.766 0-.947-.012-1.87-.037-2.766h-.003v-.002c-.897-.025-1.82-.038-2.769-.038.949 0 1.872-.012 2.77-.037zm.08.077c62.328 1.78 1.77 62.334 0 0zm-.08 0c-1.783 62.338-62.333 1.778 0 0zm0-.08c-62.333-1.777-1.783-62.337 0 0zm.08 0c1.77-62.336 62.329-1.779 0 0zm-.08 80.165v-.003h.003c.025-.897.037-1.82.037-2.77 0 .95.013 1.873.038 2.77h.002v.003c.896.024 1.818.037 2.766.037a100.049 100.049 0 0 0-2.766.04h-.002a100.05 100.05 0 0 0-.038 2.766 100.055 100.055 0 0 0-.04-2.766v-.002c-.897-.025-1.82-.038-2.769-.038.949 0 1.872-.013 2.77-.037zm.08.077c62.327 1.773 1.773 62.328 0 0zm-.08 0c-1.786 62.329-62.332 1.77 0 0zm0-.08c-62.333-1.784-1.784-62.334 0 0zm.08 0c1.771-62.333 62.328-1.786 0 0zm-.08 80.164v-.002h.003c.025-.896.037-1.818.037-2.766 0 .948.013 1.87.038 2.766h.002v.002c.896.025 1.818.038 2.766.038a99.996 99.996 0 0 0-2.766.04h-.002a100.03 100.03 0 0 0-.038 2.766c0-.948-.012-1.87-.037-2.766h-.003v-.003c-.897-.024-1.82-.037-2.769-.037.949 0 1.872-.013 2.77-.038zm.08.078c62.329 1.78 1.77 62.334 0 0zm-.08 0c-1.783 62.335-62.333 1.777 0 0zm0-.08c-62.333-1.777-1.783-62.334 0 0zm.08 0c1.77-62.333 62.328-1.78 0 0zM589.882 28.733v-.002h.002c.025-.897.038-1.819.038-2.766 0 .947.012 1.87.037 2.766h.002v.002c.897.025 1.819.037 2.766.037a100.014 100.014 0 0 0-2.766.04h-.002c-.025.897-.037 1.818-.037 2.766 0-.948-.013-1.87-.038-2.766h-.002v-.002c-.898-.025-1.82-.038-2.77-.038.95 0 1.872-.012 2.77-.037zm.08.077c62.328 1.783 1.774 62.33 0 0zm-.08 0c-1.781 62.332-62.334 1.781 0 0zm0-.08c-62.334-1.773-1.78-62.33 0 0zm.08 0c1.773-62.33 62.328-1.775 0 0zm-.08 80.168v-.002h.002c.025-.897.038-1.82.038-2.77 0 .95.012 1.872.037 2.77h.002v.002c.897.025 1.819.038 2.766.038a100.008 100.008 0 0 0-2.766.04h-.002c-.025.896-.037 1.818-.037 2.765 0-.947-.013-1.87-.038-2.766h-.002v-.002c-.898-.025-1.82-.037-2.77-.037.95 0 1.872-.013 2.77-.038zm.08.078c62.326 1.783 1.776 62.328 0 0zm-.08 0c-1.783 62.329-62.333 1.78 0 0zm0-.08c-62.334-1.774-1.78-62.335 0 0zm.08 0c1.773-62.334 62.328-1.776 0 0zm-.084 80.164v-.002h.002c.025-.897.038-1.819.038-2.766a100.026 100.026 0 0 0 .04 2.766v.002c.896.025 1.818.037 2.766.037-.948 0-1.87.013-2.766.038v.002h-.002c-.025.897-.038 1.818-.038 2.766 0-.948-.013-1.87-.038-2.766h-.002v-.002c-.896-.025-1.818-.038-2.766-.038.948 0 1.87-.012 2.766-.037zm.08.077c62.334 1.778 1.774 62.335 0 0zm-.08 0c-1.78 62.338-62.334 1.778 0 0zm0-.08c-62.334-1.777-1.78-62.337 0 0zm.08 0c1.777-62.338 62.334-1.777 0 0zm-.078 80.165v-.003h.002v-.024c.024-.89.036-1.805.036-2.745 0 .949.013 1.872.038 2.77h.005v.002c.896.025 1.816.037 2.763.037-.947 0-1.869.013-2.765.038v.002h-.001v.022c-.024.89-.036 1.804-.036 2.744 0-.948-.013-1.87-.038-2.766h-.006v-.002c-.896-.025-1.818-.038-2.766-.038.949 0 1.871-.012 2.768-.037zm0-.003c-62.325-1.782-1.795-62.319.001-.024v.024zm.079.08c62.324 1.771 1.79 62.314 0 .022v-.022zm-.08 0c-1.784 62.329-62.333 1.77 0 0zm.082-.08c1.775-62.333 62.329-1.786 0 0zm-.083 80.164v-.002h.002c.025-.896.038-1.818.038-2.766 0 .948.013 1.87.037 2.766h.003v.002c.896.025 1.818.038 2.766.038-.948 0-1.87.013-2.766.037v.003h-.002c-.025.896-.038 1.818-.038 2.766 0-.948-.013-1.87-.038-2.766h-.002v-.003c-.896-.024-1.818-.037-2.766-.037.948 0 1.87-.013 2.766-.038zm.08.078c62.334 1.777 1.774 62.335 0 0zm-.08 0c-1.78 62.335-62.334 1.777 0 0zm0-.08c-62.334-1.777-1.78-62.334 0 0zm.08 0c1.777-62.334 62.334-1.777 0 0zm-80.24-320.648v-.002h.002c.025-.897.037-1.819.037-2.766 0 .947.013 1.87.038 2.766h.002v.002c.896.025 1.818.037 2.766.037-.948 0-1.87.013-2.766.038v.002h-.002c-.025.897-.038 1.818-.038 2.766 0-.948-.012-1.87-.037-2.766h-.002v-.002c-.897-.025-1.819-.038-2.766-.038.947 0 1.87-.012 2.766-.037zm.079.077c62.33 1.781 1.778 62.332 0 0zm-.08 0c-1.777 62.332-62.33 1.781 0 0zm0-.08c-62.33-1.773-1.777-62.33 0 0zm.08 0c1.777-62.33 62.33-1.773 0 0zm-.08 80.168v-.002h.003c.025-.897.037-1.82.037-2.77 0 .95.013 1.873.038 2.77h.002v.002c.896.025 1.818.038 2.766.038-.948 0-1.87.012-2.766.037v.002h-.002c-.025.897-.038 1.819-.038 2.766 0-.947-.012-1.87-.037-2.766h-.003v-.002c-.896-.025-1.818-.037-2.765-.037.947 0 1.87-.013 2.766-.038zm.08.077c62.33 1.781 1.78 62.33 0 0zm-.08 0c-1.78 62.33-62.329 1.781 0 0zm0-.079c-62.33-1.774-1.777-62.335 0 0zm.08 0c1.777-62.335 62.33-1.774 0 0zm-.08 80.164v-.002h.003c.025-.895.037-1.815.037-2.76a100.036 100.036 0 0 0 .04 2.76v.002c.896.025 1.818.037 2.766.037-.948 0-1.87.013-2.766.038v.002h-.002c-.025.897-.038 1.818-.038 2.766 0-.948-.012-1.87-.037-2.766h-.002v-.002c-.897-.025-1.819-.038-2.766-.038.947 0 1.87-.012 2.766-.037zm.08.077c62.33 1.778 1.774 62.335 0 0zm-.08 0c-1.777 62.335-62.33 1.778 0 0zm0-.08c-62.33-1.777-1.777-62.337 0 0zm.08 0c1.777-62.337 62.33-1.777 0 0zm-.08 80.165v-.003h.003c.025-.897.037-1.82.037-2.77 0 .95.013 1.873.038 2.77h.002v.003c.896.024 1.818.037 2.766.037a100.028 100.028 0 0 0-2.766.04h-.002c-.025.896-.038 1.818-.038 2.766 0-.948-.012-1.87-.037-2.766h-.003v-.002c-.896-.025-1.818-.038-2.765-.038.947 0 1.87-.013 2.766-.037zm.08.077c62.33 1.77 1.78 62.329 0 0zm-.08 0c-1.779 62.329-62.329 1.77 0 0zm0-.08c-62.33-1.784-1.777-62.334 0 0zm.08 0c1.778-62.334 62.33-1.784 0 0zm-.08 80.164v-.002h.003c.024-.896.037-1.818.037-2.766 0 .948.013 1.87.038 2.766h.002v.002c.896.025 1.818.038 2.766.038-.948 0-1.87.013-2.766.037v.003h-.002c-.025.896-.038 1.818-.038 2.766a100.056 100.056 0 0 0-.04-2.766v-.003c-.896-.024-1.818-.037-2.765-.037.947 0 1.87-.013 2.766-.038zm.08.078c62.33 1.777 1.774 62.335 0 0zm-.08 0c-1.78 62.335-62.33 1.777 0 0zm0-.08c-62.33-1.777-1.777-62.334 0 0zm.08 0c1.777-62.334 62.33-1.777 0 0zM429.553 28.733v-.002h.003c.024-.897.037-1.819.037-2.766 0 .947.013 1.87.037 2.766h.003v.002c.897.025 1.82.037 2.77.037-.95 0-1.873.013-2.77.038v.002h-.003c-.024.897-.037 1.818-.037 2.766a100.037 100.037 0 0 0-.04-2.768c-.896-.025-1.818-.038-2.766-.038.948 0 1.87-.012 2.766-.037zm.08.077c62.334 1.781 1.777 62.332 0 0zm-.08 0c-1.777 62.33-62.328 1.783 0 0zm0-.08c-62.328-1.775-1.777-62.33 0 0zm.08 0c1.777-62.33 62.334-1.773 0 0zm-.08 80.168v-.002h.002c.025-.898.038-1.82.038-2.77 0 .95.013 1.872.038 2.77h.002v.002c.897.025 1.82.038 2.77.038a100 100 0 0 0-2.77.037v.002h-.003c-.024.897-.037 1.819-.037 2.766 0-.947-.013-1.87-.037-2.766h-.003v-.002c-.896-.025-1.818-.037-2.766-.037.948 0 1.87-.013 2.766-.038zm.08.077c62.333 1.781 1.78 62.33 0 0zm-.08 0c-1.78 62.329-62.327 1.784 0 0zm0-.079c-62.328-1.776-1.777-62.334 0 0zm.08 0c1.777-62.335 62.334-1.774 0 0zm-.08 80.164v-.002h.003c.024-.895.037-1.815.037-2.76 0 .945.013 1.865.037 2.76h.003v.002c.897.025 1.82.037 2.77.037-.95 0-1.873.013-2.77.038v.002h-.003c-.024.897-.037 1.818-.037 2.766 0-.947-.013-1.87-.037-2.766h-.003v-.002c-.896-.025-1.818-.038-2.766-.038.948 0 1.87-.012 2.766-.037zm.08.077c62.334 1.778 1.774 62.335 0 0zm-.08 0c-1.777 62.334-62.328 1.78 0 0zm0-.08c-62.328-1.779-1.777-62.336 0 0zm.08 0c1.777-62.338 62.334-1.777 0 0zm-.002 80.162h.002v.003c.897.024 1.82.037 2.77.037-.95 0-1.873.013-2.77.038v.002h-.003c-.024.896-.037 1.818-.037 2.766 0-.948-.013-1.87-.037-2.766h-.003v-.002c-.896-.025-1.818-.038-2.766-.038.948 0 1.87-.013 2.766-.037v-.003h.002c.025-.897.038-1.82.038-2.77 0 .95.013 1.873.038 2.77zm.002.08c62.333 1.77 1.78 62.329 0 0zm-.08 0c-1.78 62.328-62.327 1.773 0 0zm0-.08c-62.328-1.786-1.777-62.333 0 0zm.08 0c1.777-62.334 62.334-1.784 0 0zm-.08 80.164v-.002h.003c.024-.894.037-1.814.037-2.76 0 .946.013 1.866.037 2.76h.003v.002c.897.025 1.82.038 2.77.038-.95 0-1.873.013-2.77.037v.003h-.003c-.024.896-.037 1.818-.037 2.766 0-.948-.013-1.87-.037-2.766h-.003v-.003c-.896-.024-1.818-.037-2.766-.037.948 0 1.87-.013 2.766-.038zm.08.078c62.334 1.777 1.774 62.335 0 0zm-.08 0c-1.777 62.334-62.328 1.78 0 0zm0-.08c-62.328-1.78-1.777-62.333 0 0zm.08 0c1.777-62.334 62.334-1.777 0 0zM349.389 28.733v-.002h.002c.025-.897.038-1.819.038-2.766 0 .947.012 1.87.037 2.766h.002v.002c.897.025 1.819.037 2.766.037-.947 0-1.87.013-2.766.038v.002h-.002c-.025.897-.037 1.818-.037 2.766 0-.948-.013-1.87-.038-2.766h-.002v-.002c-.897-.025-1.818-.038-2.766-.038.948 0 1.87-.012 2.766-.037zm.08.077c62.333 1.781 1.777 62.332 0 0zm-.08 0c-1.778 62.332-62.334 1.781 0 0zm0-.08c-62.334-1.773-1.778-62.33 0 0zm.08 0c1.777-62.33 62.333-1.773 0 0zm-.08 80.168v-.005h.002c.025-.897.038-1.819.038-2.767 0 .95.012 1.872.037 2.769h.002v.001h.018c.89.024 1.803.036 2.743.036-.946 0-1.866.013-2.76.038v.005h-.003c-.025.897-.037 1.819-.037 2.766 0-.948-.013-1.87-.038-2.768h-.022.02c-1.778 62.326-62.32 1.793-.02 0-.89-.025-1.806-.037-2.746-.037.948 0 1.87-.013 2.766-.038zm-.02.075zm.1-.078c1.777-62.327 62.321-1.785.017 0h-.018zm0 .08c62.332 1.781 1.78 62.33 0 0zm-.08-.082c-62.333-1.771-1.78-62.33 0 0zm0 80.167v-.002h.002c.025-.897.038-1.819.038-2.766 0 .947.012 1.87.037 2.766h.002v.002c.897.025 1.819.037 2.766.037a100.015 100.015 0 0 0-2.766.04h-.002c-.025.897-.037 1.819-.037 2.766 0-.947-.013-1.87-.038-2.766h-.002v-.002c-.897-.025-1.818-.038-2.766-.038.948 0 1.87-.012 2.766-.037zm.08.077c62.333 1.778 1.777 62.335 0 0zm-.08 0c-1.777 62.338-62.334 1.778 0 0zm0-.08c-62.334-1.777-1.777-62.338 0 0zm.08 0c1.777-62.338 62.333-1.777 0 0zm-.08 80.165v-.003h.002c.025-.897.038-1.82.038-2.77 0 .95.012 1.873.037 2.77h.002v.003c.897.024 1.819.037 2.766.037a100.068 100.068 0 0 0-2.766.04h-.002c-.025.896-.037 1.818-.037 2.766 0-.948-.013-1.87-.038-2.766h-.002v-.002c-.897-.025-1.818-.038-2.766-.038.948 0 1.87-.013 2.766-.037zm.08.077c62.332 1.77 1.779 62.329 0 0zm-.08 0c-1.78 62.329-62.333 1.77 0 0zm0-.08c-62.334-1.784-1.778-62.334 0 0zm.08 0c1.777-62.334 62.333-1.784 0 0zm-.08 80.164v-.002h.002c.025-.896.038-1.818.038-2.766 0 .948.012 1.87.037 2.766h.002v.002c.897.025 1.819.038 2.766.038-.947 0-1.87.013-2.766.037v.003h-.002c-.025.896-.037 1.818-.037 2.766 0-.948-.013-1.87-.038-2.766h-.002v-.003c-.897-.024-1.818-.037-2.766-.037.948 0 1.87-.013 2.766-.038zm.08.078c62.334 1.777 1.777 62.335 0 0zm-.08 0c-1.777 62.335-62.334 1.777 0 0zm0-.08c-62.334-1.777-1.778-62.334 0 0zm.08 0c1.777-62.334 62.333-1.777 0 0zM269.227 28.733v-.002h.002c.025-.897.038-1.819.038-2.766 0 .947.012 1.87.037 2.766h.002v.002c.897.025 1.819.037 2.767.037a100.063 100.063 0 0 0-2.767.04h-.002a100.02 100.02 0 0 0-.037 2.766c0-.948-.013-1.87-.038-2.766h-.002v-.002c-.898-.025-1.82-.038-2.77-.038.95 0 1.872-.012 2.77-.037zm.08.077c62.328 1.783 1.77 62.33 0 0zm-.08 0c-1.784 62.332-62.334 1.781 0 0zm0-.08c-62.334-1.773-1.784-62.33 0 0zm.08 0c1.77-62.33 62.328-1.775 0 0zm-.08 80.168v-.002h.002c.025-.896.038-1.818.038-2.766 0 .948.012 1.87.037 2.766h.002v.002c.897.025 1.819.038 2.767.038-.948 0-1.87.012-2.767.037v.003h-.002c-.025.896-.037 1.818-.037 2.765 0-.947-.013-1.87-.038-2.766h-.002v-.002c-.898-.025-1.82-.037-2.77-.037.95 0 1.872-.013 2.77-.038zm.08.078c62.328 1.782 1.77 62.333 0 0zm-.08 0c-1.784 62.33-62.334 1.78 0 0zm0-.08c-62.334-1.774-1.784-62.335 0 0zm.08 0c1.77-62.334 62.328-1.776 0 0zm-.08 80.164v-.002h.002c.025-.897.038-1.819.038-2.766 0 .947.012 1.87.037 2.766h.002v.002c.897.025 1.819.037 2.767.037a100.034 100.034 0 0 0-2.767.04h-.002a100.07 100.07 0 0 0-.037 2.766c0-.947-.013-1.87-.038-2.766h-.002v-.002c-.898-.025-1.82-.038-2.77-.038.95 0 1.872-.012 2.77-.037zm.08.077c62.328 1.78 1.77 62.334 0 0zm-.08 0c-1.784 62.338-62.334 1.778 0 0zm0-.08c-62.334-1.777-1.784-62.337 0 0zm.08 0c1.77-62.336 62.328-1.779 0 0zm-.08 80.165v-.003h.002c.025-.897.038-1.82.038-2.77 0 .95.012 1.873.037 2.77h.002v.003c.897.024 1.819.037 2.767.037a100.049 100.049 0 0 0-2.767.04h-.002c-.025.896-.037 1.818-.037 2.766a100.055 100.055 0 0 0-.04-2.766v-.002a100.01 100.01 0 0 0-2.77-.038c.95 0 1.872-.013 2.77-.037zm.08.077c62.327 1.773 1.773 62.328 0 0zm-.08 0c-1.786 62.329-62.333 1.77 0 0zm0-.08c-62.334-1.784-1.784-62.334 0 0zm.08 0c1.77-62.333 62.328-1.786 0 0zm-.08 80.164v-.002h.002c.025-.896.038-1.818.038-2.766 0 .948.012 1.87.037 2.766h.002v.002c.897.025 1.819.038 2.767.038a99.995 99.995 0 0 0-2.767.04h-.002a100.03 100.03 0 0 0-.037 2.766c0-.948-.013-1.87-.038-2.766h-.002v-.003c-.898-.024-1.82-.037-2.77-.037.95 0 1.872-.013 2.77-.038zm.08.078c62.328 1.78 1.77 62.334 0 0zm-.08 0c-1.784 62.335-62.334 1.777 0 0zm0-.08c-62.334-1.777-1.784-62.334 0 0zm.08 0c1.77-62.333 62.328-1.78 0 0zM189.06 28.733v-.002h.003c.024-.897.037-1.819.037-2.766 0 .947.013 1.87.038 2.766h.002v.002c.896.025 1.818.037 2.766.037a100.014 100.014 0 0 0-2.766.04h-.002c-.025.897-.038 1.818-.038 2.766 0-.948-.013-1.87-.037-2.766h-.003v-.002c-.897-.025-1.82-.038-2.77-.038.95 0 1.873-.012 2.77-.037zm.08.077c62.328 1.783 1.774 62.33 0 0zm-.08 0c-1.78 62.332-62.334 1.781 0 0zm0-.08c-62.334-1.773-1.78-62.33 0 0zm.08 0c1.774-62.33 62.328-1.775 0 0zm-.08 80.168v-.002h.002c.025-.897.038-1.82.038-2.77 0 .95.013 1.872.038 2.77h.002v.002c.896.025 1.818.038 2.766.038a100.008 100.008 0 0 0-2.766.04h-.002c-.025.896-.038 1.818-.038 2.765 0-.947-.013-1.87-.037-2.766h-.003v-.002c-.897-.025-1.82-.037-2.77-.037.95 0 1.873-.013 2.77-.038zm.08.078c62.327 1.783 1.776 62.328 0 0zm-.08 0c-1.783 62.329-62.332 1.78 0 0zm0-.08c-62.334-1.774-1.78-62.335 0 0zm.08 0c1.774-62.334 62.328-1.776 0 0zm-.083 80.164v-.002h.002c.025-.897.038-1.819.038-2.766a100.026 100.026 0 0 0 .04 2.766v.002c.896.025 1.818.037 2.765.037-.947 0-1.87.013-2.766.038v.002h-.002c-.025.897-.037 1.818-.037 2.766 0-.948-.013-1.87-.038-2.766h-.002v-.002c-.897-.025-1.818-.038-2.766-.038.948 0 1.87-.012 2.766-.037zm.08.077c62.333 1.778 1.774 62.335 0 0zm-.08 0c-1.78 62.338-62.334 1.778 0 0zm0-.08c-62.334-1.777-1.78-62.337 0 0zm.08 0c1.777-62.338 62.334-1.777 0 0zm-.078 80.165v-.003h.001v-.024l-.001.024c-62.326-1.782-1.796-62.319 0-.024.025-.89.038-1.805.038-2.745 0 .949.012 1.872.037 2.77h.006v.002c.895.025 1.816.037 2.762.037-.947 0-1.868.013-2.764.038v.002h-.002v.022c-.023.89-.036 1.804-.036 2.744 0-.948-.013-1.87-.037-2.766h-.006v-.002c-.897-.025-1.818-.038-2.766-.038.948 0 1.87-.012 2.768-.037zm.079.077c62.323 1.771 1.789 62.314-.001.022v-.022zm-.081 0c-1.783 62.329-62.333 1.77 0 0zm.083-.08c1.774-62.333 62.328-1.786 0 0zm-.083 80.164v-.002h.002c.025-.896.038-1.818.038-2.766 0 .948.012 1.87.037 2.766h.002v.002c.897.025 1.819.038 2.766.038-.947 0-1.87.013-2.766.037v.003h-.002c-.025.896-.037 1.818-.037 2.766 0-.948-.013-1.87-.038-2.766h-.002v-.003c-.897-.024-1.818-.037-2.766-.037.948 0 1.87-.013 2.766-.038zm.08.078c62.334 1.777 1.773 62.335 0 0zm-.08 0c-1.78 62.335-62.334 1.777 0 0zm0-.08c-62.334-1.777-1.78-62.334 0 0zm.08 0c1.777-62.334 62.333-1.777 0 0zm-80.24-320.648v-.002h.001c.025-.897.038-1.819.038-2.766 0 .947.013 1.87.037 2.766h.003v.002c.896.025 1.818.037 2.766.037-.948 0-1.87.013-2.767.038v.002h-.002c-.024.897-.037 1.818-.037 2.766 0-.948-.013-1.87-.038-2.766h-.002v-.002c-.896-.025-1.818-.038-2.766-.038.948 0 1.87-.012 2.766-.037zm.079.077c62.33 1.781 1.777 62.332 0 0zm-.08 0c-1.777 62.332-62.33 1.781 0 0zm0-.08c-62.33-1.773-1.777-62.33 0 0zm.08 0c1.777-62.33 62.33-1.773 0 0zm-.08 80.168v-.002h.002c.025-.897.038-1.82.038-2.77 0 .95.013 1.873.037 2.77h.003v.002c.896.025 1.818.038 2.766.038-.948 0-1.87.012-2.766.037v.002h-.003c-.024.897-.037 1.819-.037 2.766 0-.947-.013-1.87-.038-2.766h-.002v-.002c-.896-.025-1.818-.037-2.766-.037.948 0 1.87-.013 2.766-.038zm.08.077c62.329 1.781 1.78 62.33 0 0zm-.08 0c-1.78 62.33-62.33 1.781 0 0zm0-.079c-62.33-1.774-1.777-62.335 0 0zm.08 0c1.777-62.335 62.33-1.774 0 0zm-.08 80.164v-.002h.002c.025-.895.038-1.815.038-2.76a100.036 100.036 0 0 0 .04 2.76v.002c.896.025 1.818.037 2.766.037-.948 0-1.87.013-2.767.038v.002h-.002c-.025.897-.037 1.818-.037 2.766 0-.948-.013-1.87-.038-2.766h-.002v-.002c-.896-.025-1.818-.038-2.766-.038.948 0 1.87-.012 2.766-.037zm.08.077c62.33 1.778 1.774 62.335 0 0zm-.08 0c-1.777 62.335-62.33 1.778 0 0zm0-.08c-62.33-1.777-1.777-62.337 0 0zm.08 0c1.777-62.337 62.33-1.777 0 0zm-.08 80.165v-.003h.002c.025-.897.038-1.82.038-2.77 0 .95.013 1.873.037 2.77h.003v.003c.896.024 1.818.037 2.766.037a100.028 100.028 0 0 0-2.766.04h-.003c-.024.896-.037 1.818-.037 2.766 0-.948-.013-1.87-.038-2.766h-.002v-.002c-.896-.025-1.818-.038-2.766-.038.948 0 1.87-.013 2.766-.037zm.08.077c62.329 1.77 1.78 62.329 0 0zm-.08 0c-1.78 62.329-62.33 1.77 0 0zm0-.08c-62.33-1.784-1.777-62.334 0 0zm.08 0c1.777-62.334 62.33-1.784 0 0zm-.08 80.164v-.002h.002c.025-.896.038-1.818.038-2.766 0 .948.012 1.87.037 2.766h.003v.002c.896.025 1.818.038 2.766.038-.948 0-1.87.013-2.767.037v.003h-.002c-.024.896-.037 1.818-.037 2.766a100.056 100.056 0 0 0-.04-2.766v-.003c-.896-.024-1.818-.037-2.766-.037.948 0 1.87-.013 2.766-.038zm.08.078c62.33 1.777 1.773 62.335 0 0zm-.08 0c-1.78 62.335-62.33 1.777 0 0zm0-.08c-62.33-1.777-1.777-62.334 0 0zm.08 0c1.777-62.334 62.33-1.777 0 0zM28.732 28.733v-.002h.002c.025-.897.038-1.819.038-2.766 0 .947.012 1.87.037 2.766h.002v.002c.898.025 1.82.037 2.77.037-.95 0-1.872.013-2.77.038v.002h-.002c-.025.897-.037 1.818-.037 2.766a100.037 100.037 0 0 0-.04-2.768c-.897-.025-1.818-.038-2.766-.038.948 0 1.87-.012 2.766-.037zm.08.077c62.333 1.781 1.777 62.332 0 0zm-.08 0c-1.778 62.33-62.329 1.783 0 0zm0-.08c-62.329-1.775-1.778-62.33 0 0zm.08 0c1.777-62.33 62.333-1.773 0 0zm-.08 80.168v-.002h.002c.025-.898.038-1.82.038-2.77 0 .95.012 1.872.037 2.77h.002v.002c.898.025 1.82.038 2.77.038a100 100 0 0 0-2.77.037v.002h-.002c-.025.897-.037 1.819-.037 2.766 0-.947-.013-1.87-.038-2.766h-.002v-.002c-.897-.025-1.818-.037-2.766-.037.948 0 1.87-.013 2.766-.038zm.08.077c62.332 1.781 1.779 62.33 0 0zm-.08 0c-1.78 62.329-62.327 1.784 0 0zm0-.079c-62.329-1.776-1.777-62.334 0 0zm.08 0c1.777-62.335 62.333-1.774 0 0zm-.08 80.164v-.002h.002c.025-.895.038-1.815.038-2.76 0 .945.012 1.865.037 2.76h.002v.002c.898.025 1.82.037 2.77.037-.95 0-1.872.013-2.77.038v.002h-.002c-.025.897-.037 1.818-.037 2.766 0-.947-.013-1.87-.038-2.766h-.002v-.002c-.897-.025-1.818-.038-2.766-.038.948 0 1.87-.012 2.766-.037zm.08.077c62.333 1.778 1.773 62.335 0 0zm-.08 0c-1.778 62.334-62.329 1.78 0 0zm0-.08c-62.329-1.779-1.777-62.336 0 0zm.08 0c1.777-62.338 62.333-1.777 0 0zm-.08 80.165v-.003h.002c.025-.897.038-1.82.038-2.77 0 .95.012 1.873.037 2.77h.002v.002c.898.025 1.82.038 2.77.038-.95 0-1.872.013-2.77.038v.002h-.002c-.025.896-.037 1.818-.037 2.766 0-.948-.013-1.87-.038-2.766h-.002v-.002c-.897-.025-1.818-.038-2.766-.038.948 0 1.87-.013 2.766-.037zm.08.077c62.332 1.77 1.779 62.329 0 0zm-.08 0c-1.78 62.328-62.327 1.773 0 0zm0-.08c-62.329-1.786-1.778-62.333 0 0zm.08 0c1.777-62.334 62.333-1.784 0 0zm-.08 80.164v-.002h.002c.025-.894.038-1.814.038-2.76 0 .946.012 1.866.037 2.76h.002v.002c.898.025 1.82.038 2.77.038-.95 0-1.872.013-2.77.037v.003h-.002c-.025.896-.037 1.818-.037 2.766 0-.948-.013-1.87-.038-2.766h-.002v-.003c-.897-.024-1.818-.037-2.766-.037.948 0 1.87-.013 2.766-.038zm.04-2.768v0zm.04 2.846c62.333 1.777 1.773 62.335 0 0zm-.08 0c-1.777 62.334-62.329 1.78 0 0zm0-.08c-62.329-1.78-1.778-62.333 0 0zm.08 0c1.777-62.334 62.333-1.777 0 0z"/></g></g></svg>