<svg xmlns="http://www.w3.org/2000/svg" width="490" height="800" viewBox="0 0 490 800">
    <g>
        <g>
            <path d="M423.347 266.673H356.71l33.309-33.336 33.327-33.336zm-133.29 0h-66.652l33.326-33.336 33.327-33.336zm-199.942 400H23.462l33.327-33.335 33.326-33.336zm0 66.655V800H23.462l33.327-33.336zm266.596-466.655h-66.653l33.326-33.336 33.327-33.336zm-66.653 400h-66.653l33.326-33.335 33.327-33.336zm-66.653 0h-66.636l33.308-33.335 33.328-33.336zm-66.636 0H90.115l33.327-33.335 33.327-33.336zm0-200H90.115l33.327-33.337L156.769 400zm66.636-200h-66.636l33.308-33.336 33.328-33.336zm0 133.327v66.672h-66.636l33.308-33.336zM23.462 733.328V800H-.001v-43.202zm0-133.326v66.671H-.001v-43.201zm0-200.002v66.672H-.001V423.47zm66.653 66.672H23.462l33.327-33.336L90.115 400zm199.943 266.656V800h-66.653l33.326-33.336zm-33.327-33.336l33.327-33.319v66.655h-66.653zm66.653 0l33.327-33.319v66.655h-66.653zM23.462 666.673v66.655H-.001v-43.197zm333.249 66.655V800h-66.653l33.326-33.336zM290.058 400v66.672h-66.653l33.326-33.336zm133.289 333.328V800H356.71l33.309-33.336zm33.327 33.336L490 733.328V800h-66.653zM90.115 733.328H23.462l33.327-33.336 33.326-33.319zm366.559-33.336L490 666.673v66.655h-66.653zm-266.597 0l33.328-33.319v66.655h-66.636zM23.462 200.001v66.672H-.001v-43.202zM356.71 666.673h-66.653l33.326-33.335 33.327-33.336zm-199.942-400H90.115l33.327-33.336 33.327-33.336zm0 466.655V800H90.115l33.327-33.336zM90.115 266.673H23.462l33.327-33.336 33.326-33.336zm333.232 400H356.71l33.309-33.335 33.327-33.336zm-33.327 33.32l33.327-33.32v66.655H356.71zm-166.615 33.335V800h-66.636l33.308-33.336zm-99.963-33.336l33.327-33.319v66.655H90.115zm333.232-66.654L490 600.001v66.671h-66.653zM90.115 66.671H23.462l33.327-33.336L90.115-.001zm66.654 0H90.115l33.327-33.336L156.769-.001zM23.462-.001v66.673H-.001V23.469zm199.943 66.673h-66.636l33.308-33.336L223.405-.001zm199.942 0H356.71l33.309-33.336L423.347-.001zM390.02 99.99l33.327-33.318v66.654H356.71zm-33.31-33.318h-66.652l33.326-33.336L356.711-.001zm-66.652 0h-66.653l33.326-33.336L290.058-.001zM456.674 499.99L490 466.672v66.655h-66.653zm0-200L490 266.674v66.655h-66.653zm0 133.345L490 400v66.672h-66.653zm0-66.672L490 333.328V400h-66.653zM323.384 99.99l33.327-33.318v66.654h-66.653zm133.29 466.673L490 533.327v66.672h-66.653zm0-333.326L490 200.001v66.672h-66.653zM123.442 99.99l33.327-33.318v66.654H90.115zm199.942 333.346L356.711 400v66.672h-66.653zm33.327-300.01v66.672h-66.653l33.326-33.336zM256.73 99.99l33.327-33.318v66.654h-66.653zm-99.962 33.336v66.672H90.115l33.327-33.336zm-66.654 0v66.672H23.462l33.327-33.336zm199.943 0v66.672h-66.653l33.326-33.336zM490 0v66.673h-66.653l33.327-33.336zM456.674 99.99L490 66.672v66.654h-66.653zm-33.327 33.336v66.672H356.71l33.309-33.336zm33.327 33.336L490 133.326v66.672h-66.653zm-233.27-33.336v66.672H156.77l33.308-33.336zm-133.289 0H23.462L56.789 99.99l33.326-33.318zM23.462 66.672v66.654H-.001V90.13zm399.885 466.655v66.672H356.71l33.309-33.336zM190.077 99.99l33.328-33.318v66.654h-66.636zM23.462 133.326v66.672H-.001v-43.202zm199.943 333.346v66.655h-66.636l33.308-33.336zm66.653 0v66.655h-66.653l33.326-33.336zm-266.596 0v66.655H-.001V490.13zm66.653 66.655H23.462l33.327-33.336 33.326-33.319zm66.654-66.655v66.655H90.115l33.327-33.336zm199.942 0v66.655h-66.653l33.326-33.336zm0 66.655v66.672h-66.653l33.326-33.336zm33.309-99.991L423.347 400v66.672H356.71zm0 66.655l33.327-33.319v66.655H356.71zM90.115 400H23.462l33.327-33.337 33.326-33.336zM390.02 299.99l33.327-33.318v66.655H356.71zm-233.251 100.01H90.115l33.327-33.337 33.327-33.336zm99.962-33.337l33.327-33.336V400h-66.653zm66.653 0l33.327-33.336V400h-66.653zm-133.307 0l33.328-33.336V400h-66.636zM23.462 333.328V400H-.001v-43.202zm366.558 33.336l33.327-33.336V400H356.71zM23.462 533.327v66.672H-.001v-43.202zm199.943 0v66.672h-66.636l33.308-33.336zm99.98-233.335l33.326-33.319v66.655h-66.653zM90.114 533.327v66.672H23.462l33.327-33.336zm66.654 0v66.672H90.115l33.327-33.336zm133.289 0v66.672h-66.653l33.326-33.336zm-99.98-233.335l33.327-33.319v66.655h-66.636zm66.653 0l33.327-33.319v66.655h-66.653zM90.115 333.328H23.462l33.327-33.336 33.326-33.319zm33.327-33.336l33.327-33.319v66.655H90.115zm-99.98-33.319v66.655H-.001V290.13z" />
        </g>
    </g>
</svg>