<svg xmlns="http://www.w3.org/2000/svg" width="949" height="783" viewBox="0 0 949 783"><g><g><path fill="#011613" d="M947.978 349.725v189.512l.305-.176v241.557l-.305-.311v2.262L753.815 669.98 568.037 777.634l-186.929-107.67-185.682 107.67L0 665.142V646.32l186.514 108.155v-24.197L0 622.123v-18.822l186.514 108.155v-24.197L0 579.104V560.28l186.514 108.156V644.24L0 536.085v-18.823l186.514 108.155v-24.196L0 493.066v-18.823l186.514 108.155v-24.197L0 450.046V215.738l186.514 108.155v-24.197L0 191.54v-18.823l186.514 108.155v-24.196L0 148.52V129.7l186.514 108.155v-24.196L0 105.502V86.68l186.514 108.155v-24.197L0 62.483V43.661l186.514 108.155v-24.197L0 19.464V.642l194.351 112.7 187.38-108.29L567.09 113.308 753.039 5.052l194.939 113.017v.814l.305.019v231.134zm-910.736-93.57L16.295 244.01v196.664l20.947 12.147zm37.242 21.596l-20.948-12.147V462.27l20.948 12.146zm37.241 21.596L90.778 287.2v196.664l20.947 12.147zm37.242 21.595l-20.947-12.146V505.46l20.947 12.146zm37.242 21.596L165.26 330.39v196.665l20.948 12.146zm186.513 313.466V459.297l-20.947 12.147v196.707zM335.481 677.6V480.893l-20.947 12.147v196.707zm-37.242 21.595V502.49l-20.947 12.147v196.706zm-37.242 21.596V524.084l-20.947 12.147v196.707zm-37.242 21.595V545.68l-20.946 12.147v196.706zM202.81 127.244V323.91l20.946-12.147V115.097zm37.241-21.595v196.664l20.947-12.147V93.502zm37.242-21.596v196.664l20.947-12.147V71.906zm37.242-21.596v196.665l20.947-12.147V50.31zm37.241-21.595v196.664l20.947-12.147V28.715zm20.962 203.33l-170.234 98.716v24.196l170.234-98.714zm0 43.02l-170.234 98.715v24.197l170.234-98.715zm0 43.019l-170.234 98.715v24.196l170.235-98.714zm0 43.02l-170.234 98.714v24.197l170.235-98.715zm0 43.018l-170.234 98.715v24.197l170.234-98.715v-9.242zm16.28 230.286v9.205l170.234 98.715v-24.197l-170.234-98.715zm0-33.814l170.234 98.715v-24.197l-170.234-98.715zm0-43.02l170.234 98.716V644.24l-170.234-98.715zm0-43.018l170.234 98.714v-24.196l-170.234-98.715zm0-310.43v8.905l170.234 98.715v-24.197l-170.195-98.692zm.015 27.736v196.664l20.947 12.147V256.156zm37.242 21.595V462.27l20.947 12.146V277.751zm37.241 21.596v196.664l20.948 12.147V299.347zm37.242 21.596V505.46l20.947 12.146V320.942zM538 330.39v196.665l20.947 12.146V342.538zM389.105 182.21l170.146 98.664v-24.196l-170.084-98.628zm.11-42.955l170.036 98.6v-24.196l-169.973-98.564zm.111-42.954l169.925 98.535v-24.197L389.39 72.14zm169.925 40.393v-9.074L389.499 29.184l-.062 24.16 169.814 98.472v-15.123zm0 430.583V558.2l-170.234-98.714v24.196l170.234 98.715v-15.123zm186.208 88.728V459.297l-20.946 12.147v196.707zM708.218 677.6V480.893l-20.947 12.147v196.707zm-37.242 21.595V502.49l-20.947 12.147v196.706zm-37.242 21.596V524.084l-20.947 12.147v196.707zm-37.241 21.595V545.68l-20.947 12.147v196.706zm-20.947-615.142V323.91l20.947-12.147V115.097zm37.241-21.595v196.664l20.947-12.147V93.502zm37.242-21.596v196.664l20.947-12.147V71.906zm37.242-21.596v196.665l20.947-12.147V50.31zm37.242-21.595v196.664l20.946-12.147V28.715zm20.962 203.33L575.24 342.909v24.196l170.234-98.714zm0 43.02L575.24 385.927v24.197l170.235-98.715zm0 43.019L575.24 428.946v24.196l170.235-98.714zm0 43.02L575.24 471.964v24.197l170.234-98.715zm0 43.018L575.24 514.984v24.197l170.234-98.715v-9.242zm186.514 184.952l-170.235-98.715v24.197l170.234 98.714zm0 43.019l-170.235-98.715v24.196l170.234 98.716zm0 43.019l-170.235-98.715v24.197l170.234 98.715zm-170.235-40.704v9.205l170.234 98.715v-24.197l-170.234-98.715v14.992zm-.002-430.623l.002-.002v9.248l170.234 98.715v-24.197L761.686 200.94zm.017 28.077v196.664l20.948 12.147V256.156zm37.242 21.595V462.27l20.947 12.146V277.751zm37.242 21.596v196.664l20.947 12.147V299.347zm37.241 21.596V505.46l20.948 12.146V320.942zm37.242 21.595v196.665l20.947 12.146V342.538zm-149.133-148.32l170.385 98.802v-24.196l-170.49-98.865zm-.188-43.129l170.573 98.912v-24.196l-170.68-98.974zm-.19-43.128l170.763 99.021v-24.197L761.12 71.555zm-.295-67.387l.107 24.258 170.952 99.13V127.62zm.824 431.06v24.196l170.235 98.715v-24.197z"/></g></g></svg>