<svg xmlns="http://www.w3.org/2000/svg" width="779" height="779" viewBox="0 0 779 779"><g><g><path fill="#011613" d="M616.87 161.738l-.015.016-.015-.016zM357.843 420.705l.029.032-.03-.03zm31.552-76.06c11.413 0 22.825 4.349 31.523 13.047l-14.065 14.065c-4.812-4.843-11.135-7.249-17.458-7.249-6.323 0-12.646 2.406-17.458 7.218a24.62 24.62 0 0 0-7.248 17.458c0 6.323 2.405 12.646 7.217 17.457l-14.063 14.064c-8.678-8.694-13.018-20.123-13.018-31.49 0-11.413 4.35-22.825 13.047-31.523 8.698-8.698 20.142-13.047 31.523-13.047zm11.69 216.033c0 46.852-17.89 93.736-53.638 129.515-35.749 35.748-82.632 53.638-129.515 53.638-46.853 0-93.767-17.89-129.515-53.638l14.065-14.065c31.893 31.893 73.656 47.81 115.45 47.81s83.588-15.948 115.45-47.81c31.893-31.893 47.808-73.656 47.808-115.45 0-41.763-15.946-83.557-47.808-115.42l14.036-14.036-14.036 13.944v.03c-15.453-15.452-23.195-35.717-23.195-55.982 0-20.264 7.742-40.498 23.195-55.982 15.453-15.515 35.749-23.256 56.013-23.256 20.265 0 40.56 7.741 56.013 23.194l-14.065 14.066c-11.566-11.598-26.773-17.366-41.948-17.366s-30.381 5.799-41.948 17.366c-11.597 11.566-17.365 26.772-17.365 41.948 0 15.206 5.798 30.412 17.365 42.01v-.031c35.749 35.779 53.638 82.632 53.638 129.515zm313.78-153.975c42.533 42.534 63.785 98.27 63.785 154.006 0 55.735-21.282 111.47-63.786 154.005l-.016-.016c-42.501 42.524-98.26 63.771-153.99 63.771-55.735 0-111.47-21.251-154.005-63.786-4.565-4.564-9.068-9.53-13.51-14.867-1.342-1.614-2.625-3.293-3.925-4.953-5.378 6.859-11.166 13.5-17.48 19.82-42.535 42.535-98.27 63.786-154.006 63.786-55.73 0-111.458-21.247-153.99-63.77l-.016.015C21.391 672.211.14 616.444.14 560.71c0-55.736 21.252-111.472 63.786-154.006a218.425 218.425 0 0 1 19.798-17.524c-1.652-1.296-3.321-2.574-4.93-3.913-5.337-4.441-10.303-8.944-14.868-13.51C21.391 329.224.14 273.487.14 217.752c0-55.729 21.247-111.457 63.771-153.99l-.016-.015C106.398 21.21 162.164-.04 217.9-.04c55.735 0 111.471 21.282 154.006 63.786 4.564 4.565 9.068 9.53 13.51 14.866 1.365 1.644 2.632 3.295 3.928 4.944a218.388 218.388 0 0 1 17.508-19.78C449.386 21.242 505.122-.009 560.858-.009c55.728 0 111.457 21.277 153.99 63.77l.015-.015c42.534 42.503 63.786 98.27 63.786 154.005 0 55.736-21.282 111.472-63.786 154.006-6.319 6.318-12.962 12.11-19.824 17.49 1.654 1.303 3.31 2.577 4.957 3.946 5.336 4.442 10.302 8.945 14.867 13.51zm-465.41-157.429c-38.648 38.648-57.957 89.294-57.957 139.94 0 50.553 19.275 101.102 57.75 139.723.066.066.14.12.207.187l-.015.015.015.016c8.698 8.698 13.047 20.11 13.047 31.523 0 11.412-4.35 22.825-13.047 31.523-8.76 8.698-20.142 13.047-31.523 13.047-11.382 0-22.794-4.349-31.492-13.047l4.662-4.693-4.693 4.662c-8.698-8.698-13.047-20.11-13.047-31.492 0-11.382 4.349-22.794 13.047-31.492 7.348-7.4 16.638-11.615 26.224-12.757a216.914 216.914 0 0 1-8.879-13.36c-4.172 1.019-8.27 2.461-12.194 4.402-5.645 2.777-10.919 6.54-15.607 11.228-11.598 11.628-17.366 26.835-17.366 42.01 0 15.193 5.791 30.385 17.338 41.948 11.562 11.575 26.753 17.334 41.945 17.334 15.176 0 30.382-5.798 41.948-17.365 11.598-11.597 17.397-26.773 17.397-41.948 0-15.176-5.8-30.382-17.366-41.948l.016-.016c-35.738-35.746-53.623-82.623-53.623-129.5 0-46.883 17.89-93.766 53.638-129.514 35.748-35.75 82.632-53.639 129.515-53.639 46.884 0 93.767 17.89 129.515 53.639l-14.065 14.064c-31.862-31.893-73.656-47.808-115.45-47.808s-83.557 15.946-115.45 47.808c-31.893 31.862-47.808 73.657-47.808 115.45 0 41.795 15.946 83.558 47.808 115.45 15.453 15.484 23.195 35.75 23.195 56.014 0 20.264-7.742 40.56-23.195 56.013-15.484 15.453-35.749 23.195-56.044 23.195-20.234 0-40.499-7.742-55.982-23.195l4.662-4.693-4.693 4.662c-15.453-15.453-23.195-35.718-23.195-55.982 0-20.265 7.742-40.56 23.195-56.013 6.292-6.262 13.355-11.259 20.882-14.99 3.614-1.786 7.35-3.249 11.152-4.453-2.19-4.458-4.267-8.958-6.135-13.526-5.43 1.82-10.722 4.093-15.752 6.905a95.016 95.016 0 0 0-20.573 15.638c-18.352 18.353-27.543 42.411-27.543 66.47 0 24.058 9.19 48.086 27.543 66.438 18.353 18.353 42.411 27.544 66.44 27.544 24.058 0 48.116-9.191 66.469-27.544 18.352-18.352 27.513-42.41 27.513-66.438 0-24.059-9.192-48.117-27.513-66.47-28.994-28.993-43.491-66.994-43.491-104.993 0-38 14.497-76.001 43.49-104.995 28.994-28.993 67.025-43.49 105.025-43.49 37.994 0 75.987 14.492 104.978 43.475l.016-.015c18.353 18.352 42.41 27.513 66.47 27.513 24.058 0 48.117-9.192 66.438-27.513 18.352-18.353 27.544-42.411 27.544-66.47 0-24.059-9.192-48.117-27.544-66.438-18.352-18.353-42.41-27.544-66.438-27.544-24.06 0-48.117 9.191-66.47 27.544-6.292 6.292-11.505 13.232-15.607 20.604-2.827 4.997-5.101 10.268-6.921 15.683 4.578 1.87 9.088 3.953 13.557 6.149 1.201-3.79 2.658-7.512 4.437-11.099a79.3 79.3 0 0 1 15.021-20.881c15.453-15.484 35.718-23.226 55.982-23.226 20.22 0 40.502 7.733 55.982 23.227l.016-.016c15.473 15.481 23.241 35.77 23.241 55.997 0 20.265-7.741 40.56-23.194 56.013-15.453 15.453-35.75 23.195-56.014 23.195-20.265 0-40.56-7.742-56.013-23.195L518.94 259.7c11.597 11.597 26.773 17.395 41.948 17.395 15.176 0 30.382-5.798 41.949-17.364 11.597-11.598 17.396-26.773 17.396-41.98 0-15.206-5.8-30.412-17.335-41.948l9.305-9.366-9.397 9.335c-11.536-11.567-26.742-17.334-41.949-17.334-15.175 0-30.381 5.798-41.948 17.365a57.535 57.535 0 0 0-11.258 15.607c-1.937 3.916-3.377 8.004-4.396 12.168a216.71 216.71 0 0 1 13.381 8.893c1.137-9.593 5.345-18.89 12.699-26.243 8.698-8.698 20.11-13.047 31.523-13.047 11.412 0 22.824 4.35 31.523 13.047 8.698 8.699 13.046 20.11 13.046 31.523s-4.348 22.825-13.046 31.523c-8.699 8.698-20.111 13.047-31.524 13.047-11.412 0-22.824-4.349-31.522-13.047-38.648-38.648-89.295-57.956-139.94-57.956-50.647 0-101.293 19.339-139.941 57.956zM543.4 235.21c4.811 4.843 11.134 7.249 17.457 7.249 6.324 0 12.647-2.406 17.458-7.249a24.645 24.645 0 0 0 7.249-17.458c0-6.323-2.406-12.646-7.249-17.458a24.644 24.644 0 0 0-17.457-7.248c-6.324 0-12.647 2.406-17.458 7.248-4.843 4.812-7.249 11.135-7.249 17.458 0 6.323 2.406 12.646 7.249 17.458zM155.05 352.24c-3.42-1.601-6.806-3.307-10.127-5.189a150.268 150.268 0 0 1-32.017-24.305c-28.994-28.994-43.49-67.025-43.49-105.025 0-37.986 14.487-76.003 43.46-104.993h-.001l.016-.016.015-.016v.001c28.99-28.973 67.008-43.46 104.994-43.46 38 0 76.031 14.497 105.025 43.49a149.659 149.659 0 0 1 24.397 32.14c1.838 3.269 3.514 6.6 5.087 9.968a217.155 217.155 0 0 1 6.73-19.109 164.62 164.62 0 0 0-10.336-15.689c-4.534-6.045-9.685-11.967-15.453-17.735-31.862-31.893-73.656-47.809-115.45-47.809-41.787 0-83.543 15.941-115.434 47.794l.015.015c-31.893 31.893-47.81 73.656-47.81 115.45s15.947 83.588 47.81 115.45a158.779 158.779 0 0 0 17.735 15.423c5.045 3.783 10.294 7.215 15.687 10.356a217.294 217.294 0 0 1 19.146-6.741zm184.92-175.113c-2.565-7.753-5.839-15.315-9.92-22.544-5.614-9.932-12.677-19.278-21.19-27.79-25.107-25.108-58.018-37.662-90.96-37.662-32.904 0-65.808 12.549-90.944 37.647-25.097 25.105-37.646 58.008-37.646 90.943 0 32.911 12.554 65.822 37.66 90.96 8.545 8.544 17.86 15.576 27.638 21.128 7.266 4.106 14.872 7.409 22.695 9.994a217.679 217.679 0 0 1 3.847-14.365c-6.511-2.207-12.86-4.953-18.893-8.337a113.87 113.87 0 0 1-24.83-18.814c-22.239-22.24-33.342-51.387-33.342-80.535 0-29.148 11.103-58.296 33.342-80.503l14.065 14.065c-18.352 18.352-27.544 42.41-27.544 66.438 0 24.059 9.192 48.117 27.544 66.47a94.04 94.04 0 0 0 20.481 15.545c5.112 2.865 10.412 5.172 15.8 7 1.87-4.579 3.952-9.088 6.147-13.556-3.819-1.209-7.566-2.685-11.182-4.486a78.763 78.763 0 0 1-20.82-14.929c-15.453-15.515-23.195-35.78-23.195-56.013 0-20.265 7.742-40.56 23.195-56.013l14.065 14.065c-11.598 11.566-17.366 26.773-17.366 41.948 0 15.206 5.8 30.412 17.366 41.979 4.75 4.72 9.993 8.451 15.545 11.196 3.92 1.95 8.03 3.399 12.21 4.428a216.38 216.38 0 0 1 8.913-13.413c-9.593-1.137-18.89-5.345-26.243-12.698-8.698-8.76-13.047-20.141-13.047-31.523 0-11.382 4.349-22.794 13.047-31.492l4.688 4.658-4.688-4.689c8.698-8.698 20.11-13.047 31.523-13.047 11.412 0 22.825 4.35 31.523 13.047 7.353 7.353 11.561 16.65 12.698 26.243a217.071 217.071 0 0 1 13.384-8.895c-1.02-4.157-2.46-8.248-4.399-12.166a58.978 58.978 0 0 0-11.258-15.607c-11.536-11.598-26.742-17.365-41.948-17.365-15.175 0-30.382 5.798-41.948 17.365l-14.065-14.065c15.453-15.484 35.748-23.195 56.013-23.195 20.234 0 40.498 7.742 55.982 23.226 6.261 6.2 11.259 13.294 15.022 20.881 1.778 3.587 3.235 7.308 4.436 11.099 4.473-2.197 8.986-4.282 13.569-6.154-1.82-5.427-4.091-10.714-6.902-15.74a95.001 95.001 0 0 0-15.638-20.573c-18.352-18.353-42.41-27.544-66.47-27.544-24.058 0-48.085 9.191-66.438 27.544l-14.065-14.065c22.239-22.239 51.387-33.343 80.504-33.343 29.148 0 58.296 11.104 80.534 33.343a113.717 113.717 0 0 1 18.877 24.922c3.384 6.083 6.125 12.39 8.317 18.817a217.708 217.708 0 0 1 14.31-3.83zm-104.581 58.083c4.842-4.812 7.248-11.135 7.248-17.458 0-6.323-2.406-12.646-7.248-17.458a24.645 24.645 0 0 0-17.458-7.248c-6.323 0-12.646 2.406-17.458 7.248l-.03-.029c-4.79 4.838-7.219 11.147-7.219 17.487 0 6.323 2.407 12.677 7.218 17.489a24.735 24.735 0 0 0 17.489 7.218c6.323 0 12.646-2.406 17.458-7.249zm0 308.011c-4.812-4.842-11.135-7.248-17.458-7.248-6.323 0-12.646 2.406-17.458 7.248-4.842 4.812-7.249 11.135-7.249 17.458 0 6.34 2.398 12.649 7.22 17.487 4.838 4.791 11.147 7.22 17.487 7.22a24.737 24.737 0 0 0 17.489-7.218 24.735 24.735 0 0 0 7.217-17.489c0-6.323-2.406-12.646-7.248-17.458zM100.676 377.202a216.702 216.702 0 0 1 14-8.224 191.734 191.734 0 0 1-6.335-4.5 180.665 180.665 0 0 1-19.894-17.242c-35.78-35.718-53.67-82.632-53.67-129.485 0-46.877 17.885-93.753 53.624-129.5l-.016-.015c35.748-35.749 82.632-53.638 129.515-53.638 46.883 0 93.767 17.89 129.515 53.638 6.17 6.169 11.906 12.831 17.211 19.926a175.906 175.906 0 0 1 4.522 6.327 216.735 216.735 0 0 1 8.218-13.983c-2.326-3.161-4.696-6.259-7.157-9.217a208.153 208.153 0 0 0-12.368-13.478c-38.648-38.648-89.295-57.957-139.94-57.957-50.64 0-101.28 19.334-139.926 57.941l.015.016c-38.647 38.648-57.956 89.294-57.956 139.94 0 50.647 19.34 101.293 57.956 139.94 4.565 4.566 9.068 8.699 13.48 12.338 3.04 2.531 6.115 4.892 9.206 7.173zM415.86 560.678c0-50.646-19.34-101.293-57.988-139.94l14.065-14.065c4.812 4.842 11.135 7.248 17.458 7.248 6.323 0 12.646-2.406 17.458-7.218a24.621 24.621 0 0 0 7.249-17.458c0-6.323-2.407-12.646-7.218-17.458l-.03-.03 14.064-14.065c38.648 38.648 89.294 57.956 139.94 57.956 50.647 0 101.293-19.308 139.941-57.956 38.648-38.648 57.956-89.295 57.956-139.941 0-50.64-19.334-101.279-57.94-139.925l-.016.015c-38.648-38.647-89.294-57.956-139.94-57.956-50.647 0-101.293 19.34-139.94 57.956-15.022 15.022-27.113 31.8-36.243 49.567a197.752 197.752 0 0 0-16.5 45.054c5.143-.5 10.301-.766 15.463-.901a182.802 182.802 0 0 1 16.305-41.315 182.06 182.06 0 0 1 31.4-41.948c35.717-35.78 82.631-53.67 129.484-53.67 46.883 0 93.766 17.89 129.515 53.639l.03-.03c35.749 35.747 53.639 82.63 53.639 129.514 0 46.853-17.89 93.767-53.638 129.515-35.749 35.749-82.632 53.639-129.516 53.639-46.852 0-93.735-17.89-129.515-53.639l14.065-14.065c31.893 31.893 73.656 47.809 115.45 47.809 41.763 0 83.558-15.947 115.42-47.809 31.893-31.893 47.84-73.655 47.84-115.45 0-41.794-15.947-83.557-47.81-115.45l-.03.03c-31.893-31.892-73.656-47.808-115.45-47.808s-83.588 15.947-115.45 47.809c-11.413 11.35-20.759 23.966-28.038 37.383a162.502 162.502 0 0 0-13.263 32.261c5.04.34 10.069.823 15.08 1.511 3.07-9.827 7.163-19.422 12.34-28.59 6.478-11.567 14.62-22.393 24.368-32.14 28.993-28.993 67.024-43.49 105.024-43.49 37.987 0 76.004 14.488 104.993 43.46h.001l.017.017.014.013v.001c28.972 28.99 43.46 66.976 43.46 104.993 0 38-14.497 76-43.49 105.025-28.994 28.993-66.995 43.49-105.026 43.49-38 0-76-14.497-105.024-43.49l.03-.03c-18.352-18.353-42.41-27.545-66.438-27.545-24.059 0-48.117 9.192-66.439 27.544-18.352 18.352-27.544 42.41-27.544 66.439 0 24.058 9.192 48.117 27.544 66.438l-14.065 14.065-.061.062c-22.239-22.239-33.343-51.387-33.343-80.535 0-29.148 11.135-58.295 33.343-80.534 22.238-22.239 51.386-33.343 80.534-33.343 29.148 0 58.296 11.135 80.534 33.343l-.03.03c25.107 25.108 58.048 37.693 90.96 37.693 32.91 0 65.821-12.585 90.96-37.692 25.106-25.107 37.66-58.049 37.66-90.96 0-32.903-12.548-65.806-37.644-90.942-25.106-25.098-58.01-37.648-90.946-37.648-32.91 0-65.821 12.554-90.96 37.661-8.513 8.482-15.576 17.859-21.158 27.79-4.1 7.2-7.39 14.763-9.954 22.513a217.554 217.554 0 0 1 14.341 3.84c2.19-6.4 4.913-12.685 8.29-18.733 4.996-9.007 11.319-17.427 18.876-24.984 22.239-22.24 51.387-33.343 80.534-33.343 29.148 0 58.296 11.104 80.504 33.343 22.239 22.238 33.343 51.386 33.343 80.503 0 29.148-11.104 58.296-33.343 80.535-22.239 22.238-51.387 33.342-80.504 33.342-29.14 0-58.281-11.13-80.518-33.327l-.016.015c-25.107-25.107-58.05-37.66-90.96-37.66s-65.822 12.553-90.929 37.66c-25.107 25.139-37.692 58.05-37.692 90.96 0 32.911 12.554 65.822 37.662 90.93l.03-.032c22.239 22.24 33.343 51.387 33.343 80.535 0 29.148-11.104 58.295-33.343 80.503-22.238 22.24-51.386 33.343-80.534 33.343-29.148 0-58.296-11.104-80.503-33.343-22.24-22.238-33.343-51.386-33.343-80.503 0-29.148 11.104-58.296 33.343-80.535a113.688 113.688 0 0 1 24.922-18.876c6.086-3.386 12.396-6.128 18.826-8.32a217.48 217.48 0 0 1-3.84-14.339c-7.752 2.564-15.314 5.839-22.543 9.92-9.932 5.613-19.278 12.677-27.791 21.19-25.107 25.107-37.661 58.018-37.661 90.96 0 32.91 12.554 65.822 37.66 90.96l-.014.015c25.105 25.097 58.04 37.645 90.944 37.645 32.911 0 65.853-12.553 90.96-37.66 25.107-25.108 37.691-58.05 37.691-90.96 0-32.911-12.553-65.853-37.691-90.96l14.065-14.065c28.993 28.994 43.49 66.994 43.49 105.025 0 38-14.497 76-43.49 105.024-28.994 28.994-66.994 43.491-105.025 43.491-38 0-76-14.497-105.025-43.49l.016-.016c-28.984-28.992-43.475-67.016-43.475-105.01 0-38 14.496-76.03 43.49-105.024a149.659 149.659 0 0 1 32.14-24.398 148.865 148.865 0 0 1 28.62-12.32c-.687-4.998-1.17-10.017-1.508-15.045a162.72 162.72 0 0 0-32.294 13.27 162.543 162.543 0 0 0-37.383 28.006c-31.893 31.924-47.81 73.718-47.81 115.48 0 41.795 15.947 83.558 47.81 115.451l-14.065 14.065c-35.749-35.749-53.639-82.632-53.639-129.515 0-46.883 17.89-93.767 53.639-129.515 12.739-12.708 26.896-23.164 41.979-31.369a182.789 182.789 0 0 1 41.345-16.312c.135-5.162.398-10.32.899-15.463a197.719 197.719 0 0 0-45.082 16.507c-17.766 9.13-34.515 21.19-49.567 36.242-38.647 38.648-57.956 89.294-57.956 139.94 0 50.64 19.334 101.28 57.941 139.925l.015-.014c38.648 38.647 89.295 57.956 139.94 57.956 50.647 0 101.294-19.34 139.941-57.956 38.648-38.648 57.988-89.295 57.988-139.941zm227.134-141.164a216.923 216.923 0 0 1-19.151 6.74c3.334 1.565 6.632 3.235 9.87 5.063 11.566 6.477 22.392 14.62 32.14 24.367 28.993 28.994 43.49 66.994 43.49 105.025 0 37.986-14.487 75.971-43.46 104.992v.002l-.016.015-.014.015h-.001c-28.99 28.973-66.976 43.46-104.994 43.46-38 0-76-14.497-105.024-43.49-9.655-9.655-17.767-20.45-24.306-32.017-1.85-3.269-3.535-6.598-5.116-9.96a216.95 216.95 0 0 1-6.726 19.097 160.53 160.53 0 0 0 10.3 15.57 161.632 161.632 0 0 0 15.391 17.735c31.924 31.893 73.718 47.809 115.481 47.809 41.788 0 83.544-15.942 115.435-47.794l-.015-.015c31.893-31.893 47.809-73.656 47.809-115.45s-15.947-83.588-47.81-115.45c-5.767-5.768-11.69-10.92-17.735-15.453-5-3.751-10.203-7.157-15.548-10.26zm-222.076 1.223c-7.351 7.351-16.666 11.559-26.244 12.697a216.805 216.805 0 0 1 8.927 13.435c4.143-1.02 8.211-2.455 12.135-4.386 5.583-2.746 10.888-6.509 15.607-11.259 4.75-4.75 8.513-10.024 11.259-15.607 1.945-3.932 3.39-8.039 4.41-12.22a216.489 216.489 0 0 1-13.396-8.903c-1.136 9.593-5.345 18.89-12.698 26.243zm-7.51 43.94c2.193 4.464 4.273 8.969 6.142 13.542 5.408-1.82 10.697-4.098 15.742-6.928 7.31-4.071 14.25-9.284 20.573-15.607 6.323-6.323 11.535-13.263 15.607-20.542 2.828-5.063 5.105-10.357 6.926-15.774-4.57-1.867-9.071-3.945-13.53-6.136-1.204 3.796-2.672 7.52-4.47 11.114a79.939 79.939 0 0 1-14.99 20.913c-6.23 6.23-13.325 11.227-20.912 14.99-3.594 1.775-7.308 3.229-11.087 4.429zm276.04 96.032c0-32.911-12.553-65.853-37.66-90.96-8.483-8.513-17.86-15.577-27.791-21.16-7.208-4.103-14.78-7.398-22.54-9.962a217.866 217.866 0 0 1-3.857 14.334c6.418 2.192 12.726 4.922 18.809 8.306 9.007 4.997 17.396 11.32 24.984 18.876 22.239 22.24 33.343 51.387 33.343 80.535 0 29.148-11.104 58.296-33.343 80.503l-14.065-14.065c18.352-18.352 27.544-42.41 27.544-66.438 0-24.059-9.192-48.117-27.544-66.47-6.292-6.292-13.232-11.505-20.573-15.607-5.045-2.841-10.352-5.128-15.791-6.952a216.76 216.76 0 0 1-6.126 13.6c3.81 1.204 7.548 2.669 11.152 4.456a79.297 79.297 0 0 1 20.882 14.99c15.453 15.515 23.195 35.78 23.195 56.014 0 20.264-7.742 40.56-23.195 56.013l-.016-.016c-15.451 15.443-35.74 23.18-55.998 23.18-20.234 0-40.498-7.742-55.982-23.195a77.608 77.608 0 0 1-14.99-20.82c-1.799-3.625-3.272-7.373-4.48-11.186a216.71 216.71 0 0 1-13.573 6.116c1.831 5.41 4.134 10.733 7.01 15.866a94.03 94.03 0 0 0 15.546 20.48c18.353 18.353 42.41 27.544 66.47 27.544 24.058 0 48.117-9.191 66.438-27.544l14.065 14.065c-22.239 22.24-51.387 33.343-80.504 33.343-29.147 0-58.295-11.104-80.534-33.343a113.874 113.874 0 0 1-18.815-24.83c-3.395-6.053-6.149-12.41-8.36-18.944a217.853 217.853 0 0 1-14.362 3.866c2.584 7.813 5.883 15.409 9.984 22.666 5.552 9.809 12.584 19.124 21.128 27.637 25.107 25.107 58.049 37.66 90.96 37.66 32.91 0 65.821-12.553 90.96-37.66l.014.014c25.076-25.102 37.615-58.022 37.615-90.912zM503.261 574.91c1.03 4.172 2.475 8.259 4.42 12.17 2.746 5.553 6.51 10.827 11.228 15.546 11.567 11.598 26.773 17.365 41.949 17.365 15.175 0 30.381-5.798 41.948-17.365l.014.015c11.587-11.595 17.351-26.764 17.351-41.932 0-15.207-5.799-30.413-17.334-41.949-4.781-4.75-10.056-8.482-15.638-11.258-3.917-1.937-8.006-3.377-12.16-4.397-2.786 4.54-5.76 8.99-8.9 13.352 9.593 1.137 18.889 5.345 26.241 12.698 8.699 8.698 13.047 20.11 13.047 31.523 0 11.412-4.348 22.825-13.047 31.523l-14.065-14.065a24.644 24.644 0 0 0 7.249-17.458c0-6.323-2.406-12.646-7.249-17.458-4.811-4.842-11.134-7.248-17.457-7.248a24.512 24.512 0 0 0-17.226 7.037c-.08.08-.153.162-.232.242-.08.08-.165.155-.245.235a24.513 24.513 0 0 0-7.035 17.223c0 6.323 2.406 12.646 7.249 17.458 4.78 4.842 11.134 7.248 17.457 7.248 6.354 0 12.678-2.406 17.52-7.248l13.972 14.065h.032c-8.699 8.698-20.111 13.047-31.493 13.047-11.381 0-22.793-4.35-31.491-13.047-7.398-7.346-11.612-16.631-12.756-26.213a216.055 216.055 0 0 1-13.349 8.891zm78.827-140.407c-5.144.5-10.304.766-15.466.902a181.702 181.702 0 0 1-16.344 41.345 182.787 182.787 0 0 1-31.369 41.949l-.03.03a182.782 182.782 0 0 1-41.949 31.37 183.207 183.207 0 0 1-41.345 16.341c-.136 5.162-.401 10.32-.902 15.465a197.752 197.752 0 0 0 45.085-16.508c17.797-9.099 34.546-21.19 49.567-36.242 15.02-15.021 27.112-31.77 36.242-49.567 7.406-14.426 12.891-29.57 16.511-45.085zm-35.933.485c-5.03-.339-10.05-.822-15.05-1.508-3.072 9.837-7.167 19.442-12.35 28.62-6.539 11.597-14.65 22.423-24.367 32.14-9.716 9.715-20.542 17.827-32.14 24.366-9.167 5.178-18.76 9.27-28.586 12.34.684 4.992 1.167 10.004 1.505 15.024a163.508 163.508 0 0 0 32.294-13.268c13.387-7.31 26.033-16.656 37.414-28.007 11.382-11.381 20.728-24.027 28.007-37.414a162.51 162.51 0 0 0 13.273-32.293zm-34.691-5.141A217.386 217.386 0 0 1 497.097 426c-2.191 6.432-4.908 12.733-8.292 18.795-5.058 9.006-11.35 17.427-18.877 24.953a113.472 113.472 0 0 1-24.952 18.846c-6.046 3.405-12.357 6.142-18.79 8.337a217.677 217.677 0 0 1 3.839 14.345c7.75-2.572 15.31-5.854 22.538-9.913 9.84-5.552 19.216-12.615 27.791-21.19 8.575-8.575 15.638-17.951 21.19-27.79 4.081-7.207 7.356-14.778 9.92-22.537zm247.29 130.862c0-50.647-19.339-101.293-57.956-139.94-4.565-4.566-9.068-8.7-13.479-12.37-2.948-2.453-6.036-4.817-9.188-7.135a216.214 216.214 0 0 1-13.955 8.224 175.517 175.517 0 0 1 6.24 4.464c7.094 5.305 13.757 11.042 19.926 17.21 35.748 35.75 53.638 82.633 53.638 129.516 0 46.846-17.885 93.753-53.623 129.5l.016.015c-35.749 35.748-82.632 53.638-129.516 53.638-46.852 0-93.766-17.89-129.515-53.638-6.23-6.292-11.998-12.955-17.211-19.925a180.929 180.929 0 0 1-4.47-6.27 216.495 216.495 0 0 1-8.25 13.992c2.27 3.08 4.62 6.144 7.138 9.15 3.64 4.38 7.772 8.882 12.337 13.479 38.648 38.647 89.294 57.956 139.94 57.956 50.647 0 101.293-19.34 139.941-57.956l.031.03c38.648-38.648 57.957-89.294 57.957-139.94z"/></g></g></svg>