<svg xmlns="http://www.w3.org/2000/svg" width="466" height="775" viewBox="0 0 466 775"><g><g><path fill="#011613" d="M32.478 16.003c0 8.825-7.157 15.98-15.986 15.98S.506 24.828.506 16.003 7.663.023 16.492.023s15.986 7.155 15.986 15.98zm61.942 0c0 8.825-7.157 15.98-15.986 15.98s-15.986-7.155-15.986-15.98S69.605.023 78.434.023 94.42 7.179 94.42 16.004zm61.942 0c0 8.825-7.157 15.98-15.986 15.98s-15.986-7.155-15.986-15.98S131.547.023 140.376.023s15.986 7.155 15.986 15.98zm61.942 0c0 8.825-7.157 15.98-15.986 15.98s-15.986-7.155-15.986-15.98S193.489.023 202.318.023s15.986 7.155 15.986 15.98zm61.942 0c0 8.825-7.157 15.98-15.986 15.98-8.828 0-15.986-7.155-15.986-15.98S255.43.023 264.26.023s15.986 7.155 15.986 15.98zm61.942 0c0 8.825-7.157 15.98-15.986 15.98s-15.986-7.155-15.986-15.98S317.373.023 326.202.023s15.986 7.155 15.986 15.98zm61.942 0c0 8.825-7.157 15.98-15.986 15.98-8.828 0-15.986-7.155-15.986-15.98S379.316.023 388.144.023c8.83 0 15.986 7.155 15.986 15.98zm29.97 0c0-8.825 7.158-15.98 15.986-15.98 8.83 0 15.986 7.155 15.986 15.98s-7.157 15.98-15.986 15.98c-8.828 0-15.986-7.155-15.986-15.98zM32.478 77.919c0 8.825-7.157 15.98-15.986 15.98S.506 86.744.506 77.919s7.157-15.98 15.986-15.98 15.986 7.155 15.986 15.98zm61.942 0c0 8.825-7.157 15.98-15.986 15.98s-15.986-7.155-15.986-15.98 7.157-15.98 15.986-15.98S94.42 69.095 94.42 77.92zm61.942 0c0 8.825-7.157 15.98-15.986 15.98s-15.986-7.155-15.986-15.98 7.157-15.98 15.986-15.98 15.986 7.155 15.986 15.98zm61.942 0c0 8.825-7.157 15.98-15.986 15.98s-15.986-7.155-15.986-15.98 7.157-15.98 15.986-15.98 15.986 7.155 15.986 15.98zm61.942 0c0 8.825-7.157 15.98-15.986 15.98-8.828 0-15.986-7.155-15.986-15.98s7.157-15.98 15.986-15.98 15.986 7.155 15.986 15.98zm61.942 0c0 8.825-7.157 15.98-15.986 15.98s-15.986-7.155-15.986-15.98 7.157-15.98 15.986-15.98 15.986 7.155 15.986 15.98zm61.942 0c0 8.825-7.157 15.98-15.986 15.98-8.828 0-15.986-7.155-15.986-15.98s7.158-15.98 15.986-15.98c8.83 0 15.986 7.155 15.986 15.98zm61.942 0c0 8.825-7.157 15.98-15.986 15.98-8.828 0-15.986-7.155-15.986-15.98s7.158-15.98 15.986-15.98c8.83 0 15.986 7.155 15.986 15.98zM32.478 139.836c0 8.825-7.157 15.98-15.986 15.98S.506 148.66.506 139.836c0-8.826 7.157-15.98 15.986-15.98s15.986 7.154 15.986 15.98zm61.942 0c0 8.825-7.157 15.98-15.986 15.98s-15.986-7.155-15.986-15.98c0-8.826 7.157-15.98 15.986-15.98s15.986 7.154 15.986 15.98zm61.942 0c0 8.825-7.157 15.98-15.986 15.98s-15.986-7.155-15.986-15.98c0-8.826 7.157-15.98 15.986-15.98s15.986 7.154 15.986 15.98zm61.942 0c0 8.825-7.157 15.98-15.986 15.98s-15.986-7.155-15.986-15.98c0-8.826 7.157-15.98 15.986-15.98s15.986 7.154 15.986 15.98zm61.942 0c0 8.825-7.157 15.98-15.986 15.98-8.828 0-15.986-7.155-15.986-15.98 0-8.826 7.157-15.98 15.986-15.98s15.986 7.154 15.986 15.98zm61.942 0c0 8.825-7.157 15.98-15.986 15.98s-15.986-7.155-15.986-15.98c0-8.826 7.157-15.98 15.986-15.98s15.986 7.154 15.986 15.98zm61.942 0c0 8.825-7.157 15.98-15.986 15.98-8.828 0-15.986-7.155-15.986-15.98 0-8.826 7.158-15.98 15.986-15.98 8.83 0 15.986 7.154 15.986 15.98zm61.942 0c0 8.825-7.157 15.98-15.986 15.98-8.828 0-15.986-7.155-15.986-15.98 0-8.826 7.158-15.98 15.986-15.98 8.83 0 15.986 7.154 15.986 15.98zM32.478 201.752c0 8.825-7.157 15.98-15.986 15.98S.506 210.577.506 201.752s7.157-15.98 15.986-15.98 15.986 7.155 15.986 15.98zm61.942 0c0 8.825-7.157 15.98-15.986 15.98s-15.986-7.155-15.986-15.98 7.157-15.98 15.986-15.98 15.986 7.155 15.986 15.98zm61.942 0c0 8.825-7.157 15.98-15.986 15.98s-15.986-7.155-15.986-15.98 7.157-15.98 15.986-15.98 15.986 7.155 15.986 15.98zm61.942 0c0 8.825-7.157 15.98-15.986 15.98s-15.986-7.155-15.986-15.98 7.157-15.98 15.986-15.98 15.986 7.155 15.986 15.98zm61.942 0c0 8.825-7.157 15.98-15.986 15.98-8.828 0-15.986-7.155-15.986-15.98s7.157-15.98 15.986-15.98 15.986 7.155 15.986 15.98zm61.942 0c0 8.825-7.157 15.98-15.986 15.98s-15.986-7.155-15.986-15.98 7.157-15.98 15.986-15.98 15.986 7.155 15.986 15.98zm61.942 0c0 8.825-7.157 15.98-15.986 15.98-8.828 0-15.986-7.155-15.986-15.98s7.158-15.98 15.986-15.98c8.83 0 15.986 7.155 15.986 15.98zm61.942 0c0 8.825-7.157 15.98-15.986 15.98-8.828 0-15.986-7.155-15.986-15.98s7.158-15.98 15.986-15.98c8.83 0 15.986 7.155 15.986 15.98zM32.478 263.67c0 8.825-7.157 15.98-15.986 15.98S.506 272.493.506 263.668c0-8.826 7.157-15.98 15.986-15.98s15.986 7.154 15.986 15.98zm61.942 0c0 8.825-7.157 15.98-15.986 15.98s-15.986-7.155-15.986-15.98c0-8.826 7.157-15.98 15.986-15.98s15.986 7.154 15.986 15.98zm61.942 0c0 8.825-7.157 15.98-15.986 15.98s-15.986-7.155-15.986-15.98c0-8.826 7.157-15.98 15.986-15.98s15.986 7.154 15.986 15.98zm61.942 0c0 8.825-7.157 15.98-15.986 15.98s-15.986-7.155-15.986-15.98c0-8.826 7.157-15.98 15.986-15.98s15.986 7.154 15.986 15.98zm61.942 0c0 8.825-7.157 15.98-15.986 15.98-8.828 0-15.986-7.155-15.986-15.98 0-8.826 7.157-15.98 15.986-15.98s15.986 7.154 15.986 15.98zm61.942 0c0 8.825-7.157 15.98-15.986 15.98s-15.986-7.155-15.986-15.98c0-8.826 7.157-15.98 15.986-15.98s15.986 7.154 15.986 15.98zm61.942 0c0 8.825-7.157 15.98-15.986 15.98-8.828 0-15.986-7.155-15.986-15.98 0-8.826 7.158-15.98 15.986-15.98 8.83 0 15.986 7.154 15.986 15.98zm61.942 0c0 8.825-7.157 15.98-15.986 15.98-8.828 0-15.986-7.155-15.986-15.98 0-8.826 7.158-15.98 15.986-15.98 8.83 0 15.986 7.154 15.986 15.98zM32.478 325.585c0 8.825-7.157 15.98-15.986 15.98S.506 334.41.506 325.585s7.157-15.98 15.986-15.98 15.986 7.155 15.986 15.98zm61.942 0c0 8.825-7.157 15.98-15.986 15.98s-15.986-7.155-15.986-15.98 7.157-15.98 15.986-15.98 15.986 7.155 15.986 15.98zm61.942 0c0 8.825-7.157 15.98-15.986 15.98s-15.986-7.155-15.986-15.98 7.157-15.98 15.986-15.98 15.986 7.155 15.986 15.98zm61.942 0c0 8.825-7.157 15.98-15.986 15.98s-15.986-7.155-15.986-15.98 7.157-15.98 15.986-15.98 15.986 7.155 15.986 15.98zm61.942 0c0 8.825-7.157 15.98-15.986 15.98-8.828 0-15.986-7.155-15.986-15.98s7.157-15.98 15.986-15.98 15.986 7.155 15.986 15.98zm61.942 0c0 8.825-7.157 15.98-15.986 15.98s-15.986-7.155-15.986-15.98 7.157-15.98 15.986-15.98 15.986 7.155 15.986 15.98zm61.942 0c0 8.825-7.157 15.98-15.986 15.98-8.828 0-15.986-7.155-15.986-15.98s7.158-15.98 15.986-15.98c8.83 0 15.986 7.155 15.986 15.98zm61.942 0c0 8.825-7.157 15.98-15.986 15.98-8.828 0-15.986-7.155-15.986-15.98s7.158-15.98 15.986-15.98c8.83 0 15.986 7.155 15.986 15.98zM32.478 387.502c0 8.824-7.157 15.98-15.986 15.98S.506 396.325.506 387.501c0-8.825 7.157-15.98 15.986-15.98s15.986 7.155 15.986 15.98zm61.942 0c0 8.824-7.157 15.98-15.986 15.98s-15.986-7.156-15.986-15.98c0-8.825 7.157-15.98 15.986-15.98s15.986 7.155 15.986 15.98zm61.942 0c0 8.824-7.157 15.98-15.986 15.98s-15.986-7.156-15.986-15.98c0-8.825 7.157-15.98 15.986-15.98s15.986 7.155 15.986 15.98zm61.942 0c0 8.824-7.157 15.98-15.986 15.98s-15.986-7.156-15.986-15.98c0-8.825 7.157-15.98 15.986-15.98s15.986 7.155 15.986 15.98zm61.942 0c0 8.824-7.157 15.98-15.986 15.98-8.828 0-15.986-7.156-15.986-15.98 0-8.825 7.157-15.98 15.986-15.98s15.986 7.155 15.986 15.98zm61.942 0c0 8.824-7.157 15.98-15.986 15.98s-15.986-7.156-15.986-15.98c0-8.825 7.157-15.98 15.986-15.98s15.986 7.155 15.986 15.98zm61.942 0c0 8.824-7.157 15.98-15.986 15.98-8.828 0-15.986-7.156-15.986-15.98 0-8.825 7.158-15.98 15.986-15.98 8.83 0 15.986 7.155 15.986 15.98zm61.942 0c0 8.824-7.157 15.98-15.986 15.98-8.828 0-15.986-7.156-15.986-15.98 0-8.825 7.158-15.98 15.986-15.98 8.83 0 15.986 7.155 15.986 15.98zM32.478 449.418c0 8.825-7.157 15.98-15.986 15.98S.506 458.243.506 449.418s7.157-15.98 15.986-15.98 15.986 7.155 15.986 15.98zm61.942 0c0 8.825-7.157 15.98-15.986 15.98s-15.986-7.155-15.986-15.98 7.157-15.98 15.986-15.98 15.986 7.155 15.986 15.98zm61.942 0c0 8.825-7.157 15.98-15.986 15.98s-15.986-7.155-15.986-15.98 7.157-15.98 15.986-15.98 15.986 7.155 15.986 15.98zm61.942 0c0 8.825-7.157 15.98-15.986 15.98s-15.986-7.155-15.986-15.98 7.157-15.98 15.986-15.98 15.986 7.155 15.986 15.98zm61.942 0c0 8.825-7.157 15.98-15.986 15.98-8.828 0-15.986-7.155-15.986-15.98s7.157-15.98 15.986-15.98 15.986 7.155 15.986 15.98zm61.942 0c0 8.825-7.157 15.98-15.986 15.98s-15.986-7.155-15.986-15.98 7.157-15.98 15.986-15.98 15.986 7.155 15.986 15.98zm61.942 0c0 8.825-7.157 15.98-15.986 15.98-8.828 0-15.986-7.155-15.986-15.98s7.158-15.98 15.986-15.98c8.83 0 15.986 7.155 15.986 15.98zm61.942 0c0 8.825-7.157 15.98-15.986 15.98-8.828 0-15.986-7.155-15.986-15.98s7.158-15.98 15.986-15.98c8.83 0 15.986 7.155 15.986 15.98zM32.478 511.334c0 8.825-7.157 15.98-15.986 15.98S.506 520.16.506 511.335s7.157-15.979 15.986-15.979 15.986 7.154 15.986 15.98zm61.942 0c0 8.825-7.157 15.98-15.986 15.98s-15.986-7.155-15.986-15.98 7.157-15.979 15.986-15.979 15.986 7.154 15.986 15.98zm61.942 0c0 8.825-7.157 15.98-15.986 15.98s-15.986-7.155-15.986-15.98 7.157-15.979 15.986-15.979 15.986 7.154 15.986 15.98zm61.942 0c0 8.825-7.157 15.98-15.986 15.98s-15.986-7.155-15.986-15.98 7.157-15.979 15.986-15.979 15.986 7.154 15.986 15.98zm61.942 0c0 8.825-7.157 15.98-15.986 15.98-8.828 0-15.986-7.155-15.986-15.98s7.157-15.979 15.986-15.979 15.986 7.154 15.986 15.98zm61.942 0c0 8.825-7.157 15.98-15.986 15.98s-15.986-7.155-15.986-15.98 7.157-15.979 15.986-15.979 15.986 7.154 15.986 15.98zm61.942 0c0 8.825-7.157 15.98-15.986 15.98-8.828 0-15.986-7.155-15.986-15.98s7.158-15.979 15.986-15.979c8.83 0 15.986 7.154 15.986 15.98zm61.942 0c0 8.825-7.157 15.98-15.986 15.98-8.828 0-15.986-7.155-15.986-15.98s7.158-15.979 15.986-15.979c8.83 0 15.986 7.154 15.986 15.98zM32.478 573.251c0 8.825-7.157 15.98-15.986 15.98S.506 582.076.506 573.25s7.157-15.98 15.986-15.98 15.986 7.155 15.986 15.98zm61.942 0c0 8.825-7.157 15.98-15.986 15.98s-15.986-7.155-15.986-15.98 7.157-15.98 15.986-15.98 15.986 7.155 15.986 15.98zm61.942 0c0 8.825-7.157 15.98-15.986 15.98s-15.986-7.155-15.986-15.98 7.157-15.98 15.986-15.98 15.986 7.155 15.986 15.98zm61.942 0c0 8.825-7.157 15.98-15.986 15.98s-15.986-7.155-15.986-15.98 7.157-15.98 15.986-15.98 15.986 7.155 15.986 15.98zm61.942 0c0 8.825-7.157 15.98-15.986 15.98-8.828 0-15.986-7.155-15.986-15.98s7.157-15.98 15.986-15.98 15.986 7.155 15.986 15.98zm61.942 0c0 8.825-7.157 15.98-15.986 15.98s-15.986-7.155-15.986-15.98 7.157-15.98 15.986-15.98 15.986 7.155 15.986 15.98zm61.942 0c0 8.825-7.157 15.98-15.986 15.98-8.828 0-15.986-7.155-15.986-15.98s7.158-15.98 15.986-15.98c8.83 0 15.986 7.155 15.986 15.98zm61.942 0c0 8.825-7.157 15.98-15.986 15.98-8.828 0-15.986-7.155-15.986-15.98s7.158-15.98 15.986-15.98c8.83 0 15.986 7.155 15.986 15.98zM32.478 635.167c0 8.826-7.157 15.98-15.986 15.98S.506 643.993.506 635.167c0-8.825 7.157-15.979 15.986-15.979s15.986 7.154 15.986 15.98zm61.942 0c0 8.826-7.157 15.98-15.986 15.98s-15.986-7.154-15.986-15.98c0-8.825 7.157-15.979 15.986-15.979s15.986 7.154 15.986 15.98zm61.942 0c0 8.826-7.157 15.98-15.986 15.98s-15.986-7.154-15.986-15.98c0-8.825 7.157-15.979 15.986-15.979s15.986 7.154 15.986 15.98zm61.942 0c0 8.826-7.157 15.98-15.986 15.98s-15.986-7.154-15.986-15.98c0-8.825 7.157-15.979 15.986-15.979s15.986 7.154 15.986 15.98zm61.942 0c0 8.826-7.157 15.98-15.986 15.98-8.828 0-15.986-7.154-15.986-15.98 0-8.825 7.157-15.979 15.986-15.979s15.986 7.154 15.986 15.98zm61.942 0c0 8.826-7.157 15.98-15.986 15.98s-15.986-7.154-15.986-15.98c0-8.825 7.157-15.979 15.986-15.979s15.986 7.154 15.986 15.98zm61.942 0c0 8.826-7.157 15.98-15.986 15.98-8.828 0-15.986-7.154-15.986-15.98 0-8.825 7.158-15.979 15.986-15.979 8.83 0 15.986 7.154 15.986 15.98zm61.942 0c0 8.826-7.157 15.98-15.986 15.98-8.828 0-15.986-7.154-15.986-15.98 0-8.825 7.158-15.979 15.986-15.979 8.83 0 15.986 7.154 15.986 15.98zM32.478 697.084c0 8.825-7.157 15.98-15.986 15.98S.506 705.909.506 697.083s7.157-15.98 15.986-15.98 15.986 7.155 15.986 15.98zm61.942 0c0 8.825-7.157 15.98-15.986 15.98s-15.986-7.155-15.986-15.98 7.157-15.98 15.986-15.98 15.986 7.155 15.986 15.98zm61.942 0c0 8.825-7.157 15.98-15.986 15.98s-15.986-7.155-15.986-15.98 7.157-15.98 15.986-15.98 15.986 7.155 15.986 15.98zm61.942 0c0 8.825-7.157 15.98-15.986 15.98s-15.986-7.155-15.986-15.98 7.157-15.98 15.986-15.98 15.986 7.155 15.986 15.98zm61.942 0c0 8.825-7.157 15.98-15.986 15.98-8.828 0-15.986-7.155-15.986-15.98s7.157-15.98 15.986-15.98 15.986 7.155 15.986 15.98zm61.942 0c0 8.825-7.157 15.98-15.986 15.98s-15.986-7.155-15.986-15.98 7.157-15.98 15.986-15.98 15.986 7.155 15.986 15.98zm61.942 0c0 8.825-7.157 15.98-15.986 15.98-8.828 0-15.986-7.155-15.986-15.98s7.158-15.98 15.986-15.98c8.83 0 15.986 7.155 15.986 15.98zm61.942 0c0 8.825-7.157 15.98-15.986 15.98-8.828 0-15.986-7.155-15.986-15.98s7.158-15.98 15.986-15.98c8.83 0 15.986 7.155 15.986 15.98zM32.478 759c0 8.824-7.157 15.979-15.986 15.979S.506 767.825.506 759c0-8.824 7.157-15.98 15.986-15.98s15.986 7.156 15.986 15.98zm61.942 0c0 8.824-7.157 15.979-15.986 15.979S62.448 767.825 62.448 759c0-8.824 7.157-15.98 15.986-15.98S94.42 750.177 94.42 759zm61.942 0c0 8.824-7.157 15.979-15.986 15.979S124.39 767.825 124.39 759c0-8.824 7.157-15.98 15.986-15.98s15.986 7.156 15.986 15.98zm61.942 0c0 8.824-7.157 15.979-15.986 15.979s-15.986-7.155-15.986-15.98c0-8.824 7.157-15.98 15.986-15.98s15.986 7.156 15.986 15.98zm61.942 0c0 8.824-7.157 15.979-15.986 15.979-8.828 0-15.986-7.155-15.986-15.98 0-8.824 7.157-15.98 15.986-15.98s15.986 7.156 15.986 15.98zm61.942 0c0 8.824-7.157 15.979-15.986 15.979s-15.986-7.155-15.986-15.98c0-8.824 7.157-15.98 15.986-15.98s15.986 7.156 15.986 15.98zm61.942 0c0 8.824-7.157 15.979-15.986 15.979-8.828 0-15.986-7.155-15.986-15.98 0-8.824 7.158-15.98 15.986-15.98 8.83 0 15.986 7.156 15.986 15.98zm61.942 0c0 8.824-7.157 15.979-15.986 15.979-8.828 0-15.986-7.155-15.986-15.98 0-8.824 7.158-15.98 15.986-15.98 8.83 0 15.986 7.156 15.986 15.98z"/></g></g></svg>