<svg xmlns="http://www.w3.org/2000/svg" width="493" height="800" viewBox="0 0 493 800">
    <g>
        <g>
            <path d="M0 283.692v-40.009L243.684 0h40.008zM0 425.14v-40.008L385.134 0h40.007zm0-282.899v-40.008L102.235 0h40.007zm292.276 657.861l200.556-200.555v40.008L332.284 800.103zm141.45 0l59.106-59.106v40.008l-19.098 19.098zM0 566.59v-40.008L492.832 33.751v40.008zm150.827 233.513L492.832 458.1v40.007L190.835 800.103zM0 708.04V668.03L492.832 175.2v40.008zm9.378 92.063L492.832 316.65v40.008L49.386 800.103z" />
        </g>
    </g>
</svg>