<svg xmlns="http://www.w3.org/2000/svg" width="493" height="800" viewBox="0 0 493 800">
    <g>
        <g>
            <path d="M126.62 613.184L0 486.594v-39.072l146.16 146.125L309.796 430.05l.01.01.009-.01 183.184 183.142-19.541 19.537-163.653-163.615-144.104 144.07.008.008-19.541 19.537-.008-.008-.007.008-19.54-19.537zm0 138.143L0 624.737v-39.072L146.16 731.79l163.636-163.598.01.009.009-.009 183.184 183.142-19.541 19.536-163.653-163.615-144.104 144.071.008.008-19.541 19.536-.008-.008-.007.008-19.54-19.536zM255.192 800H216.11l93.685-93.664.01.01.009-.01L403.5 800h-39.082l-54.613-54.6zm-178.984 0H37.128L0 762.881v-39.073zm50.41-739.39L65.995 0h39.082l41.083 41.074L187.244 0h39.081l-60.624 60.61.008.007-19.541 19.537-.008-.008-.007.008-19.54-19.537zm346.839 19.544L393.285 0h39.082L493 60.617zm-346.839 118.6L.001 72.163V33.09l146.16 146.126L309.795 15.62l.01.01.009-.01 183.184 183.142-19.541 19.536L309.805 54.683l-144.104 144.07.008.008-19.541 19.536-.008-.007-.007.007-19.54-19.536zm0 138.143L.001 210.307v-39.072L146.16 317.36l163.635-163.599.01.01.009-.01 183.184 183.142-19.541 19.536-163.653-163.614-144.104 144.07.008.008-19.541 19.536-.008-.007-.007.007-19.54-19.536zm0 138.143L.001 348.45v-39.072l146.16 146.126 163.635-163.598.01.01.009-.01 183.184 183.142-19.541 19.536L309.805 330.97 165.701 475.04l.008.008-19.541 19.536-.008-.007-.007.007-19.54-19.536z" />
        </g>
    </g>
</svg>