<svg xmlns="http://www.w3.org/2000/svg" width="140" height="120" viewBox="0 0 140 120"><g><g><path fill="#011613" d="M139.093-.001v120H0V0zm-8.006 8h-20.402L81.29 37.375l.002.002-5.66 5.657-.003-.002-.002.002-5.66-5.657.002-.002-15.933-15.922v28.686L75.63 71.718l47.402-47.37.003.003.002-.004 8.051 8.045zm-61.12 69.378l.002-.002-15.933-15.921v28.685l21.593 21.58 47.402-47.371.003.002.002-.002 8.051 8.045V43.706l-8.053-8.048L81.29 77.375l.002.002-5.66 5.657-.003-.002-.002.002zM54.037 7.999v2.14l21.592 21.58 23.735-23.72zm-8.006 0H8.006v104H46.03zm8.005 104H64.59l-10.553-10.546zm77.051 0V83.707l-8.053-8.049L86.669 112z"/></g></g></svg>