<svg xmlns="http://www.w3.org/2000/svg" width="139" height="120" viewBox="0 0 139 120"><g><g><path fill="#011613" d="M116.041 88.76v-.003c-.261-.007-.503-.024-.78-.024.277 0 .519-.016.78-.024v-.002h.002c.007-.26.024-.503.024-.78 0 .277.017.52.024.78h.002v.002c.26.008.502.024.779.024-.277 0-.518.017-.78.024v.002h-.001c-.007.26-.024.502-.024.779 0-.277-.017-.518-.024-.779h-.002zm-22.95-.053v.002c.262.008.504.024.78.024-.276 0-.518.017-.78.024v.002h-.001c-.007.26-.024.502-.024.779 0-.277-.017-.518-.024-.779h-.002v-.002c-.261-.007-.503-.024-.78-.024.277 0 .519-.016.78-.024v-.002h.002c.007-.26.024-.503.024-.78 0 .277.017.52.024.78h.002zm-23 0v.002c.262.008.503.024.78.024-.276 0-.518.017-.78.024v.002h-.001c-.007.26-.024.502-.024.779 0-.277-.017-.518-.024-.779h-.002v-.002c-.26-.007-.503-.024-.779-.024.276 0 .518-.016.78-.024v-.002h.001c.007-.26.024-.503.024-.78 0 .277.017.52.024.78h.002zm45.95-68.95v-.001c-.261-.008-.503-.024-.78-.024.277 0 .519-.017.78-.024v-.002h.002c.007-.26.024-.503.024-.779 0 .276.017.519.024.78h.002v.001c.26.007.502.024.779.024-.277 0-.518.016-.78.024v.001h-.001c-.007.262-.024.504-.024.78 0-.276-.017-.518-.024-.78h-.002zm0 22.95v-.003l.002.001c.007-.26.024-.503.024-.78 0 .277.017.52.024.78h.002v.002c.26.007.502.024.779.024-.277 0-.518.016-.78.024v.002h-.001c-.007.26-.024.502-.024.78 0-.278-.017-.52-.024-.78h-.002v-.002c-.261-.008-.503-.024-.78-.024.277 0 .519-.017.78-.024zm0 23.049v-.002c-.261-.007-.503-.024-.78-.024.277 0 .519-.017.78-.024v-.002h.002c.007-.26.024-.503.024-.779 0 .276.017.519.024.78h.002v.001c.26.007.502.024.779.024-.277 0-.518.017-.78.024v.002h-.001c-.007.26-.024.503-.024.779 0-.276-.017-.518-.024-.78h-.002zM93.04 19.757v-.001c-.26-.008-.503-.024-.779-.024.276 0 .518-.017.78-.024v-.002c.008-.26.025-.503.025-.779 0 .276.017.519.024.78h.002v.001c.261.007.503.024.78.024-.277 0-.52.016-.78.024v.001h-.002c-.007.262-.024.504-.024.78 0-.276-.017-.518-.024-.78h-.002zm.05 22.948h.003v.002c.26.007.502.024.778.024-.276 0-.518.016-.78.024v.002c-.007.26-.024.502-.024.78 0-.278-.017-.52-.024-.78h-.003v-.002c-.26-.008-.503-.024-.779-.024.277 0 .519-.017.78-.024v-.002c.008-.26.025-.503.025-.78 0 .277.017.52.024.78zm-.05 23.05c-.26-.008-.503-.025-.779-.025.276 0 .518-.017.78-.024v-.002c.008-.26.025-.503.025-.779 0 .276.017.519.024.78h.002v.001c.261.007.503.024.78.024-.277 0-.52.017-.78.024v.002h-.002c-.007.26-.024.503-.024.779 0-.276-.017-.518-.024-.78h-.002zM70.04 19.758v-.001c-.26-.008-.503-.024-.779-.024.276 0 .518-.017.78-.024v-.002h.001c.007-.26.024-.503.024-.779 0 .276.017.519.024.78h.002v.001c.26.007.502.024.78.024-.278 0-.52.016-.78.024v.001h-.002c-.007.262-.024.504-.024.78 0-.276-.017-.518-.024-.78h-.002zm0 23v-.002c-.26-.008-.503-.024-.779-.024.276 0 .518-.017.78-.024v-.003l.001.001c.007-.26.024-.503.024-.78 0 .277.017.52.024.78h.002v.002c.26.007.503.024.78.024-.277 0-.52.016-.78.024v.002h-.002c-.007.26-.024.502-.024.78 0-.278-.017-.52-.024-.78h-.002zm.002 22.999h-.002v-.002c-.26-.007-.503-.024-.779-.024.276 0 .518-.017.78-.024v-.002h.001c.007-.26.024-.503.024-.779 0 .276.017.519.024.78h.002v.001c.26.007.502.024.78.024-.278 0-.52.017-.78.024v.002h-.002c-.007.26-.024.503-.024.779 0-.276-.017-.518-.024-.78zM139-.001v120H0V0zm-93 8H8v104h38zm85 0H54v104h13.398c.783-.124 1.652-.21 2.642-.24-.002.084-.01.157-.013.24h.022l-.007-.24h-.002v-.002c-.26-.007-.503-.024-.779-.024.276 0 .518-.017.78-.024v-.002h.001c.007-.261.024-.503.024-.78 0 .277.017.519.024.78h.002v.002c.26.007.502.024.78.024-.278 0-.52.017-.78.024v.002h-.002l-.007.24h.023c-.004-.083-.012-.156-.014-.24.99.03 1.86.116 2.642.24h17.664c.783-.124 1.652-.21 2.642-.24-.002.084-.01.157-.014.24h.023l-.007-.24h-.002v-.002c-.261-.007-.503-.024-.78-.024.277 0 .519-.017.78-.024v-.002h.002c.007-.261.024-.503.024-.78 0 .277.017.519.024.78h.001v.002c.262.007.504.024.78.024-.276 0-.518.017-.78.024v.002h-.001l-.007.24h.022c-.003-.083-.01-.156-.013-.24.99.03 1.859.116 2.641.24H113.4c.782-.124 1.652-.21 2.642-.24-.002.084-.01.157-.014.24h.023l-.007-.24h-.002v-.002c-.261-.007-.503-.024-.78-.024.277 0 .519-.017.78-.024v-.002h.002c.007-.261.024-.503.024-.779 0 .276.017.518.024.78h.001c.262.008.503.025.78.025-.277 0-.518.017-.78.024v.002h-.001c-.002.08-.004.162-.008.24h.023c-.003-.083-.01-.156-.014-.24.99.03 1.86.116 2.642.24H131z"/></g></g></svg>