<svg xmlns="http://www.w3.org/2000/svg" width="139" height="120" viewBox="0 0 139 120"><g><g><path fill="#011613" d="M56.838 19.065a5.161 5.161 0 1 1 10.323 0 5.161 5.161 0 0 1-10.323 0zm20 0a5.161 5.161 0 1 1 10.323 0 5.161 5.161 0 0 1-10.323 0zm20 0a5.161 5.161 0 1 1 10.323 0 5.161 5.161 0 0 1-10.323 0zm20 0a5.161 5.161 0 1 1 10.323 0 5.161 5.161 0 0 1-10.323 0zm-60 20a5.161 5.161 0 1 1 10.323 0 5.161 5.161 0 0 1-10.323 0zm20 0a5.161 5.161 0 1 1 10.323 0 5.161 5.161 0 0 1-10.323 0zm20 0a5.161 5.161 0 1 1 10.323 0 5.161 5.161 0 0 1-10.323 0zm20 0a5.161 5.161 0 1 1 10.323 0 5.161 5.161 0 0 1-10.323 0zm-60 20a5.162 5.162 0 1 1 10.324 0 5.162 5.162 0 0 1-10.324 0zm20 0a5.162 5.162 0 1 1 10.324 0 5.162 5.162 0 0 1-10.324 0zm20 0a5.162 5.162 0 1 1 10.324 0 5.162 5.162 0 0 1-10.324 0zm20 0a5.162 5.162 0 1 1 10.324 0 5.162 5.162 0 0 1-10.324 0zm-60 20a5.161 5.161 0 1 1 10.323 0 5.161 5.161 0 0 1-10.323 0zm20 0a5.161 5.161 0 1 1 10.323 0 5.161 5.161 0 0 1-10.323 0zm20 0a5.161 5.161 0 1 1 10.323 0 5.161 5.161 0 0 1-10.323 0zm20 0a5.161 5.161 0 1 1 10.323 0 5.161 5.161 0 0 1-10.323 0zm-60 20a5.161 5.161 0 1 1 10.323 0 5.161 5.161 0 0 1-10.323 0zm20 0a5.161 5.161 0 1 1 10.323 0 5.161 5.161 0 0 1-10.323 0zm20 0a5.161 5.161 0 1 1 10.323 0 5.161 5.161 0 0 1-10.323 0zm20 0a5.161 5.161 0 1 1 10.323 0 5.161 5.161 0 0 1-10.323 0zM139-.001v120H0V0zm-93 8H8v104h38zm85 0H54v104h77z"/></g></g></svg>