<svg xmlns="http://www.w3.org/2000/svg" width="139" height="120" viewBox="0 0 139 120"><g><g><path fill="#011613" d="M87.747 68.709H65.81l10.97-10.97 10.968-10.968zm10.964-10.97l10.969-10.968v21.938H87.747zM87.747 68.71v21.933H65.81l10.97-10.97zm10.964 10.964l10.969-10.964v21.933H87.747zM87.747 46.77H65.81l10.97-10.97 10.968-10.968zm21.933-21.938V46.77H87.747L98.711 35.8zM139-.001v120H0V0zM109.68 46.77l10.969-10.97 10.35-10.35v-.618h-21.32l10.97-10.97L126.516 8H109.68v16.834H87.747l10.964-10.97L104.578 8h-16.83v16.834H65.808l10.97-10.97L82.644 8H65.81v16.834H54v11.809l.84-.84 10.969-10.97v21.939H54V58.58l.84-.84 10.969-10.97V68.71H54v11.803l.84-.84L65.809 68.71v21.933H54v11.809l.84-.84 10.969-10.97V112h.58l10.39-10.388 10.968-10.97V112h.58l10.384-10.388 10.969-10.97V112h.58l10.389-10.388 10.35-10.351v-.618h-21.32l10.97-10.97 10.35-10.346v-.617h-21.32l10.97-10.97 10.35-10.35v-.618zM54 7.999v6.704l.84-.84L60.707 8zm-8 0H8v104h38z"/></g></g></svg>