<svg xmlns="http://www.w3.org/2000/svg" width="139" height="120" viewBox="0 0 139 120"><g><g><path fill="#011613" d="M75.082 57.9L56.384 39.192l5.306-5.303 18.697 18.708zM61.676 86.778l18.708 18.697-5.3 5.304L56.375 92.08zm.02-2.44l-5.302-5.303L75.102 60.33l5.302 5.304zM91.646 57.9L72.946 39.192l5.306-5.303 18.698 18.708zM78.237 86.777l18.709 18.697-5.301 5.303L72.938 92.08zm13.427-26.448l5.302 5.303L78.26 84.337l-5.302-5.303zm16.543-2.429L89.51 39.193l5.306-5.303 18.698 18.708zM94.801 86.776l18.708 18.697-5.3 5.304L89.5 92.08zm.02-2.438l-5.302-5.304 18.708-18.704 5.302 5.303zm29.95-26.438l-18.697-18.707 5.306-5.303 18.697 18.708zm-13.41 28.877l18.708 18.697-5.3 5.304-18.709-18.697zm13.43-26.449l5.302 5.304-18.708 18.705-5.302-5.303zM139-.002V120H0V0zm-85 8v3.967l3.966-3.966zm-8 0H8V112h38zM131 112v-11.547l-8.377-8.373 5.3-5.303L131 89.85v-8.567l-3.051 3.051-5.302-5.302L131 70.68V47.563l-8.365-8.369 5.306-5.303L131 36.953V28.38l-3.053 3.051-5.303-5.302L131 17.775V8h-5.639l4.73 4.731-18.708 18.704-5.302-5.303L124.215 8h-15.419l4.731 4.731L94.82 31.436l-5.303-5.304L107.653 8H92.235l4.73 4.731-18.707 18.705-5.302-5.303L91.09 7.999H75.67l4.73 4.732-18.707 18.705-5.302-5.303L74.528 7.999H59.106l4.732 4.733L54 22.57v20.195l9.826 9.832-5.305 5.302L54 53.375V64.87l4.538-4.537 5.302 5.303L54 75.474v20.185l9.822 9.817-5.3 5.304L54 106.26V112z"/></g></g></svg>