<svg xmlns="http://www.w3.org/2000/svg" width="139" height="120" viewBox="0 0 139 120"><g><g><path fill="#011613" d="M139-.001v120H0V0zm-8 108.513v-8.515a25.9 25.9 0 0 1-4.774 6.622 25.742 25.742 0 0 1-6.78 4.86c-.384.19-.779.352-1.17.52h9.114a31.048 31.048 0 0 0 2.226-2c.484-.484.942-.982 1.384-1.487zm-14.924-20.053a7.978 7.978 0 0 0-2.302-5.621l-.095-.097a7.95 7.95 0 0 0-5.613-2.302c-2.05 0-4.1.78-5.66 2.34a7.983 7.983 0 0 0-2.35 5.66 7.98 7.98 0 0 0 2.293 5.612l.06.06a7.948 7.948 0 0 0 5.657 2.348c2.05 0 4.1-.78 5.66-2.34a7.982 7.982 0 0 0 2.35-5.66zm-6.298 14.327a70.335 70.335 0 0 1 2.894 4.355 19.368 19.368 0 0 0 3.934-1.422c1.81-.89 3.53-2.11 5.06-3.65 1.54-1.54 2.76-3.25 3.65-5.06.631-1.274 1.1-2.606 1.43-3.962a70.37 70.37 0 0 1-4.343-2.886 14.375 14.375 0 0 1-4.117 8.509 14.396 14.396 0 0 1-8.508 4.116zM131 88.089v-5.642a59.703 59.703 0 0 1-9.334-7.608c-3.75-3.76-8.68-5.63-13.6-5.63s-9.85 1.88-13.6 5.63c-3.76 3.75-5.63 8.68-5.63 13.6 0 4.93 1.88 9.86 5.63 13.62v-.01a59.36 59.36 0 0 1 8 9.95h5.587a64.005 64.005 0 0 0-10.207-13.33l-.005-.005.004.004-.009-.009-.046-.047.002-.002a14.422 14.422 0 0 1-4.176-10.16c0-3.7 1.41-7.4 4.23-10.22 2.82-2.82 6.53-4.231 10.22-4.231a14.408 14.408 0 0 1 10.22 4.23l.028.028.01.01A64.151 64.151 0 0 0 131 88.09zm0-13.596v-6.28c-.468-.43-.94-.851-1.394-1.304l.01-.01a30.378 30.378 0 0 0-21.54-8.93c-7.8 0-15.6 2.98-21.54 8.93a30.38 30.38 0 0 0-8.93 21.54c0 7.8 2.98 15.6 8.93 21.54l-.001.001a46.224 46.224 0 0 1 1.878 2.02h6.164a53.774 53.774 0 0 0-4.755-5.486l.001-.002a25.59 25.59 0 0 1-7.437-18.062c0-6.57 2.51-13.13 7.52-18.151 5.01-5.03 11.59-7.54 18.16-7.54a25.619 25.619 0 0 1 18.147 7.508A53.451 53.451 0 0 0 131 74.493zm0-14.97v-5.875a41.62 41.62 0 0 0-22.944-6.879c-10.67 0-21.34 4.07-29.48 12.21a41.608 41.608 0 0 0-12.22 29.49c0 8.234 2.44 16.46 7.291 23.53h5.989c-5.657-6.813-8.49-15.179-8.49-23.55 0-9.45 3.61-18.9 10.81-26.11 7.21-7.21 16.66-10.81 26.11-10.81 8.12 0 16.235 2.675 22.934 7.994zm0-13.39V40.74a52.933 52.933 0 0 0-22.934-5.222c-13.55 0-27.09 5.17-37.43 15.5s-15.5 23.88-15.5 37.43c0 8.08 1.845 16.154 5.52 23.55h5.414a48.062 48.062 0 0 1-6.154-23.54c0-12.32 4.7-24.64 14.1-34.04 9.4-9.4 21.73-14.1 34.05-14.1A48.073 48.073 0 0 1 131 46.132zm0-12.455V28.53a64.22 64.22 0 0 0-22.934-4.241c-16.42 0-32.84 6.27-45.37 18.79A63.948 63.948 0 0 0 54 53.92v9.973a59.144 59.144 0 0 1 12.076-17.433c11.59-11.589 26.79-17.39 41.99-17.39 7.81 0 15.615 1.545 22.934 4.61zm-14.098-25.68a52.7 52.7 0 0 0-4.076 10.02c1.634.11 3.265.268 4.889.49a47.86 47.86 0 0 1 4.001-9.269c.235-.42.498-.827.75-1.24zm13.301 0a39.644 39.644 0 0 0-2.887 4.392 40.354 40.354 0 0 0-3.227 7.298c1.561.362 3.112.776 4.65 1.245a37.516 37.516 0 0 1 2.26-5.264v-7.67zm-29.016 10.178a71.288 71.288 0 0 1 5.013-.292 59.119 59.119 0 0 1 3.537-9.885h-5.251a64.071 64.071 0 0 0-3.3 10.177zM85.937 7.999h-6.184a36.803 36.803 0 0 1 4.953 6.83 37.27 37.27 0 0 1 2.697 6.102 70.42 70.42 0 0 1 4.64-1.243 41.129 41.129 0 0 0-3.217-7.31 40.178 40.178 0 0 0-2.89-4.38zm-15.841 0H58.894a25.592 25.592 0 0 1 11.732 6.71 25.35 25.35 0 0 1 4.87 6.77 25.221 25.221 0 0 1 1.439 3.598 70.283 70.283 0 0 1 4.399-1.995 29.894 29.894 0 0 0-2.238-5.102 30.64 30.64 0 0 0-9-9.98zM54 13.702v4.793a14.383 14.383 0 0 1 8.696 4.144 14.378 14.378 0 0 1 4.117 8.51 69.884 69.884 0 0 1 4.34-2.885 19.18 19.18 0 0 0-1.427-3.945c-.9-1.81-2.11-3.53-3.65-5.06-3.354-3.372-7.666-5.21-12.076-5.557zM58.136 27.2A7.986 7.986 0 0 0 54 24.996v15.728a7.922 7.922 0 0 0 4.136-2.205 7.948 7.948 0 0 0 2.35-5.66c0-2.05-.78-4.1-2.35-5.66zm36.29-17.971a48.477 48.477 0 0 1 1.65 3.232A71.11 71.11 0 0 1 97.6 7.999h-3.922c.25.41.512.813.747 1.23zM46 7.999H8v104h38z"/></g></g></svg>