<svg xmlns="http://www.w3.org/2000/svg" width="139" height="120" viewBox="0 0 139 120"><g><g><path fill="#011613" d="M139-.001v120H0V0zm-35.4 8v54.76l10.285-5.961v-48.8zm-29.61 0L95.6 20.526V7.999zM54 17.524l41.6 24.114V29.763L58.054 7.999H54zm0 21.113l41.6 24.114V50.876L54 26.762zM46 8H8v104h38zm12.882 104V50.704L54 47.874V112zm18.284 0V61.303l-10.284-5.961v56.657zm18.285 0V71.902L85.166 65.94v46.058zM131 98.34L107.436 112H131zm0-21.113l-27.55 15.97v11.874L131 89.103zm0-21.113l-27.55 15.97v11.875L131 67.988zM131 8h-9.115V52.16L131 46.877z"/></g></g></svg>