<?xml version="1.0" encoding="UTF-8"?>
<!DOCTYPE svg PUBLIC "-//W3C//DTD SVG 1.1//EN" "http://www.w3.org/Graphics/SVG/1.1/DTD/svg11.dtd">
<!-- Creator: CorelDRAW 2020 (64-Bit) -->
<svg xmlns="http://www.w3.org/2000/svg" xml:space="preserve" width="2480px" height="3508px" version="1.1" style="shape-rendering:geometricPrecision; text-rendering:geometricPrecision; image-rendering:optimizeQuality; fill-rule:evenodd; clip-rule:evenodd"
viewBox="0 0 2480 1507.43"
 xmlns:xlink="http://www.w3.org/1999/xlink"
 xmlns:xodm="http://www.corel.com/coreldraw/odm/2003">
 <defs>
  <style type="text/css">
   <![CDATA[
    .fil4 {fill:#FEFEFE}
    .fil5 {fill:#FEFEFE;fill-rule:nonzero}
    .fil1 {fill:#EF7F1A;fill-rule:nonzero}
    .fil3 {fill:#E31E24;fill-rule:nonzero}
    .fil2 {fill:#009846;fill-rule:nonzero}
    .fil0 {fill:#008DD2;fill-rule:nonzero}
   ]]>
  </style>
 </defs>
 <g id="Слой_x0020_1">
  <metadata id="CorelCorpID_0Corel-Layer"/>
  <g id="_2010552847824">
   <path class="fil0" d="M625.67 1570.85l253.62 0c7.58,0 14.47,3.1 19.46,8.09 4.99,4.99 8.09,11.88 8.09,19.46l0 71.95 -12.32 0 0 -71.95c0,-4.18 -1.72,-7.99 -4.48,-10.75 -2.76,-2.76 -6.57,-4.48 -10.75,-4.48l-253.62 0c-4.19,0 -7.99,1.72 -10.76,4.48 -2.76,2.76 -4.47,6.57 -4.47,10.75l0 152.78c0,4.18 1.71,7.99 4.47,10.75 2.77,2.77 6.57,4.48 10.76,4.48l171.88 0 0 12.32 -171.88 0c-7.59,0 -14.47,-3.1 -19.46,-8.09 -4.99,-4.99 -8.09,-11.87 -8.09,-19.46l0 -152.78c0,-7.58 3.1,-14.47 8.09,-19.46 4.99,-4.99 11.87,-8.09 19.46,-8.09z"/>
   <path class="fil1" d="M678.67 1622.92l275.85 0c8.31,0 15.86,3.4 21.34,8.86 5.46,5.47 8.86,13.02 8.86,21.34l0 17.23 -12.32 0 0 -17.23c0,-4.91 -2.01,-9.38 -5.26,-12.63 -3.24,-3.24 -7.71,-5.25 -12.62,-5.25l-275.85 0c-4.91,0 -9.38,2.01 -12.62,5.25 -3.24,3.25 -5.26,7.72 -5.26,12.63l0 171.71c0,4.91 2.02,9.38 5.26,12.62 3.24,3.24 7.71,5.26 12.62,5.26l275.85 0c4.91,0 9.38,-2.02 12.62,-5.26 1.68,-1.67 3.02,-3.67 3.94,-5.89l12.88 0c-1.29,5.62 -4.16,10.65 -8.1,14.6 -5.48,5.47 -13.03,8.87 -21.34,8.87l-275.85 0c-8.31,0 -15.86,-3.4 -21.33,-8.87 -5.47,-5.47 -8.86,-13.02 -8.86,-21.33l0 -171.71c0,-8.32 3.39,-15.87 8.86,-21.34 5.47,-5.46 13.02,-8.86 21.33,-8.86z"/>
   <path class="fil2" d="M528.21 1744.33l224.71 0c6.98,0 13.33,2.86 17.92,7.45 4.6,4.6 7.45,10.94 7.45,17.93l0 137.27c0,6.98 -2.85,13.33 -7.45,17.93 -4.59,4.59 -10.94,7.44 -17.92,7.44l-224.71 0c-6.98,0 -13.33,-2.85 -17.93,-7.44 -4.59,-4.6 -7.44,-10.95 -7.44,-17.93l0 -137.27c0,-6.99 2.85,-13.33 7.44,-17.93 4.6,-4.59 10.95,-7.45 17.93,-7.45zm224.71 12.32l-224.71 0c-3.58,0 -6.84,1.47 -9.21,3.84 -2.38,2.37 -3.84,5.64 -3.84,9.22l0 137.27c0,3.58 1.46,6.85 3.84,9.22 2.37,2.37 5.63,3.83 9.21,3.83l224.71 0c3.58,0 6.85,-1.46 9.22,-3.83 2.36,-2.37 3.83,-5.64 3.83,-9.22l0 -137.27c0,-3.58 -1.47,-6.85 -3.83,-9.22 -2.37,-2.37 -5.64,-3.84 -9.22,-3.84z"/>
   <path class="fil3" d="M566.01 1691.54l159.63 0c5.54,0 10.57,2.26 14.22,5.91 3.64,3.64 5.91,8.68 5.91,14.22l0 99.78c0,5.54 -2.27,10.58 -5.91,14.22 -3.65,3.65 -8.68,5.91 -14.22,5.91l-159.63 0c-5.54,0 -10.57,-2.26 -14.22,-5.91 -3.64,-3.64 -5.9,-8.68 -5.9,-14.22l0 -99.78c0,-5.54 2.26,-10.58 5.9,-14.22 3.65,-3.65 8.68,-5.91 14.22,-5.91zm159.63 12.32l-159.63 0c-2.14,0 -4.09,0.88 -5.51,2.3 -1.42,1.42 -2.3,3.36 -2.3,5.51l0 99.78c0,2.14 0.88,4.09 2.3,5.51 1.42,1.42 3.37,2.3 5.51,2.3l159.63 0c2.14,0 4.09,-0.88 5.51,-2.3 1.41,-1.42 2.3,-3.37 2.3,-5.51l0 -99.78c0,-2.15 -0.89,-4.09 -2.3,-5.51 -1.42,-1.42 -3.37,-2.3 -5.51,-2.3z"/>
   <path class="fil4" d="M1640.01 1772.29l-9.3 -40.12 -9.3 40.12 18.6 0zm-15.06 -77.69l15.53 0 31.66 112.86 -21.97 0 -4.08 -17.62 -26.74 0 -4.09 17.62 -21.93 0c10.54,-37.62 21.08,-75.24 31.62,-112.86zm-251.31 93.99l0.01 0 0.09 0.05c0.88,0.42 1.83,0.71 2.79,0.9 1.09,0.21 2.2,0.29 3.3,0.29 1.1,0 2.21,-0.08 3.29,-0.29 0.95,-0.18 1.88,-0.47 2.76,-0.88l0.01 -0.01 0.03 -0.01c0.83,-0.38 1.61,-0.87 2.3,-1.47 0.65,-0.57 1.21,-1.24 1.65,-2l0.02 -0.04 0 0c0.44,-0.77 0.76,-1.6 0.96,-2.45 0.24,-0.97 0.33,-1.96 0.33,-2.95l0 -57.56c0,-0.97 -0.09,-1.95 -0.33,-2.89 -0.21,-0.86 -0.54,-1.7 -0.98,-2.47 -0.44,-0.76 -1,-1.43 -1.65,-2 -0.69,-0.6 -1.47,-1.09 -2.3,-1.47l-0.27 -0.13 -0.02 0c-0.81,-0.34 -1.66,-0.59 -2.52,-0.76 -1.08,-0.22 -2.18,-0.3 -3.28,-0.3 -1.1,0 -2.21,0.08 -3.3,0.3 -0.96,0.19 -1.9,0.48 -2.79,0.9 -1.63,0.76 -2.98,1.89 -3.88,3.46 -0.44,0.77 -0.77,1.61 -0.99,2.47 -0.23,0.94 -0.33,1.92 -0.33,2.89l0 57.56c0,0.99 0.1,1.98 0.33,2.95 0.21,0.85 0.52,1.68 0.97,2.45l0 0 0.02 0.04c0.89,1.54 2.19,2.66 3.78,3.42zm36.1 7.77l0 0.01 -0.08 0.11c-1.34,1.98 -2.99,3.72 -4.88,5.19 -2.04,1.58 -4.31,2.83 -6.69,3.82 -2.69,1.1 -5.52,1.86 -8.38,2.36 -3.26,0.56 -6.57,0.79 -9.88,0.79 -3.31,0 -6.64,-0.23 -9.9,-0.79 -2.87,-0.5 -5.69,-1.26 -8.38,-2.36 -2.38,-0.99 -4.65,-2.24 -6.68,-3.82 -1.88,-1.47 -3.52,-3.21 -4.87,-5.19l-0.18 -0.28c-1.26,-1.92 -2.19,-4.02 -2.81,-6.23 -0.7,-2.51 -1,-5.13 -1,-7.74l0 -62.4c0,-5.11 1.13,-10 3.99,-14.28l0.15 -0.22c1.31,-1.9 2.91,-3.57 4.72,-4.99 2.03,-1.59 4.3,-2.84 6.68,-3.82l0.25 -0.11c2.61,-1.03 5.34,-1.74 8.11,-2.21 3.27,-0.55 6.6,-0.78 9.92,-0.78 3.31,0 6.63,0.23 9.9,0.78 2.76,0.47 5.49,1.18 8.1,2.21l0.26 0.11c2.38,0.98 4.65,2.24 6.68,3.82 1.88,1.46 3.51,3.18 4.84,5.13l0 0.01 0.05 0.07c1.33,2.01 2.32,4.21 2.96,6.54 0.7,2.52 1,5.13 1,7.74l0 62.4c0,2.61 -0.3,5.22 -1,7.74 -0.63,2.27 -1.59,4.43 -2.88,6.39zm-590.74 -101.76l62.85 0 0 112.86 -22.16 0 0 -94.91 -18.54 0 0 94.91 -22.15 0 0 -112.86zm1098.55 0l0 47.81 12.6 0 11.45 -47.81 22.78 0 -15.76 54.82 21.33 58.04 -23.43 0 -16.73 -47.04 -12.24 0 0 47.04 -22.16 0c0,-37.62 0,-75.24 0,-112.86l22.16 0zm-84.46 110.55c-2.16,-1.06 -4.18,-2.38 -5.97,-3.99 -1.81,-1.64 -3.34,-3.54 -4.58,-5.65 -1.29,-2.19 -2.21,-4.58 -2.81,-7.05 -0.67,-2.75 -0.94,-5.58 -0.94,-8.41l0 -58.04c0,-2.83 0.27,-5.66 0.94,-8.41 0.6,-2.47 1.52,-4.86 2.81,-7.05 1.23,-2.1 2.76,-3.99 4.57,-5.62 1.8,-1.62 3.84,-2.95 6.01,-4.01l0.24 -0.11c2.49,-1.18 5.13,-2 7.83,-2.54 3.05,-0.6 6.18,-0.85 9.29,-0.85 3.11,0 6.23,0.25 9.29,0.85 2.57,0.51 5.1,1.28 7.48,2.36l0.38 0.18c2.28,1.07 4.4,2.44 6.27,4.13 1.73,1.57 3.21,3.37 4.41,5.37l0.17 0.29c1.28,2.22 2.19,4.61 2.79,7.09 0.66,2.75 0.93,5.58 0.93,8.4l0 8.86 -22.47 0 0 -8.86c0,-0.92 -0.07,-1.84 -0.24,-2.74 -0.16,-0.82 -0.42,-1.62 -0.79,-2.37l-0.02 -0.05 -0.01 0c-0.32,-0.69 -0.75,-1.33 -1.27,-1.88 -0.55,-0.58 -1.18,-1.06 -1.87,-1.43 -0.74,-0.4 -1.52,-0.68 -2.33,-0.87 -0.89,-0.2 -1.81,-0.28 -2.72,-0.28 -0.88,0 -1.76,0.07 -2.62,0.27 -0.78,0.17 -1.54,0.45 -2.24,0.83l-0.01 0.01 -0.02 0.01c-0.69,0.37 -1.31,0.83 -1.85,1.4 -0.54,0.56 -0.99,1.21 -1.33,1.91l0 0.01c-0.38,0.75 -0.65,1.54 -0.82,2.36 -0.19,0.9 -0.27,1.82 -0.27,2.74l0 58.04c0,0.92 0.08,1.84 0.27,2.74 0.17,0.79 0.43,1.56 0.79,2.28l0 0.01 0.03 0.05c0.35,0.69 0.79,1.33 1.34,1.89 0.54,0.56 1.16,1.03 1.85,1.4 0.71,0.39 1.48,0.66 2.27,0.84 0.85,0.19 1.73,0.28 2.61,0.28 0.93,0 1.86,-0.08 2.77,-0.28 0.79,-0.18 1.56,-0.45 2.28,-0.83l0.03 -0.01c0.67,-0.38 1.3,-0.84 1.84,-1.4 0.53,-0.55 0.97,-1.19 1.3,-1.88l0 -0.01c0.38,-0.75 0.63,-1.55 0.79,-2.37 0.17,-0.92 0.24,-1.86 0.24,-2.79l0 -8.86 22.47 0 0 8.86c0,2.83 -0.27,5.66 -0.93,8.41 -0.6,2.48 -1.51,4.87 -2.79,7.08l-0.13 0.23c-1.21,2.03 -2.7,3.87 -4.45,5.46 -1.87,1.69 -3.99,3.06 -6.27,4.13 -2.51,1.17 -5.16,1.98 -7.87,2.51 -3.06,0.6 -6.17,0.85 -9.28,0.85 -3.11,0 -6.24,-0.25 -9.29,-0.85 -2.7,-0.53 -5.34,-1.35 -7.83,-2.51l-0.27 -0.13zm-51.95 -110.55l20.77 0 0 112.86 -19.69 0 0 -71.64 -18.43 51.6 -10.99 0 -17.96 -48.85 0 68.89 -20.16 0 0 -112.86 21.33 0 22.28 62.17 22.85 -62.17zm-246.53 0l0 47.81 12.6 0 11.46 -47.81 22.77 0 -15.75 54.82 21.32 58.04 -23.43 0 -16.72 -47.04 -12.25 0 0 47.04 -22.16 0 0 -112.86 22.16 0zm-48.3 -31.89c-0.02,3.27 -0.45,6.58 -1.56,9.67 -1.01,2.8 -2.54,5.3 -4.67,7.39 -2.15,2.11 -4.69,3.63 -7.52,4.63 -3.22,1.13 -6.66,1.55 -10.05,1.55l-0.75 0c-3.4,0 -6.84,-0.42 -10.06,-1.55 -2.83,-1 -5.37,-2.52 -7.52,-4.63 -2.12,-2.09 -3.66,-4.59 -4.67,-7.39 -1.11,-3.09 -1.54,-6.4 -1.56,-9.67l17.31 0.15c0.01,1.3 0.12,2.6 0.42,3.87 0.25,1.08 0.64,2.15 1.23,3.1l0.01 0.01 0.03 0.06c0.53,0.83 1.2,1.54 2.06,2.02 0.85,0.48 1.78,0.68 2.75,0.68l0.75 0c0.96,0 1.9,-0.2 2.74,-0.68 0.86,-0.48 1.53,-1.19 2.06,-2.02l0.04 -0.06 0 -0.01c0.6,-0.95 0.98,-2.02 1.24,-3.1 0.29,-1.27 0.4,-2.57 0.42,-3.87l17.3 -0.15zm-10.89 144.68l0 -71.08 -28.87 71.08 -17.86 0 0 -112.79 20.15 0 0 71.41 29.06 -71.41 17.68 0 0 112.79 -20.16 0zm-282.59 -112.79l66.17 0 0 18 -22.02 0 0 94.86 -22.16 0 0 -94.86 -21.99 0 0 -18zm-54.98 110.55c-2.16,-1.06 -4.18,-2.38 -5.97,-3.99 -1.81,-1.64 -3.35,-3.54 -4.59,-5.65 -1.28,-2.19 -2.2,-4.58 -2.8,-7.05 -0.67,-2.75 -0.95,-5.58 -0.95,-8.41l0 -58.04c0,-2.83 0.28,-5.66 0.95,-8.41 0.6,-2.47 1.52,-4.86 2.8,-7.05 1.24,-2.1 2.77,-3.99 4.58,-5.62 1.8,-1.62 3.83,-2.95 6.01,-4.01l0.24 -0.11c2.49,-1.18 5.13,-2 7.83,-2.54 3.05,-0.6 6.18,-0.85 9.29,-0.85 3.11,0 6.23,0.25 9.29,0.85 2.57,0.51 5.09,1.28 7.48,2.36l0.37 0.18c2.28,1.07 4.41,2.44 6.28,4.13 1.73,1.57 3.21,3.37 4.41,5.37l0.17 0.29c1.28,2.22 2.19,4.61 2.78,7.09 0.66,2.75 0.94,5.58 0.94,8.4l0 8.86 -22.47 0 0 -8.86c0,-0.92 -0.07,-1.84 -0.25,-2.74 -0.16,-0.82 -0.41,-1.62 -0.78,-2.37l-0.02 -0.05 -0.01 0c-0.33,-0.69 -0.75,-1.33 -1.28,-1.88 -0.54,-0.58 -1.17,-1.06 -1.87,-1.43 -0.73,-0.4 -1.51,-0.68 -2.32,-0.87 -0.89,-0.2 -1.81,-0.28 -2.72,-0.28 -0.88,0 -1.76,0.07 -2.62,0.27 -0.78,0.17 -1.54,0.45 -2.24,0.83l-0.01 0.01 -0.02 0.01c-0.69,0.37 -1.32,0.83 -1.86,1.4 -0.54,0.56 -0.98,1.21 -1.32,1.91l0 0.01c-0.38,0.75 -0.65,1.54 -0.83,2.36 -0.19,0.9 -0.26,1.82 -0.26,2.74l0 58.04c0,0.92 0.07,1.84 0.26,2.74 0.17,0.79 0.43,1.56 0.8,2.28l0 0.01 0.03 0.05c0.34,0.69 0.79,1.33 1.33,1.89 0.55,0.56 1.17,1.03 1.86,1.4 0.71,0.39 1.48,0.66 2.27,0.84 0.85,0.19 1.73,0.28 2.61,0.28 0.92,0 1.86,-0.08 2.77,-0.28 0.79,-0.18 1.56,-0.45 2.28,-0.83l0.02 -0.01c0.68,-0.38 1.31,-0.84 1.84,-1.4 0.54,-0.55 0.98,-1.19 1.31,-1.88l0 -0.01c0.37,-0.75 0.62,-1.55 0.78,-2.37 0.18,-0.92 0.25,-1.86 0.25,-2.79l0 -8.86 22.47 0 0 8.86c0,5.41 -0.99,10.76 -3.72,15.49l-0.13 0.23c-1.21,2.03 -2.7,3.87 -4.45,5.46 -1.87,1.69 -4,3.06 -6.28,4.13 -2.5,1.17 -5.16,1.98 -7.87,2.51 -3.05,0.6 -6.17,0.85 -9.27,0.85 -3.12,0 -6.24,-0.25 -9.29,-0.85 -2.7,-0.53 -5.34,-1.35 -7.83,-2.51l-0.27 -0.13zm-85.25 -110.55l58.63 0 0 18.32 -36.47 0 0 29.33 31.9 0 0 18.25 -31.9 0 0 28.64 36.47 0 0 18.32 -58.63 0 0 -112.86zm-50.4 18l-10.37 0 0 32.85 11.76 0c0.88,0 1.76,-0.08 2.61,-0.27 0.79,-0.18 1.55,-0.45 2.25,-0.84l0.01 0 0.02 -0.01c0.68,-0.37 1.31,-0.83 1.85,-1.39 0.55,-0.58 1.01,-1.23 1.36,-1.94l0 0c0.4,-0.74 0.68,-1.52 0.87,-2.33 0.2,-0.91 0.28,-1.84 0.28,-2.76l0 -13.34c0,-0.96 -0.08,-1.92 -0.27,-2.86 -0.17,-0.86 -0.44,-1.71 -0.81,-2.5l-0.01 -0.02 -0.01 -0.02c-0.36,-0.7 -0.8,-1.36 -1.33,-1.95 -0.53,-0.58 -1.15,-1.06 -1.84,-1.44 -0.71,-0.4 -1.48,-0.68 -2.28,-0.87 -0.87,-0.2 -1.78,-0.3 -2.68,-0.31l-1.41 -0.02 0 0.02zm-32.53 -18l34.54 0c3.07,0 6.14,0.21 9.17,0.74 2.63,0.46 5.22,1.17 7.67,2.22l0.5 0.21c2.02,0.89 3.94,2.01 5.66,3.4 1.67,1.36 3.13,2.95 4.32,4.75l0.13 0.21c1.23,1.93 2.13,4.03 2.71,6.24 0.64,2.4 0.91,4.89 0.91,7.38l0 19.11c0,2.44 -0.27,4.88 -0.93,7.22 -0.59,2.16 -1.5,4.21 -2.75,6.07l-0.16 0.25c-1.2,1.75 -2.66,3.3 -4.33,4.62 -1.87,1.47 -3.95,2.64 -6.14,3.55 -2.47,1.02 -5.07,1.72 -7.7,2.18 -2.99,0.52 -6.02,0.73 -9.06,0.73l-12.38 0 0 43.98 -22.16 0 0 -112.86zm-70.94 0l58.63 0 0 18.32 -36.47 0 0 29.33 31.9 0 0 18.25 -31.9 0 0 28.64 36.47 0 0 18.32 -58.63 0 0 -112.86zm403.39 18l-10.36 0 0 32.85 11.76 0c0.87,0 1.76,-0.08 2.61,-0.27 0.79,-0.18 1.55,-0.45 2.25,-0.84l0.01 0 0.01 -0.01c0.69,-0.37 1.32,-0.83 1.86,-1.39 0.55,-0.58 1.01,-1.23 1.36,-1.94l0 0c0.4,-0.74 0.68,-1.52 0.87,-2.33 0.2,-0.91 0.28,-1.84 0.28,-2.76l0 -13.34c0,-0.96 -0.08,-1.92 -0.27,-2.86 -0.17,-0.86 -0.44,-1.71 -0.81,-2.5l-0.01 -0.02 -0.01 -0.02c-0.36,-0.7 -0.8,-1.36 -1.33,-1.95 -0.53,-0.58 -1.15,-1.06 -1.84,-1.44 -0.71,-0.4 -1.48,-0.68 -2.28,-0.87 -0.87,-0.2 -1.78,-0.3 -2.68,-0.31l-1.42 -0.02 0 0.02zm-32.52 -18l34.54 0c3.07,0 6.14,0.21 9.17,0.74 2.63,0.46 5.22,1.17 7.67,2.22l0.5 0.21c2.02,0.89 3.94,2.01 5.66,3.4 1.67,1.36 3.13,2.95 4.31,4.75l0.14 0.21c1.23,1.93 2.13,4.03 2.71,6.24 0.64,2.4 0.91,4.89 0.91,7.38l0 19.11c0,2.44 -0.27,4.88 -0.93,7.22 -0.59,2.16 -1.5,4.21 -2.75,6.07l-0.16 0.25c-1.2,1.75 -2.66,3.3 -4.33,4.62 -1.86,1.47 -3.95,2.64 -6.15,3.55 -2.47,1.02 -5.06,1.72 -7.69,2.18 -2.99,0.52 -6.03,0.73 -9.06,0.73l-12.38 0 0 43.98 -22.16 0 0 -112.86z"/>
   <polygon class="fil5" points="857.18,1888.07 857.18,1925.52 846.56,1925.52 846.56,1897.15 833.77,1897.15 833.77,1925.52 823.15,1925.52 823.15,1888.07 "/>
   <path id="1" class="fil5" d="M866.68 1936.7l0 -48.63 10.62 0 0 5.38c2.99,-4.06 6.88,-6.08 11.67,-6.08 4.66,0 8.67,1.75 12.02,5.24 3.35,3.49 5.03,8.24 5.03,14.25 0,5.97 -1.66,10.68 -4.99,14.15 -3.33,3.47 -7.35,5.21 -12.06,5.21 -4.66,0 -8.55,-1.87 -11.67,-5.59l0 16.07 -10.62 0zm13.1 -22.4c1.75,1.94 3.91,2.9 6.47,2.9 2.56,0 4.73,-0.96 6.5,-2.9 1.77,-1.93 2.65,-4.46 2.65,-7.58 0,-3.03 -0.88,-5.51 -2.65,-7.44 -1.77,-1.93 -3.94,-2.9 -6.5,-2.9 -2.56,0 -4.72,0.97 -6.47,2.9 -1.74,1.93 -2.62,4.46 -2.62,7.58 0,3.03 0.88,5.51 2.62,7.44z"/>
   <path id="2" class="fil5" d="M946.72 1920.7c-3.89,3.77 -8.72,5.66 -14.5,5.66 -5.77,0 -10.58,-1.88 -14.43,-5.63 -3.84,-3.75 -5.76,-8.37 -5.76,-13.87 0,-5.45 1.95,-10.06 5.83,-13.83 3.89,-3.78 8.73,-5.66 14.5,-5.66 5.78,0 10.59,1.87 14.43,5.62 3.84,3.75 5.77,8.38 5.77,13.87 0,5.45 -1.95,10.06 -5.84,13.84zm-14.36 -3.5c2.94,0 5.29,-0.99 7.06,-2.97 1.77,-1.98 2.66,-4.43 2.66,-7.37 0,-2.84 -0.92,-5.27 -2.76,-7.3 -1.84,-2.03 -4.21,-3.04 -7.1,-3.04 -2.93,0 -5.28,0.99 -7.05,2.97 -1.77,1.98 -2.66,4.44 -2.66,7.37 0,2.84 0.92,5.28 2.76,7.3 1.84,2.03 4.21,3.04 7.09,3.04z"/>
   <path id="3" class="fil5" d="M977.99 1926.36c-5.68,0 -10.36,-1.81 -14.04,-5.42 -3.68,-3.61 -5.52,-8.3 -5.52,-14.08 0,-5.45 1.74,-10.06 5.24,-13.83 3.49,-3.78 7.91,-5.66 13.27,-5.66 5.92,0 10.44,1.95 13.56,5.87 3.12,3.91 4.68,8.73 4.68,14.46 0,0.56 -0.05,1.49 -0.14,2.8l-26.06 0c0.51,2.37 1.56,4.19 3.14,5.45 1.58,1.25 3.59,1.88 6.01,1.88 3.31,0 6.33,-1.28 9.08,-3.84l6.08 5.38c-3.77,4.66 -8.87,6.99 -15.3,6.99zm-9.15 -22.5l16 0c-0.33,-2.43 -1.18,-4.36 -2.55,-5.8 -1.38,-1.45 -3.16,-2.17 -5.35,-2.17 -2.14,0 -3.92,0.71 -5.34,2.13 -1.42,1.42 -2.34,3.37 -2.76,5.84z"/>
   <polygon id="4" class="fil5" points="1003.07,1925.52 1003.07,1888.07 1013.7,1888.07 1013.7,1903.44 1027.11,1888.07 1039.34,1888.07 1025.57,1903.44 1041.09,1925.52 1028.51,1925.52 1018.52,1911.26 1013.7,1916.51 1013.7,1925.52 "/>
   <polygon id="5" class="fil5" points="1075.04,1888.07 1075.04,1897.15 1063.93,1897.15 1063.93,1925.52 1053.17,1925.52 1053.17,1897.15 1042.06,1897.15 1042.06,1888.07 "/>
   <polygon id="6" class="fil5" points="1115.15,1888.07 1115.15,1925.52 1104.53,1925.52 1104.53,1911.19 1091.46,1911.19 1091.46,1925.52 1080.84,1925.52 1080.84,1888.07 1091.46,1888.07 1091.46,1902.46 1104.53,1902.46 1104.53,1888.07 "/>
   <path id="7" class="fil5" d="M1157.53 1920.7c-3.89,3.77 -8.73,5.66 -14.5,5.66 -5.78,0 -10.59,-1.88 -14.43,-5.63 -3.84,-3.75 -5.77,-8.37 -5.77,-13.87 0,-5.45 1.95,-10.06 5.84,-13.83 3.89,-3.78 8.72,-5.66 14.5,-5.66 5.77,0 10.58,1.87 14.43,5.62 3.84,3.75 5.76,8.38 5.76,13.87 0,5.45 -1.95,10.06 -5.83,13.84zm-14.36 -3.5c2.93,0 5.28,-0.99 7.05,-2.97 1.77,-1.98 2.66,-4.43 2.66,-7.37 0,-2.84 -0.92,-5.27 -2.76,-7.3 -1.84,-2.03 -4.21,-3.04 -7.09,-3.04 -2.94,0 -5.29,0.99 -7.06,2.97 -1.77,1.98 -2.65,4.44 -2.65,7.37 0,2.84 0.92,5.28 2.76,7.3 1.83,2.03 4.2,3.04 7.09,3.04z"/>
   <polygon id="8" class="fil5" points="1169.79,1908.96 1169.79,1898.76 1191.31,1898.76 1191.31,1908.96 "/>
   <polygon id="9" class="fil5" points="1199.55,1925.52 1199.55,1888.07 1210.31,1888.07 1220.45,1903.79 1230.72,1888.07 1241.48,1888.07 1241.48,1925.52 1230.72,1925.52 1230.72,1903.02 1220.31,1918.39 1210.03,1903.23 1210.03,1925.52 "/>
   <path id="10" class="fil5" d="M1283.85 1920.7c-3.89,3.77 -8.72,5.66 -14.49,5.66 -5.78,0 -10.59,-1.88 -14.43,-5.63 -3.85,-3.75 -5.77,-8.37 -5.77,-13.87 0,-5.45 1.95,-10.06 5.84,-13.83 3.89,-3.78 8.72,-5.66 14.5,-5.66 5.77,0 10.58,1.87 14.42,5.62 3.85,3.75 5.77,8.38 5.77,13.87 0,5.45 -1.95,10.06 -5.84,13.84zm-14.35 -3.5c2.93,0 5.28,-0.99 7.05,-2.97 1.77,-1.98 2.66,-4.43 2.66,-7.37 0,-2.84 -0.92,-5.27 -2.76,-7.3 -1.84,-2.03 -4.21,-3.04 -7.09,-3.04 -2.94,0 -5.29,0.99 -7.06,2.97 -1.77,1.98 -2.66,4.44 -2.66,7.37 0,2.84 0.92,5.28 2.76,7.3 1.84,2.03 4.21,3.04 7.1,3.04z"/>
   <polygon id="11" class="fil5" points="1331.68,1888.07 1331.68,1925.52 1321.06,1925.52 1321.06,1911.19 1308,1911.19 1308,1925.52 1297.37,1925.52 1297.37,1888.07 1308,1888.07 1308,1902.46 1321.06,1902.46 1321.06,1888.07 "/>
   <polygon id="12" class="fil5" points="1370.46,1888.07 1370.46,1897.15 1359.35,1897.15 1359.35,1925.52 1348.59,1925.52 1348.59,1897.15 1337.48,1897.15 1337.48,1888.07 "/>
   <path id="13" class="fil5" d="M1386.88 1926.22c-3.68,0 -6.74,-1.03 -9.19,-3.08 -2.44,-2.05 -3.67,-4.89 -3.67,-8.52 0,-3.96 1.37,-6.94 4.09,-8.95 2.73,-2 6.39,-3 11.01,-3 3.12,0 6.17,0.51 9.15,1.54l0 -0.63c0,-4.57 -2.68,-6.85 -8.04,-6.85 -3.21,0 -6.66,0.68 -10.34,2.03l-2.65 -8.11c4.56,-2 9.41,-3 14.53,-3 5.64,0 9.85,1.39 12.65,4.19 2.7,2.7 4.05,6.68 4.05,11.95l0 21.73 -10.27 0 0 -4.05c-2.84,3.16 -6.62,4.75 -11.32,4.75zm3.21 -7.34c2.47,0 4.48,-0.62 6.01,-1.85 1.54,-1.24 2.31,-2.81 2.31,-4.72l0 -1.88c-2,-0.94 -4.26,-1.4 -6.78,-1.4 -2.33,0 -4.13,0.45 -5.41,1.36 -1.28,0.91 -1.93,2.22 -1.93,3.95 0,1.4 0.54,2.5 1.61,3.32 1.07,0.81 2.47,1.22 4.19,1.22z"/>
   <polygon id="14" class="fil5" points="1449.35,1925.52 1438.66,1925.52 1438.66,1915.81 1434.18,1910.56 1424.75,1925.52 1412.87,1925.52 1427.06,1903.58 1413.29,1888.07 1425.52,1888.07 1438.66,1904 1438.66,1888.07 1449.35,1888.07 1449.35,1904 1462.48,1888.07 1474.78,1888.07 1461.01,1903.58 1475.13,1925.52 1463.32,1925.52 1453.82,1910.56 1449.35,1915.81 "/>
   <polygon id="15" class="fil5" points="1514.19,1888.07 1514.19,1925.52 1503.57,1925.52 1503.57,1911.19 1490.5,1911.19 1490.5,1925.52 1479.88,1925.52 1479.88,1888.07 1490.5,1888.07 1490.5,1902.46 1503.57,1902.46 1503.57,1888.07 "/>
   <path id="16" class="fil5" d="M1534.31 1926.22c-3.68,0 -6.74,-1.03 -9.19,-3.08 -2.44,-2.05 -3.67,-4.89 -3.67,-8.52 0,-3.96 1.37,-6.94 4.09,-8.95 2.73,-2 6.39,-3 11.01,-3 3.12,0 6.17,0.51 9.15,1.54l0 -0.63c0,-4.57 -2.68,-6.85 -8.04,-6.85 -3.21,0 -6.66,0.68 -10.34,2.03l-2.65 -8.11c4.56,-2 9.41,-3 14.53,-3 5.64,0 9.85,1.39 12.65,4.19 2.7,2.7 4.05,6.68 4.05,11.95l0 21.73 -10.27 0 0 -4.05c-2.84,3.16 -6.62,4.75 -11.32,4.75zm3.21 -7.34c2.47,0 4.48,-0.62 6.01,-1.85 1.54,-1.24 2.31,-2.81 2.31,-4.72l0 -1.88c-2,-0.94 -4.26,-1.4 -6.78,-1.4 -2.33,0 -4.13,0.45 -5.41,1.36 -1.28,0.91 -1.93,2.22 -1.93,3.95 0,1.4 0.54,2.5 1.61,3.32 1.07,0.81 2.47,1.22 4.19,1.22z"/>
   <path id="17" class="fil5" d="M1598.24 1888.07l0 37.45 -10.62 0 0 -12.02 -5.73 0 -7.89 12.02 -12.3 0 9.57 -13.77c-5.21,-2 -7.82,-5.73 -7.82,-11.18 0,-3.82 1.32,-6.85 3.98,-9.11 2.65,-2.26 6.38,-3.39 11.18,-3.39l19.63 0zm-17.81 17.74l7.19 0 0 -9.43 -7.26 0c-1.96,0 -3.47,0.41 -4.55,1.22 -1.07,0.82 -1.6,1.99 -1.6,3.53 0,1.49 0.55,2.65 1.64,3.46 1.09,0.82 2.62,1.22 4.58,1.22z"/>
   <polygon id="18" class="fil5" points="1628.71,1925.52 1628.71,1888.07 1639.33,1888.07 1639.33,1903.44 1652.74,1888.07 1664.97,1888.07 1651.21,1903.44 1666.72,1925.52 1654.14,1925.52 1644.15,1911.26 1639.33,1916.51 1639.33,1925.52 "/>
   <path id="19" class="fil5" d="M1704.27 1920.7c-3.89,3.77 -8.72,5.66 -14.49,5.66 -5.78,0 -10.59,-1.88 -14.43,-5.63 -3.85,-3.75 -5.77,-8.37 -5.77,-13.87 0,-5.45 1.95,-10.06 5.84,-13.83 3.89,-3.78 8.72,-5.66 14.49,-5.66 5.78,0 10.59,1.87 14.43,5.62 3.85,3.75 5.77,8.38 5.77,13.87 0,5.45 -1.95,10.06 -5.84,13.84zm-14.36 -3.5c2.94,0 5.29,-0.99 7.06,-2.97 1.77,-1.98 2.66,-4.43 2.66,-7.37 0,-2.84 -0.92,-5.27 -2.76,-7.3 -1.84,-2.03 -4.21,-3.04 -7.09,-3.04 -2.94,0 -5.29,0.99 -7.06,2.97 -1.77,1.98 -2.66,4.44 -2.66,7.37 0,2.84 0.92,5.28 2.76,7.3 1.84,2.03 4.21,3.04 7.09,3.04z"/>
   <polygon id="20" class="fil5" points="1717.79,1925.52 1717.79,1888.07 1728.55,1888.07 1738.69,1903.79 1748.96,1888.07 1759.72,1888.07 1759.72,1925.52 1748.96,1925.52 1748.96,1903.02 1738.55,1918.39 1728.27,1903.23 1728.27,1925.52 "/>
   <polygon id="21" class="fil5" points="1803.25,1888.07 1803.25,1925.52 1792.63,1925.52 1792.63,1897.15 1779.84,1897.15 1779.84,1925.52 1769.22,1925.52 1769.22,1888.07 "/>
   <path id="22" class="fil5" d="M1823.37 1926.22c-3.68,0 -6.74,-1.03 -9.19,-3.08 -2.44,-2.05 -3.67,-4.89 -3.67,-8.52 0,-3.96 1.37,-6.94 4.09,-8.95 2.73,-2 6.39,-3 11.01,-3 3.12,0 6.17,0.51 9.15,1.54l0 -0.63c0,-4.57 -2.68,-6.85 -8.04,-6.85 -3.21,0 -6.66,0.68 -10.34,2.03l-2.65 -8.11c4.56,-2 9.41,-3 14.53,-3 5.64,0 9.85,1.39 12.65,4.19 2.7,2.7 4.05,6.68 4.05,11.95l0 21.73 -10.27 0 0 -4.05c-2.84,3.16 -6.62,4.75 -11.32,4.75zm3.21 -7.34c2.47,0 4.48,-0.62 6.01,-1.85 1.54,-1.24 2.31,-2.81 2.31,-4.72l0 -1.88c-2,-0.94 -4.26,-1.4 -6.78,-1.4 -2.33,0 -4.13,0.45 -5.41,1.36 -1.28,0.91 -1.93,2.22 -1.93,3.95 0,1.4 0.54,2.5 1.61,3.32 1.07,0.81 2.47,1.22 4.19,1.22z"/>
   <polygon id="23" class="fil5" points="1888.42,1888.07 1888.42,1925.52 1877.8,1925.52 1877.8,1911.19 1864.73,1911.19 1864.73,1925.52 1854.11,1925.52 1854.11,1888.07 1864.73,1888.07 1864.73,1902.46 1877.8,1902.46 1877.8,1888.07 "/>
   <polygon id="24" class="fil5" points="1932.79,1888.07 1932.79,1925.52 1922.52,1925.52 1922.52,1903.72 1907.91,1925.52 1897.92,1925.52 1897.92,1888.07 1908.19,1888.07 1908.19,1909.94 1922.8,1888.07 "/>
   <path id="25" class="fil5" d="M1975.48 1888.07l0 37.45 -10.62 0 0 -12.02 -5.73 0 -7.89 12.02 -12.3 0 9.57 -13.77c-5.22,-2 -7.83,-5.73 -7.83,-11.18 0,-3.82 1.33,-6.85 3.99,-9.11 2.65,-2.26 6.38,-3.39 11.18,-3.39l19.63 0zm-17.82 17.74l7.2 0 0 -9.43 -7.27 0c-1.95,0 -3.47,0.41 -4.54,1.22 -1.07,0.82 -1.61,1.99 -1.61,3.53 0,1.49 0.55,2.65 1.65,3.46 1.09,0.82 2.62,1.22 4.57,1.22z"/>
  </g>
 </g>
</svg>
