<?xml version="1.0" encoding="UTF-8"?>
<!DOCTYPE svg PUBLIC "-//W3C//DTD SVG 1.1//EN" "http://www.w3.org/Graphics/SVG/1.1/DTD/svg11.dtd">
<!-- Creator: CorelDRAW 2020 (64-Bit) -->
<svg xmlns="http://www.w3.org/2000/svg" xml:space="preserve" width="5433px" height="1406px" version="1.1" style="shape-rendering:geometricPrecision; text-rendering:geometricPrecision; image-rendering:optimizeQuality; fill-rule:evenodd; clip-rule:evenodd"
viewBox="0 0 5433 1405.49"
 xmlns:xlink="http://www.w3.org/1999/xlink"
 xmlns:xodm="http://www.corel.com/coreldraw/odm/2003">
 <defs>
  <style type="text/css">
   <![CDATA[
    .fil4 {fill:#FEFEFE}
    .fil0 {fill:#008DD2;fill-rule:nonzero}
    .fil2 {fill:#009846;fill-rule:nonzero}
    .fil3 {fill:#E31E24;fill-rule:nonzero}
    .fil1 {fill:#EF7F1A;fill-rule:nonzero}
    .fil5 {fill:#FEFEFE;fill-rule:nonzero}
   ]]>
  </style>
 </defs>
 <g id="Слой_x0020_1">
  <metadata id="CorelCorpID_0Corel-Layer"/>
  <g id="_2010552847824">
   <path class="fil0" d="M796.74 131.3l792.56 0c23.68,0 45.21,9.69 60.81,25.28 15.59,15.6 25.28,37.13 25.28,60.81l0 224.85 -38.5 0 0 -224.85c0,-13.06 -5.38,-24.96 -14,-33.59 -8.63,-8.62 -20.53,-14 -33.59,-14l-792.56 0c-13.09,0 -24.96,5.38 -33.62,14 -8.63,8.63 -13.97,20.53 -13.97,33.59l0 477.44c0,13.06 5.34,24.96 13.97,33.59 8.66,8.66 20.53,14 33.62,14l537.12 0 0 38.5 -537.12 0c-23.72,0 -45.21,-9.69 -60.81,-25.28 -15.59,-15.6 -25.28,-37.1 -25.28,-60.81l0 -477.44c0,-23.68 9.69,-45.21 25.28,-60.81 15.6,-15.59 37.09,-25.28 60.81,-25.28z"/>
   <path class="fil1" d="M962.37 294.02l862.02 0c25.96,0 49.56,10.62 66.68,27.68 17.06,17.1 27.69,40.69 27.69,66.69l0 53.84 -38.5 0 0 -53.84c0,-15.34 -6.28,-29.31 -16.44,-39.47 -10.12,-10.12 -24.09,-16.4 -39.43,-16.4l-862.02 0c-15.35,0 -29.32,6.28 -39.44,16.4 -10.13,10.16 -16.44,24.13 -16.44,39.47l0 536.59c0,15.34 6.32,29.31 16.44,39.43 10.13,10.13 24.09,16.44 39.44,16.44l862.02 0c15.34,0 29.31,-6.31 39.43,-16.44 5.25,-5.22 9.44,-11.46 12.32,-18.4l40.24 0c-4.03,17.56 -13,33.28 -25.31,45.62 -17.12,17.1 -40.72,27.72 -66.68,27.72l-862.02 0c-25.97,0 -49.57,-10.62 -66.66,-27.72 -17.09,-17.09 -27.69,-40.68 -27.69,-66.65l0 -536.59c0,-26 10.6,-49.59 27.69,-66.69 17.09,-17.06 40.69,-27.68 66.66,-27.68l0 0z"/>
   <path class="fil2" d="M492.18 673.42l702.21 0c21.82,0 41.66,8.94 56,23.28 14.38,14.37 23.28,34.19 23.28,56.03l0 428.96c0,21.82 -8.9,41.66 -23.28,56.03 -14.34,14.35 -34.18,23.25 -56,23.25l-702.21 0c-21.81,0 -41.65,-8.9 -56.03,-23.25 -14.34,-14.37 -23.25,-34.21 -23.25,-56.03l0 -428.96c0,-21.84 8.91,-41.66 23.25,-56.03 14.38,-14.34 34.22,-23.28 56.03,-23.28zm702.22 38.5l-702.21 0c-11.19,0 -21.38,4.59 -28.78,12 -7.44,7.41 -12,17.62 -12,28.81l0 428.97c0,11.18 4.56,21.4 12,28.81 7.4,7.4 17.59,11.97 28.78,11.97l702.21 0c11.18,0 21.4,-4.57 28.81,-11.97 7.37,-7.41 11.97,-17.63 11.97,-28.81l0 -428.97c0,-11.19 -4.6,-21.4 -11.97,-28.81 -7.41,-7.41 -17.63,-12 -28.81,-12z"/>
   <path class="fil3" d="M610.31 508.45l498.84 0c17.31,0 33.03,7.06 44.43,18.47 11.38,11.38 18.47,27.13 18.47,44.44l0 311.81c0,17.31 -7.09,33.06 -18.47,44.43 -11.4,11.41 -27.12,18.47 -44.43,18.47l-498.84 0c-17.31,0 -33.03,-7.06 -44.44,-18.47 -11.37,-11.37 -18.44,-27.12 -18.44,-44.43l0 -311.81c0,-17.31 7.07,-33.06 18.44,-44.44 11.41,-11.41 27.13,-18.47 44.44,-18.47zm498.84 38.5l-498.84 0c-6.69,0 -12.78,2.75 -17.22,7.19 -4.44,4.44 -7.19,10.5 -7.19,17.22l0 311.81c0,6.68 2.75,12.78 7.19,17.22 4.44,4.43 10.53,7.18 17.22,7.18l498.84 0c6.68,0 12.78,-2.75 17.21,-7.18 4.41,-4.44 7.19,-10.54 7.19,-17.22l0 -311.81c0,-6.72 -2.78,-12.78 -7.19,-17.22 -4.43,-4.44 -10.53,-7.19 -17.21,-7.19z"/>
   <path class="fil4" d="M3966.52 760.79l-29.07 -125.37 -29.06 125.37 58.13 0 0 0zm-47.07 -242.77l48.53 0 98.94 352.68 -68.65 0 -12.75 -55.06 -83.57 0 -12.78 55.06 -68.53 0c32.94,-117.56 65.88,-235.12 98.81,-352.68zm-785.33 293.71l0.03 0 0.28 0.16c2.75,1.31 5.72,2.22 8.72,2.81 3.41,0.66 6.88,0.9 10.31,0.9 3.44,0 6.91,-0.25 10.28,-0.9 2.97,-0.56 5.88,-1.47 8.63,-2.75l0.03 -0.03 0.09 -0.03c2.6,-1.19 5.03,-2.72 7.19,-4.6 2.03,-1.78 3.78,-3.87 5.16,-6.25l0.06 -0.12 0 0c1.37,-2.41 2.37,-5 3,-7.66 0.75,-3.03 1.03,-6.12 1.03,-9.22l0 -179.87c0,-3.03 -0.28,-6.09 -1.03,-9.03 -0.66,-2.69 -1.69,-5.31 -3.06,-7.72 -1.38,-2.37 -3.13,-4.47 -5.16,-6.25 -2.16,-1.87 -4.59,-3.4 -7.19,-4.59l-0.84 -0.41 -0.06 0c-2.53,-1.06 -5.19,-1.84 -7.88,-2.37 -3.37,-0.69 -6.81,-0.94 -10.25,-0.94 -3.43,0 -6.9,0.25 -10.31,0.94 -3,0.59 -5.94,1.5 -8.72,2.81 -5.09,2.38 -9.31,5.91 -12.12,10.81 -1.38,2.41 -2.41,5.03 -3.1,7.72 -0.72,2.94 -1.03,6 -1.03,9.03l0 179.87c0,3.1 0.31,6.19 1.03,9.22 0.66,2.66 1.63,5.25 3.03,7.66l0 0 0.07 0.12c2.78,4.82 6.84,8.32 11.81,10.69l0 0zm112.81 24.28l0 0.03 -0.25 0.35c-4.19,6.18 -9.34,11.62 -15.25,16.21 -6.38,4.94 -13.47,8.85 -20.91,11.94 -8.4,3.44 -17.25,5.81 -26.18,7.38 -10.19,1.75 -20.53,2.46 -30.88,2.46 -10.34,0 -20.75,-0.71 -30.94,-2.46 -8.96,-1.57 -17.78,-3.94 -26.18,-7.38 -7.44,-3.09 -14.53,-7 -20.88,-11.94 -5.87,-4.59 -11,-10.03 -15.22,-16.21l-0.56 -0.88c-3.94,-6 -6.84,-12.56 -8.78,-19.47 -2.19,-7.84 -3.12,-16.03 -3.12,-24.19l0 -194.99c0,-15.97 3.53,-31.25 12.46,-44.63l0.47 -0.69c4.1,-5.93 9.1,-11.15 14.75,-15.59 6.35,-4.97 13.44,-8.87 20.88,-11.94l0.78 -0.34c8.15,-3.22 16.69,-5.44 25.34,-6.91 10.22,-1.72 20.63,-2.43 31,-2.43 10.35,0 20.72,0.71 30.94,2.43 8.62,1.47 17.16,3.69 25.31,6.91l0.81 0.34c7.44,3.07 14.53,7 20.88,11.94 5.87,4.56 10.97,9.94 15.12,16.03l0 0.03 0.16 0.22c4.16,6.28 7.25,13.16 9.25,20.44 2.19,7.87 3.12,16.03 3.12,24.19l0 194.99c0,8.16 -0.93,16.31 -3.12,24.19 -1.97,7.09 -4.97,13.84 -9,19.97l0 0zm-1846.04 -317.99l196.41 0 0 352.68 -69.25 0 0 -296.59 -57.94 0 0 296.59 -69.22 0 0 -352.68zm3432.93 0l0 149.4 39.37 0 35.78 -149.4 71.19 0 -49.25 171.31 66.66 181.37 -73.22 0 -52.28 -147 -38.25 0 0 147 -69.25 0c0,-117.56 0,-235.12 0,-352.68l69.25 0 0 0zm-263.94 345.46c-6.75,-3.31 -13.06,-7.44 -18.65,-12.47 -5.66,-5.12 -10.44,-11.06 -14.32,-17.66 -4.03,-6.84 -6.9,-14.31 -8.78,-22.03 -2.09,-8.59 -2.94,-17.43 -2.94,-26.28l0 -181.37c0,-8.84 0.85,-17.69 2.94,-26.28 1.88,-7.72 4.75,-15.19 8.78,-22.03 3.85,-6.56 8.63,-12.47 14.28,-17.56 5.63,-5.06 12,-9.22 18.78,-12.53l0.75 -0.35c7.78,-3.69 16.03,-6.25 24.47,-7.93 9.53,-1.88 19.31,-2.66 29.03,-2.66 9.72,0 19.47,0.78 29.03,2.66 8.04,1.59 15.94,4 23.38,7.37l1.19 0.56c7.12,3.35 13.75,7.63 19.59,12.91 5.41,4.9 10.03,10.53 13.78,16.78l0.53 0.9c4,6.94 6.85,14.41 8.72,22.16 2.06,8.59 2.91,17.44 2.91,26.25l0 27.69 -70.22 0 0 -27.69c0,-2.87 -0.22,-5.75 -0.75,-8.56 -0.5,-2.57 -1.31,-5.06 -2.47,-7.41l-0.06 -0.15 -0.03 0c-1,-2.16 -2.35,-4.16 -3.97,-5.88 -1.72,-1.81 -3.69,-3.31 -5.84,-4.47 -2.32,-1.25 -4.76,-2.12 -7.29,-2.72 -2.78,-0.62 -5.65,-0.87 -8.5,-0.87 -2.75,0 -5.5,0.22 -8.18,0.84 -2.44,0.53 -4.82,1.41 -7,2.59l-0.03 0.03 -0.07 0.04c-2.15,1.15 -4.09,2.59 -5.78,4.37 -1.69,1.75 -3.09,3.78 -4.16,5.97l0 0.03c-1.18,2.34 -2.03,4.81 -2.56,7.37 -0.59,2.82 -0.84,5.69 -0.84,8.57l0 181.37c0,2.87 0.25,5.75 0.84,8.56 0.53,2.47 1.35,4.88 2.47,7.13l0 0.03 0.09 0.16c1.1,2.15 2.47,4.15 4.19,5.9 1.69,1.75 3.63,3.22 5.78,4.38 2.22,1.22 4.63,2.06 7.1,2.62 2.65,0.6 5.4,0.88 8.15,0.88 2.91,0 5.81,-0.25 8.66,-0.88 2.47,-0.56 4.87,-1.4 7.12,-2.59l0.1 -0.03c2.09,-1.19 4.06,-2.63 5.75,-4.38 1.65,-1.72 3.03,-3.72 4.06,-5.87l0 -0.03c1.19,-2.35 1.97,-4.85 2.47,-7.41 0.53,-2.87 0.75,-5.81 0.75,-8.72l0 -27.68 70.22 0 0 27.68c0,8.85 -0.85,17.69 -2.91,26.28 -1.88,7.75 -4.72,15.22 -8.72,22.13l-0.41 0.72c-3.78,6.34 -8.43,12.09 -13.9,17.06 -5.85,5.28 -12.47,9.56 -19.59,12.9 -7.85,3.66 -16.13,6.19 -24.6,7.85 -9.56,1.87 -19.28,2.65 -29,2.65 -9.72,0 -19.5,-0.78 -29.03,-2.65 -8.44,-1.66 -16.69,-4.22 -24.47,-7.85l-0.84 -0.4 0 0zm-162.34 -345.46l64.91 0 0 352.68 -61.53 0 0 -223.87 -57.6 161.24 -34.34 0 -56.13 -152.65 0 215.28 -62.99 0 0 -352.69 66.65 0 69.63 194.28 71.4 -194.28 0 0.01zm-770.4 0l0 149.4 39.38 0 35.81 -149.4 71.16 0 -49.22 171.31 66.62 181.37 -73.22 0 -52.24 -147 -38.28 0 0 147 -69.25 0 0 -352.68 69.25 0 -0.01 0zm-150.93 -99.66c-0.06,10.22 -1.41,20.56 -4.88,30.22 -3.15,8.75 -7.93,16.56 -14.59,23.09 -6.72,6.6 -14.66,11.34 -23.5,14.47 -10.06,3.53 -20.81,4.84 -31.41,4.84l-2.34 0c-10.63,0 -21.38,-1.31 -31.44,-4.84 -8.84,-3.13 -16.78,-7.88 -23.5,-14.47 -6.62,-6.53 -11.43,-14.34 -14.59,-23.09 -3.47,-9.66 -4.81,-20 -4.88,-30.22l54.1 0.47c0.03,4.06 0.37,8.12 1.31,12.09 0.78,3.38 2,6.72 3.84,9.69l0.03 0.03 0.1 0.19c1.65,2.59 3.75,4.81 6.43,6.31 2.66,1.5 5.57,2.13 8.6,2.13l2.34 0c3,0 5.94,-0.63 8.56,-2.13 2.69,-1.5 4.78,-3.72 6.44,-6.31l0.12 -0.19 0 -0.03c1.88,-2.97 3.07,-6.31 3.88,-9.69 0.91,-3.97 1.25,-8.03 1.31,-12.09l54.06 -0.47 0.01 0zm-34.03 452.12l0 -222.12 -90.22 222.12 -55.81 0 0 -352.47 62.97 0 0 223.16 90.81 -223.16 55.25 0 0 352.47 -63 0zm-883.08 -352.46l206.77 0 0 56.24 -68.81 0 0 296.44 -69.25 0 0 -296.44 -68.71 0 0 -56.24zm-171.81 345.46c-6.75,-3.31 -13.07,-7.44 -18.66,-12.47 -5.66,-5.12 -10.47,-11.06 -14.34,-17.66 -4,-6.84 -6.88,-14.31 -8.75,-22.03 -2.1,-8.59 -2.97,-17.43 -2.97,-26.28l0 -181.37c0,-8.84 0.87,-17.69 2.97,-26.28 1.87,-7.72 4.75,-15.19 8.75,-22.03 3.87,-6.56 8.65,-12.47 14.31,-17.56 5.62,-5.06 11.97,-9.22 18.78,-12.53l0.75 -0.35c7.78,-3.69 16.03,-6.25 24.47,-7.93 9.53,-1.88 19.31,-2.66 29.03,-2.66 9.72,0 19.47,0.78 29.03,2.66 8.03,1.59 15.91,4 23.37,7.37l1.16 0.56c7.13,3.35 13.78,7.63 19.63,12.91 5.4,4.9 10.03,10.53 13.78,16.78l0.53 0.9c4,6.94 6.84,14.41 8.68,22.16 2.07,8.59 2.94,17.44 2.94,26.25l0 27.69 -70.22 0 0 -27.69c0,-2.87 -0.21,-5.75 -0.78,-8.56 -0.5,-2.57 -1.28,-5.06 -2.43,-7.41l-0.07 -0.15 -0.03 0c-1.03,-2.16 -2.34,-4.16 -4,-5.88 -1.69,-1.81 -3.65,-3.31 -5.84,-4.47 -2.28,-1.25 -4.72,-2.12 -7.25,-2.72 -2.78,-0.62 -5.66,-0.87 -8.5,-0.87 -2.75,0 -5.5,0.22 -8.19,0.84 -2.44,0.53 -4.81,1.41 -7,2.59l-0.03 0.03 -0.06 0.04c-2.16,1.15 -4.13,2.59 -5.81,4.37 -1.69,1.75 -3.07,3.78 -4.13,5.97l0 0.03c-1.19,2.34 -2.03,4.81 -2.59,7.37 -0.6,2.82 -0.82,5.69 -0.82,8.57l0 181.37c0,2.87 0.22,5.75 0.82,8.56 0.53,2.47 1.34,4.88 2.5,7.13l0 0.03 0.09 0.16c1.06,2.15 2.47,4.15 4.16,5.9 1.71,1.75 3.65,3.22 5.81,4.38 2.22,1.22 4.62,2.06 7.09,2.62 2.66,0.6 5.41,0.88 8.16,0.88 2.87,0 5.81,-0.25 8.65,-0.88 2.47,-0.56 4.88,-1.4 7.13,-2.59l0.06 -0.03c2.13,-1.19 4.1,-2.63 5.75,-4.38 1.69,-1.72 3.06,-3.72 4.1,-5.87l0 -0.03c1.15,-2.35 1.93,-4.85 2.43,-7.41 0.57,-2.87 0.78,-5.81 0.78,-8.72l0 -27.68 70.22 0 0 27.68c0,16.91 -3.09,33.63 -11.62,48.41l-0.41 0.72c-3.78,6.34 -8.44,12.09 -13.91,17.06 -5.84,5.28 -12.5,9.56 -19.62,12.9 -7.81,3.66 -16.13,6.19 -24.59,7.85 -9.54,1.87 -19.29,2.65 -28.97,2.65 -9.75,0 -19.5,-0.78 -29.03,-2.65 -8.44,-1.66 -16.69,-4.22 -24.47,-7.85l-0.85 -0.4 0.01 0zm-266.41 -345.46l183.22 0 0 57.24 -113.97 0 0 91.66 99.69 0 0 57.03 -99.69 0 0 89.5 113.97 0 0 57.25 -183.22 0 0 -352.68zm-157.5 56.24l-32.4 0 0 102.66 36.75 0c2.75,0 5.5,-0.25 8.16,-0.84 2.46,-0.57 4.84,-1.41 7.03,-2.63l0.03 0 0.06 -0.03c2.12,-1.16 4.09,-2.59 5.78,-4.34 1.72,-1.82 3.16,-3.85 4.25,-6.07l0 0c1.25,-2.31 2.13,-4.75 2.72,-7.28 0.62,-2.84 0.87,-5.75 0.87,-8.62l0 -41.69c0,-3 -0.25,-6 -0.84,-8.94 -0.53,-2.68 -1.37,-5.34 -2.53,-7.81l-0.03 -0.06 -0.03 -0.06c-1.13,-2.19 -2.5,-4.25 -4.16,-6.1 -1.65,-1.81 -3.59,-3.31 -5.75,-4.5 -2.22,-1.25 -4.62,-2.12 -7.12,-2.72 -2.72,-0.62 -5.57,-0.93 -8.38,-0.97l-4.4 -0.06 0 0.06 -0.01 0zm-101.65 -56.24l107.94 0c9.59,0 19.18,0.65 28.65,2.31 8.22,1.44 16.31,3.65 23.97,6.94l1.56 0.65c6.32,2.78 12.32,6.28 17.69,10.63 5.22,4.25 9.78,9.22 13.5,14.84l0.41 0.66c3.84,6.03 6.65,12.59 8.46,19.5 2,7.5 2.85,15.28 2.85,23.06l0 59.72c0,7.62 -0.84,15.25 -2.91,22.56 -1.84,6.75 -4.69,13.16 -8.59,18.97l-0.5 0.78c-3.75,5.47 -8.31,10.31 -13.53,14.44 -5.85,4.59 -12.35,8.25 -19.19,11.09 -7.72,3.19 -15.84,5.38 -24.06,6.81 -9.34,1.63 -18.81,2.28 -28.31,2.28l-38.69 0 0 137.44 -69.25 0 0 -352.68 0 0zm-221.69 0l183.22 0 0 57.24 -113.97 0 0 91.66 99.69 0 0 57.03 -99.69 0 0 89.5 113.97 0 0 57.25 -183.22 0 0 -352.68zm1260.58 56.24l-32.37 0 0 102.66 36.75 0c2.72,0 5.5,-0.25 8.15,-0.84 2.47,-0.57 4.85,-1.41 7.03,-2.63l0.04 0 0.03 -0.03c2.15,-1.16 4.12,-2.59 5.81,-4.34 1.72,-1.82 3.15,-3.85 4.25,-6.07l0 0c1.25,-2.31 2.12,-4.75 2.72,-7.28 0.62,-2.84 0.87,-5.75 0.87,-8.62l0 -41.69c0,-3 -0.25,-6 -0.84,-8.94 -0.53,-2.68 -1.38,-5.34 -2.53,-7.81l-0.03 -0.06 -0.03 -0.06c-1.13,-2.19 -2.5,-4.25 -4.16,-6.1 -1.66,-1.81 -3.59,-3.31 -5.75,-4.5 -2.22,-1.25 -4.62,-2.12 -7.13,-2.72 -2.71,-0.62 -5.56,-0.93 -8.37,-0.97l-4.44 -0.06 0 0.06zm-101.62 -56.24l107.94 0c9.59,0 19.18,0.65 28.65,2.31 8.22,1.44 16.31,3.65 23.97,6.94l1.56 0.65c6.32,2.78 12.32,6.28 17.69,10.63 5.22,4.25 9.78,9.22 13.47,14.84l0.44 0.66c3.84,6.03 6.65,12.59 8.46,19.5 2,7.5 2.85,15.28 2.85,23.06l0 59.72c0,7.62 -0.85,15.25 -2.91,22.56 -1.84,6.75 -4.69,13.16 -8.59,18.97l-0.5 0.78c-3.75,5.47 -8.31,10.31 -13.53,14.44 -5.81,4.59 -12.35,8.25 -19.22,11.09 -7.72,3.19 -15.81,5.38 -24.03,6.81 -9.35,1.63 -18.84,2.28 -28.31,2.28l-38.69 0 0 137.44 -69.25 0 0 -352.68 0 0z"/>
   <polygon class="fil5" points="1520.2,1122.6 1520.2,1239.63 1487.02,1239.63 1487.02,1150.98 1447.05,1150.98 1447.05,1239.63 1413.86,1239.63 1413.86,1122.6 "/>
   <path id="_1" class="fil5" d="M1549.89 1274.57l0 -151.97 33.19 0 0 16.81c9.34,-12.68 21.5,-19 36.47,-19 14.56,0 27.09,5.47 37.56,16.38 10.47,10.9 15.72,25.75 15.72,44.53 0,18.65 -5.19,33.37 -15.6,44.22 -10.4,10.84 -22.97,16.28 -37.68,16.28 -14.57,0 -26.72,-5.85 -36.47,-17.47l0 50.22 -33.19 0 0 0zm40.94 -70c5.47,6.06 12.22,9.06 20.22,9.06 8,0 14.78,-3 20.31,-9.06 5.53,-6.03 8.28,-13.94 8.28,-23.69 0,-9.47 -2.75,-17.22 -8.28,-23.25 -5.53,-6.03 -12.31,-9.06 -20.31,-9.06 -8,0 -14.75,3.03 -20.22,9.06 -5.44,6.03 -8.19,13.94 -8.19,23.69 0,9.47 2.75,17.22 8.19,23.25z"/>
   <path id="_2" class="fil5" d="M1800.01 1224.57c-12.15,11.78 -27.25,17.69 -45.31,17.69 -18.03,0 -33.06,-5.88 -45.09,-17.6 -12,-11.72 -18,-26.15 -18,-43.34 0,-17.03 6.09,-31.44 18.22,-43.22 12.15,-11.81 27.28,-17.69 45.31,-17.69 18.06,0 33.09,5.85 45.09,17.57 12,11.71 18.03,26.18 18.03,43.34 0,17.03 -6.09,31.44 -18.25,43.25l0 0zm-44.87 -10.94c9.19,0 16.53,-3.09 22.06,-9.28 5.53,-6.19 8.31,-13.84 8.31,-23.03 0,-8.88 -2.87,-16.47 -8.62,-22.81 -5.75,-6.35 -13.16,-9.5 -22.19,-9.5 -9.16,0 -16.5,3.09 -22.03,9.28 -5.53,6.18 -8.31,13.87 -8.31,23.03 0,8.87 2.87,16.5 8.62,22.81 5.75,6.34 13.16,9.5 22.16,9.5l0 0z"/>
   <path id="_3" class="fil5" d="M1897.73 1242.26c-17.75,0 -32.38,-5.66 -43.88,-16.94 -11.5,-11.28 -17.25,-25.94 -17.25,-44 0,-17.03 5.44,-31.44 16.38,-43.22 10.91,-11.81 24.72,-17.69 41.47,-17.69 18.5,0 32.62,6.1 42.37,18.35 9.75,12.22 14.63,27.28 14.63,45.19 0,1.75 -0.16,4.65 -0.44,8.74l-81.44 0c1.6,7.41 4.88,13.1 9.82,17.04 4.93,3.9 11.22,5.87 18.78,5.87 10.34,0 19.78,-4 28.37,-12l19 16.81c-11.78,14.57 -27.72,21.85 -47.81,21.85l0 0zm-28.59 -70.32l50 0c-1.04,-7.59 -3.69,-13.62 -7.97,-18.12 -4.32,-4.53 -9.88,-6.78 -16.72,-6.78 -6.69,0 -12.25,2.22 -16.69,6.66 -4.44,4.43 -7.31,10.53 -8.62,18.25l0 -0.01z"/>
   <polygon id="_4" class="fil5" points="1976.1,1239.63 1976.1,1122.6 2009.32,1122.6 2009.32,1170.63 2051.23,1122.6 2089.45,1122.6 2046.42,1170.63 2094.91,1239.63 2055.6,1239.63 2024.38,1195.07 2009.32,1211.48 2009.32,1239.63 "/>
   <polygon id="_5" class="fil5" points="2201.01,1122.6 2201.01,1150.98 2166.29,1150.98 2166.29,1239.63 2132.66,1239.63 2132.66,1150.98 2097.95,1150.98 2097.95,1122.6 "/>
   <polygon id="_6" class="fil5" points="2326.35,1122.6 2326.35,1239.63 2293.16,1239.63 2293.16,1194.85 2252.32,1194.85 2252.32,1239.63 2219.13,1239.63 2219.13,1122.6 2252.32,1122.6 2252.32,1167.57 2293.16,1167.57 2293.16,1122.6 "/>
   <path id="_7" class="fil5" d="M2458.78 1224.57c-12.15,11.78 -27.28,17.69 -45.31,17.69 -18.06,0 -33.09,-5.88 -45.09,-17.6 -12,-11.72 -18.03,-26.15 -18.03,-43.34 0,-17.03 6.09,-31.44 18.25,-43.22 12.15,-11.81 27.25,-17.69 45.31,-17.69 18.03,0 33.06,5.85 45.09,17.57 12,11.71 18,26.18 18,43.34 0,17.03 -6.09,31.44 -18.21,43.25l-0.01 0zm-44.87 -10.94c9.16,0 16.5,-3.09 22.03,-9.28 5.53,-6.19 8.31,-13.84 8.31,-23.03 0,-8.88 -2.87,-16.47 -8.62,-22.81 -5.75,-6.35 -13.16,-9.5 -22.16,-9.5 -9.19,0 -16.53,3.09 -22.06,9.28 -5.53,6.18 -8.28,13.87 -8.28,23.03 0,8.87 2.87,16.5 8.62,22.81 5.72,6.34 13.13,9.5 22.16,9.5z"/>
   <polygon id="_8" class="fil5" points="2497.1,1187.88 2497.1,1156.01 2564.35,1156.01 2564.35,1187.88 "/>
   <polygon id="_9" class="fil5" points="2590.1,1239.63 2590.1,1122.6 2623.72,1122.6 2655.41,1171.73 2687.5,1122.6 2721.13,1122.6 2721.13,1239.63 2687.5,1239.63 2687.5,1169.32 2654.97,1217.35 2622.84,1169.98 2622.84,1239.63 "/>
   <path id="_10" class="fil5" d="M2853.53 1224.57c-12.16,11.78 -27.25,17.69 -45.28,17.69 -18.06,0 -33.09,-5.88 -45.09,-17.6 -12.03,-11.72 -18.03,-26.15 -18.03,-43.34 0,-17.03 6.09,-31.44 18.25,-43.22 12.15,-11.81 27.25,-17.69 45.31,-17.69 18.03,0 33.06,5.85 45.06,17.57 12.03,11.71 18.03,26.18 18.03,43.34 0,17.03 -6.09,31.44 -18.25,43.25l0 0zm-44.84 -10.94c9.15,0 16.5,-3.09 22.03,-9.28 5.53,-6.19 8.31,-13.84 8.31,-23.03 0,-8.88 -2.88,-16.47 -8.63,-22.81 -5.75,-6.35 -13.15,-9.5 -22.15,-9.5 -9.19,0 -16.53,3.09 -22.06,9.28 -5.54,6.18 -8.32,13.87 -8.32,23.03 0,8.87 2.88,16.5 8.63,22.81 5.75,6.34 13.15,9.5 22.19,9.5l0 0z"/>
   <polygon id="_11" class="fil5" points="3003,1122.6 3003,1239.63 2969.81,1239.63 2969.81,1194.85 2929,1194.85 2929,1239.63 2895.78,1239.63 2895.78,1122.6 2929,1122.6 2929,1167.57 2969.81,1167.57 2969.81,1122.6 "/>
   <polygon id="_12" class="fil5" points="3124.18,1122.6 3124.18,1150.98 3089.46,1150.98 3089.46,1239.63 3055.84,1239.63 3055.84,1150.98 3021.12,1150.98 3021.12,1122.6 "/>
   <path id="_13" class="fil5" d="M3175.49 1241.82c-11.5,0 -21.06,-3.22 -28.71,-9.63 -7.63,-6.4 -11.47,-15.28 -11.47,-26.62 0,-12.38 4.28,-21.69 12.78,-27.97 8.53,-6.25 19.97,-9.38 34.4,-9.38 9.75,0 19.29,1.6 28.6,4.82l0 -1.97c0,-14.28 -8.38,-21.41 -25.13,-21.41 -10.03,0 -20.81,2.13 -32.31,6.35l-8.28 -25.35c14.25,-6.25 29.4,-9.37 45.4,-9.37 17.63,0 30.79,4.34 39.54,13.09 8.43,8.44 12.65,20.88 12.65,37.34l0 67.91 -32.09 0 0 -12.66c-8.88,9.88 -20.69,14.85 -35.38,14.85l0 0zm10.03 -22.94c7.72,0 14,-1.94 18.79,-5.78 4.81,-3.88 7.21,-8.78 7.21,-14.75l0 -5.88c-6.25,-2.93 -13.31,-4.37 -21.18,-4.37 -7.28,0 -12.91,1.41 -16.91,4.25 -4,2.84 -6.03,6.94 -6.03,12.34 0,4.38 1.69,7.82 5.03,10.38 3.35,2.53 7.72,3.81 13.09,3.81z"/>
   <polygon id="_14" class="fil5" points="3370.71,1239.63 3337.3,1239.63 3337.3,1209.29 3323.3,1192.88 3293.84,1239.63 3256.71,1239.63 3301.06,1171.07 3258.02,1122.6 3296.24,1122.6 3337.3,1172.38 3337.3,1122.6 3370.71,1122.6 3370.71,1172.38 3411.74,1122.6 3450.18,1122.6 3407.15,1171.07 3451.27,1239.63 3414.37,1239.63 3384.68,1192.88 3370.71,1209.29 "/>
   <polygon id="_15" class="fil5" points="3573.33,1122.6 3573.33,1239.63 3540.15,1239.63 3540.15,1194.85 3499.3,1194.85 3499.3,1239.63 3466.12,1239.63 3466.12,1122.6 3499.3,1122.6 3499.3,1167.57 3540.15,1167.57 3540.15,1122.6 "/>
   <path id="_16" class="fil5" d="M3636.21 1241.82c-11.5,0 -21.07,-3.22 -28.72,-9.63 -7.63,-6.4 -11.47,-15.28 -11.47,-26.62 0,-12.38 4.28,-21.69 12.78,-27.97 8.53,-6.25 19.97,-9.38 34.41,-9.38 9.75,0 19.28,1.6 28.59,4.82l0 -1.97c0,-14.28 -8.38,-21.41 -25.13,-21.41 -10.03,0 -20.81,2.13 -32.31,6.35l-8.28 -25.35c14.25,-6.25 29.41,-9.37 45.41,-9.37 17.62,0 30.78,4.34 39.53,13.09 8.44,8.44 12.65,20.88 12.65,37.34l0 67.91 -32.09 0 0 -12.66c-8.87,9.88 -20.69,14.85 -35.37,14.85l0 0zm10.03 -22.94c7.72,0 14,-1.94 18.78,-5.78 4.81,-3.88 7.22,-8.78 7.22,-14.75l0 -5.88c-6.25,-2.93 -13.32,-4.37 -21.19,-4.37 -7.28,0 -12.91,1.41 -16.91,4.25 -4,2.84 -6.03,6.94 -6.03,12.34 0,4.38 1.69,7.82 5.03,10.38 3.35,2.53 7.72,3.81 13.1,3.81z"/>
   <path id="_17" class="fil5" d="M3835.99 1122.6l0 117.03 -33.19 0 0 -37.56 -17.91 0 -24.66 37.56 -38.43 0 29.9 -43.03c-16.28,-6.25 -24.43,-17.91 -24.43,-34.94 0,-11.93 4.12,-21.4 12.43,-28.47 8.28,-7.06 19.94,-10.59 34.94,-10.59l61.34 0 0.01 0zm-55.66 55.44l22.47 0 0 -29.47 -22.69 0c-6.12,0 -10.84,1.28 -14.22,3.81 -3.34,2.56 -5,6.22 -5,11.03 0,4.66 1.72,8.28 5.13,10.82 3.4,2.56 8.18,3.81 14.31,3.81l0 0z"/>
   <polygon id="_18" class="fil5" points="3931.2,1239.63 3931.2,1122.6 3964.39,1122.6 3964.39,1170.63 4006.3,1122.6 4044.51,1122.6 4001.51,1170.63 4049.98,1239.63 4010.67,1239.63 3979.45,1195.07 3964.39,1211.48 3964.39,1239.63 "/>
   <path id="_19" class="fil5" d="M4167.32 1224.57c-12.15,11.78 -27.25,17.69 -45.28,17.69 -18.06,0 -33.09,-5.88 -45.09,-17.6 -12.03,-11.72 -18.03,-26.15 -18.03,-43.34 0,-17.03 6.09,-31.44 18.25,-43.22 12.16,-11.81 27.25,-17.69 45.28,-17.69 18.06,0 33.09,5.85 45.09,17.57 12.04,11.71 18.03,26.18 18.03,43.34 0,17.03 -6.09,31.44 -18.25,43.25zm-44.87 -10.94c9.19,0 16.53,-3.09 22.06,-9.28 5.53,-6.19 8.32,-13.84 8.32,-23.03 0,-8.88 -2.88,-16.47 -8.63,-22.81 -5.75,-6.35 -13.16,-9.5 -22.16,-9.5 -9.18,0 -16.53,3.09 -22.06,9.28 -5.53,6.18 -8.31,13.87 -8.31,23.03 0,8.87 2.87,16.5 8.62,22.81 5.75,6.34 13.16,9.5 22.16,9.5z"/>
   <polygon id="_20" class="fil5" points="4209.57,1239.63 4209.57,1122.6 4243.2,1122.6 4274.89,1171.73 4306.98,1122.6 4340.6,1122.6 4340.6,1239.63 4306.98,1239.63 4306.98,1169.32 4274.45,1217.35 4242.32,1169.98 4242.32,1239.63 "/>
   <polygon id="_21" class="fil5" points="4476.63,1122.6 4476.63,1239.63 4443.45,1239.63 4443.45,1150.98 4403.48,1150.98 4403.48,1239.63 4370.29,1239.63 4370.29,1122.6 "/>
   <path id="_22" class="fil5" d="M4539.51 1241.82c-11.5,0 -21.06,-3.22 -28.72,-9.63 -7.63,-6.4 -11.47,-15.28 -11.47,-26.62 0,-12.38 4.28,-21.69 12.78,-27.97 8.53,-6.25 19.97,-9.38 34.41,-9.38 9.75,0 19.28,1.6 28.59,4.82l0 -1.97c0,-14.28 -8.37,-21.41 -25.12,-21.41 -10.04,0 -20.82,2.13 -32.32,6.35l-8.28 -25.35c14.25,-6.25 29.41,-9.37 45.41,-9.37 17.62,0 30.78,4.34 39.53,13.09 8.44,8.44 12.66,20.88 12.66,37.34l0 67.91 -32.1 0 0 -12.66c-8.87,9.88 -20.68,14.85 -35.37,14.85l0 0zm10.03 -22.94c7.72,0 14,-1.94 18.78,-5.78 4.81,-3.88 7.22,-8.78 7.22,-14.75l0 -5.88c-6.25,-2.93 -13.31,-4.37 -21.19,-4.37 -7.28,0 -12.91,1.41 -16.91,4.25 -4,2.84 -6.03,6.94 -6.03,12.34 0,4.38 1.69,7.82 5.04,10.38 3.34,2.53 7.71,3.81 13.09,3.81z"/>
   <polygon id="_23" class="fil5" points="4742.79,1122.6 4742.79,1239.63 4709.6,1239.63 4709.6,1194.85 4668.76,1194.85 4668.76,1239.63 4635.57,1239.63 4635.57,1122.6 4668.76,1122.6 4668.76,1167.57 4709.6,1167.57 4709.6,1122.6 "/>
   <polygon id="_24" class="fil5" points="4881.44,1122.6 4881.44,1239.63 4849.35,1239.63 4849.35,1171.51 4803.69,1239.63 4772.47,1239.63 4772.47,1122.6 4804.57,1122.6 4804.57,1190.94 4850.22,1122.6 "/>
   <path id="_25" class="fil5" d="M5014.85 1122.6l0 117.03 -33.19 0 0 -37.56 -17.91 0 -24.65 37.56 -38.44 0 29.9 -43.03c-16.31,-6.25 -24.46,-17.91 -24.46,-34.94 0,-11.93 4.15,-21.4 12.46,-28.47 8.29,-7.06 19.94,-10.59 34.94,-10.59l61.34 0 0.01 0zm-55.69 55.44l22.5 0 0 -29.47 -22.72 0c-6.09,0 -10.84,1.28 -14.19,3.81 -3.34,2.56 -5.03,6.22 -5.03,11.03 0,4.66 1.72,8.28 5.16,10.82 3.4,2.56 8.19,3.81 14.28,3.81l0 0z"/>
  </g>
 </g>
</svg>
