<svg xmlns="http://www.w3.org/2000/svg" width="20" height="20" viewBox="0 0 20 20"><g><g><path fill="#d4d4d4" d="M10.21.475C15.59.475 20 4.827 20 10.209c0 5.381-4.409 9.79-9.79 9.79C4.826 20 .475 15.59.475 10.21A9.726 9.726 0 0 1 10.209.475zm-8.704 9.734c0 4.866 3.894 8.76 8.703 8.76a8.724 8.724 0 0 0 8.76-8.76c0-4.81-3.893-8.703-8.76-8.703a8.699 8.699 0 0 0-8.703 8.703zm8.703-7.844c4.352 0 7.902 3.55 7.902 7.844 0 4.351-3.55 7.9-7.902 7.9-4.294 0-7.844-3.549-7.844-7.9 0-4.294 3.55-7.844 7.844-7.844zm-.63 6.813l-2.06-1.66-.516.63 2.061 1.66c0 .114-.057.286-.057.4 0 .688.572 1.26 1.202 1.26h.115l1.374 3.379.687-.287-1.374-3.435c.286-.23.458-.515.458-.916 0-.63-.573-1.203-1.26-1.203-.229 0-.458.058-.63.172zm1.088 1.03c0 .287-.171.459-.458.459-.229 0-.4-.172-.4-.458 0-.23.171-.401.4-.401.287 0 .458.172.458.4zm6.585-.343h-1.775v.745h1.775zm-6.642 7.386v-1.774h-.744v1.774zM9.866 3.223v1.718h.744V3.223zM3.224 10.61h1.718v-.745H3.224z"/></g></g></svg>