<svg width="20" height="20" viewBox="0 0 20 20" fill="none" xmlns="http://www.w3.org/2000/svg">
<path fill-rule="evenodd" clip-rule="evenodd" d="M7.91685 1.6665C7.54479 1.6665 7.2178 1.91315 7.11558 2.2709L6.48191 4.48877L4.2847 4.17488C3.91169 4.12159 3.54933 4.32524 3.4009 4.67157L2.1509 7.58824C2.01667 7.90144 2.08665 8.26481 2.3276 8.50576L3.82168 9.99984L2.3276 11.4939C2.06187 11.7596 2.00687 12.1703 2.19332 12.4966L3.85998 15.4133C4.03305 15.7162 4.37644 15.8792 4.72052 15.8218L6.48664 15.5275L7.11558 17.7288C7.2178 18.0865 7.54479 18.3332 7.91685 18.3332H12.0835C12.4556 18.3332 12.7826 18.0865 12.8848 17.7288L13.5137 15.5275L15.2799 15.8218C15.6239 15.8792 15.9673 15.7162 16.1404 15.4133L17.8071 12.4966C17.9935 12.1703 17.9385 11.7596 17.6728 11.4939L16.1787 9.99984L17.6728 8.50576C17.9137 8.26481 17.9837 7.90144 17.8495 7.58824L16.5995 4.67157C16.451 4.32524 16.0887 4.12159 15.7157 4.17488L13.5185 4.48877L12.8848 2.2709C12.7826 1.91315 12.4556 1.6665 12.0835 1.6665H7.91685ZM7.88479 5.64544L8.54544 3.33317H11.4549L12.1156 5.64544C12.23 6.04586 12.6224 6.30036 13.0347 6.24146L15.3191 5.91511L16.0953 7.72619L14.4109 9.41058C14.0855 9.73602 14.0855 10.2637 14.4109 10.5891L16.0442 12.2224L14.9813 14.0824L13.0539 13.7612C12.6358 13.6915 12.232 13.9467 12.1156 14.3542L11.4549 16.6665H8.54544L7.88479 14.3542C7.76835 13.9467 7.36458 13.6915 6.94652 13.7612L5.01907 14.0824L3.95618 12.2224L5.58944 10.5891C5.91488 10.2637 5.91488 9.73602 5.58944 9.41058L3.90505 7.72619L4.68123 5.91511L6.96567 6.24146C7.37793 6.30036 7.77038 6.04586 7.88479 5.64544ZM10.0002 11.6665C9.07971 11.6665 8.33352 10.9203 8.33352 9.99984C8.33352 9.07936 9.07971 8.33317 10.0002 8.33317C10.9207 8.33317 11.6669 9.07936 11.6669 9.99984C11.6669 10.9203 10.9207 11.6665 10.0002 11.6665ZM6.66685 9.99984C6.66685 8.15889 8.15924 6.6665 10.0002 6.6665C11.8411 6.6665 13.3335 8.15889 13.3335 9.99984C13.3335 11.8408 11.8411 13.3332 10.0002 13.3332C8.15924 13.3332 6.66685 11.8408 6.66685 9.99984Z" fill="#5B5B5B"/>
</svg>
