<svg width="20" height="20" viewBox="0 0 20 20" fill="none" xmlns="http://www.w3.org/2000/svg">
<path fill-rule="evenodd" clip-rule="evenodd" d="M17.4998 7.9165C17.4998 6.66914 16.6964 5.10397 15.4165 4.99984L14.6852 3.27927C14.2244 1.99536 12.7342 1.33668 11.4088 1.83116L3.44625 4.80208C3.36671 4.83175 3.29466 4.87179 3.23111 4.91994C2.3138 5.27307 1.6665 6.49865 1.6665 7.49984V15.8332C1.6665 17.1497 2.78579 18.3332 4.1665 18.3332C4.1665 18.3332 13.6191 18.3332 14.9998 18.3332C16.3805 18.3332 17.4998 17.1497 17.4998 15.8332L17.4998 14.1665C17.998 13.8917 18.3332 13.0881 18.3332 12.4998V10.8332C18.3332 10.2449 17.998 9.44128 17.4998 9.1665V7.9165ZM15.8332 9.1665V7.49984C15.8332 7.06099 15.4601 6.6665 14.9998 6.6665H4.1665C3.70627 6.6665 3.33317 7.06099 3.33317 7.49984L3.33317 15.8332C3.33317 16.272 3.70627 16.6665 4.1665 16.6665H14.9998C15.4601 16.6665 15.8332 16.272 15.8332 15.8332V14.1665H14.9998C13.6191 14.1665 12.4998 12.983 12.4998 11.6665C12.4998 10.35 13.6191 9.1665 14.9998 9.1665H15.8332ZM13.1083 3.7938L13.7029 4.99984H7.9165L12.0162 3.3111C12.4579 3.14627 12.9547 3.36583 13.1083 3.7938ZM14.1665 11.6665C14.1665 11.2277 14.5396 10.8332 14.9998 10.8332H16.6665V12.4998H14.9998C14.5396 12.4998 14.1665 12.1054 14.1665 11.6665Z" fill="#5B5B5B"/>
</svg>
