<svg width="20" height="20" viewBox="0 0 20 20" fill="none" xmlns="http://www.w3.org/2000/svg">
<path fill-rule="evenodd" clip-rule="evenodd" d="M13.5438 9.71527C13.2407 10.0616 12.7143 10.0967 12.3679 9.79366C12.0215 9.49059 11.9864 8.96413 12.2895 8.61776L13.9969 6.66652L5.83333 6.66652C5.3731 6.66652 5 6.29342 5 5.83318C5 5.37294 5.3731 4.99985 5.83333 4.99985L13.9969 4.99985L12.2895 3.0486C11.9864 2.70224 12.0215 2.17577 12.3679 1.8727C12.7143 1.56963 13.2407 1.60473 13.5438 1.95109L16.4605 5.28443C16.7354 5.59862 16.7354 6.06775 16.4605 6.38194L13.5438 9.71527Z" fill="#7B7B7B"/>
<path fill-rule="evenodd" clip-rule="evenodd" d="M6.45619 18.0488C6.75926 18.3951 7.28573 18.4302 7.63209 18.1272C7.97845 17.8241 8.01355 17.2976 7.71048 16.9513L6.00314 15L14.1667 15C14.6269 15 15 14.6269 15 14.1667C15 13.7064 14.6269 13.3333 14.1667 13.3333L6.00314 13.3333L7.71048 11.3821C8.01355 11.0357 7.97845 10.5093 7.63209 10.2062C7.28573 9.90313 6.75926 9.93823 6.45619 10.2846L3.53952 13.6179C3.2646 13.9321 3.2646 14.4012 3.53952 14.7154L6.45619 18.0488Z" fill="#7B7B7B"/>
</svg>
