<svg width="20" height="20" viewBox="0 0 20 20" fill="none" xmlns="http://www.w3.org/2000/svg">
<path fill-rule="evenodd" clip-rule="evenodd" d="M9.99988 1.6665C10.6008 1.6665 11.1552 1.99001 11.4509 2.51319L13.4803 6.10444L16.9866 6.79039C17.5974 6.90989 18.0907 7.35978 18.2659 7.95701C18.441 8.55426 18.2688 9.19933 17.8193 9.6298L15.1525 12.1835L15.7694 16.4267C15.8589 17.0422 15.5982 17.6564 15.0933 18.0196C14.5883 18.3827 13.9231 18.4345 13.3681 18.1538L9.99988 16.4508L6.63171 18.1538C6.07664 18.4345 5.41146 18.3827 4.9065 18.0196C4.40155 17.6564 4.14084 17.0422 4.23033 16.4267L4.84725 12.1835L2.18049 9.6298C1.73097 9.19933 1.55876 8.55425 1.73391 7.95701C1.90907 7.35978 2.4024 6.90989 3.01322 6.79039L6.51942 6.10444L8.54888 2.51319C8.84454 1.99001 9.39894 1.6665 9.99988 1.6665ZM7.59276 7.59272L3.33322 8.42605L6.62011 11.5736L5.87966 16.6665L9.99988 14.5832L14.1201 16.6665L13.3797 11.5736L16.6666 8.42605L12.407 7.59272L9.99988 3.33317L7.59276 7.59272Z" fill="#5B5B5B"/>
</svg>
