<svg width="20" height="20" viewBox="0 0 20 20" fill="none" xmlns="http://www.w3.org/2000/svg">
<path fill-rule="evenodd" clip-rule="evenodd" d="M10 1.6665C9.07953 1.6665 8.33333 2.4127 8.33333 3.33317V3.61768C6.39135 4.30407 5 6.15614 5 8.33317V9.58317L5 11.3329L3.65211 13.1862C3.2834 13.6932 3.23035 14.3642 3.51481 14.9228C3.79927 15.4814 4.37313 15.8332 5 15.8332H7.5C7.5 17.2139 8.61929 18.3332 10 18.3332C11.3807 18.3332 12.5 17.2139 12.5 15.8332H15C15.6269 15.8332 16.2007 15.4814 16.4852 14.9228C16.7697 14.3642 16.7166 13.6932 16.3479 13.1862L15 11.3329L15 9.58317V8.33317C15 6.15614 13.6087 4.30407 11.6667 3.61768V3.33317C11.6667 2.4127 10.9205 1.6665 10 1.6665ZM10.8343 14.1665H10.8333H9.16667H7.06083H5L6.21212 12.4998L6.34789 12.3132C6.55507 12.0283 6.66667 11.6851 6.66667 11.3329V9.58317V8.33317C6.66667 6.49222 8.15905 4.99984 10 4.99984C11.8409 4.99984 13.3333 6.49222 13.3333 8.33317L13.3333 9.58317V11.3329C13.3333 11.6851 13.4449 12.0283 13.6521 12.3132L13.7879 12.4998L15 14.1665H12.9392H10.8343ZM10 16.6665C9.53976 16.6665 9.16667 16.2934 9.16667 15.8332H10.8333C10.8333 16.2934 10.4602 16.6665 10 16.6665ZM14.2263 3.02368C14.3972 2.59636 14.8822 2.38851 15.3095 2.55944L15 3.33317C15.3095 2.55944 15.31 2.55965 15.3106 2.55987L15.3117 2.56031L15.314 2.56125L15.3191 2.56335L15.3313 2.56844C15.3402 2.57224 15.3507 2.57685 15.3628 2.58232C15.3869 2.59326 15.4172 2.60768 15.4527 2.62595C15.5237 2.66246 15.6162 2.71464 15.7227 2.78563C15.9356 2.92756 16.2067 3.14615 16.4735 3.46635C17.0183 4.12003 17.5 5.14339 17.5 6.6665C17.5 7.12674 17.1269 7.49984 16.6667 7.49984C16.2064 7.49984 15.8333 7.12674 15.8333 6.6665C15.8333 5.52295 15.4817 4.87964 15.1931 4.53332C15.0433 4.35353 14.8978 4.23878 14.7982 4.17238C14.7484 4.13921 14.7106 4.11846 14.6905 4.1081C14.6836 4.10455 14.6788 4.10225 14.6764 4.10112C14.2586 3.92526 14.0572 3.44628 14.2263 3.02368ZM4.69051 2.55944C5.11783 2.38851 5.6028 2.59636 5.77373 3.02368C5.94277 3.44628 5.74136 3.92526 5.32358 4.10112C5.32118 4.10225 5.31641 4.10455 5.30951 4.1081C5.28935 4.11846 5.25159 4.13921 5.20183 4.17238C5.10224 4.23878 4.95668 4.35353 4.80685 4.53332C4.51825 4.87964 4.16667 5.52295 4.16667 6.6665C4.16667 7.12674 3.79357 7.49984 3.33333 7.49984C2.8731 7.49984 2.5 7.12674 2.5 6.6665C2.5 5.14339 2.98175 4.12003 3.52648 3.46635C3.79332 3.14615 4.06443 2.92756 4.27733 2.78563C4.38382 2.71464 4.47627 2.66246 4.54726 2.62595C4.58279 2.60768 4.61308 2.59326 4.63721 2.58232C4.64928 2.57685 4.65983 2.57224 4.66874 2.56844L4.68089 2.56335L4.68602 2.56125L4.68834 2.56031L4.68945 2.55987C4.68998 2.55965 4.69051 2.55944 5 3.33317L4.69051 2.55944Z" fill="#5B5B5B"/>
</svg>
