<svg width="20" height="20" viewBox="0 0 20 20" fill="none" xmlns="http://www.w3.org/2000/svg">
<path fill-rule="evenodd" clip-rule="evenodd" d="M15 18.3332L5 18.3332C3.61929 18.3332 2.5 17.2139 2.5 15.8332V4.1665C2.5 2.78579 3.61929 1.6665 5 1.6665H10H12.5347C13.2622 1.6665 13.9536 1.9834 14.4286 2.53451L15.4974 3.77484L16.8709 5.32439C17.2762 5.78169 17.5 6.37159 17.5 6.98266L17.5 9.99984V15.8332C17.5 17.2139 16.3807 18.3332 15 18.3332ZM14.2424 4.87163L13.3333 3.81669V5.83317H15.0947L14.2424 4.87163ZM11.6667 6.6665V3.33317L10 3.33317L5 3.33317C4.53976 3.33317 4.16667 3.70627 4.16667 4.1665L4.16667 15.8332C4.16667 16.2934 4.53976 16.6665 5 16.6665L15 16.6665C15.4602 16.6665 15.8333 16.2934 15.8333 15.8332L15.8333 9.99984V7.49984H12.5C12.0398 7.49984 11.6667 7.12674 11.6667 6.6665ZM12.7308 10.5244C13.0206 10.1668 12.9655 9.64207 12.6079 9.35234C12.2503 9.06262 11.7256 9.11765 11.4358 9.47525L9.35654 12.0417L8.54238 11.1161C8.2384 10.7705 7.71184 10.7368 7.36627 11.0408C7.0207 11.3448 6.98698 11.8713 7.29096 12.2169L8.75701 13.8836C8.91911 14.0679 9.15421 14.1713 9.3996 14.1663C9.64499 14.1614 9.8757 14.0485 10.0302 13.8578L12.7308 10.5244Z" fill="#5B5B5B"/>
</svg>
