<svg width="20" height="20" viewBox="0 0 20 20" fill="none" xmlns="http://www.w3.org/2000/svg">
<path fill-rule="evenodd" clip-rule="evenodd" d="M4.99984 7.5H6.6665H8.33317L11.6665 7.5H13.3332L14.9998 7.5H16.6665V9.16667L13.3332 9.16667H6.6665H3.33317L3.33317 7.5H4.99984ZM12.4998 10.8333V11.6667C12.4998 12.1269 12.8729 12.5 13.3332 12.5C13.7934 12.5 14.1665 12.1269 14.1665 11.6667V10.8333L16.6665 10.8333V14.1667V15.8333H14.9998L4.99984 15.8333H3.33317L3.33317 14.1667L3.33317 10.8333L5.83317 10.8333V11.6667C5.83317 12.1269 6.20627 12.5 6.6665 12.5C7.12674 12.5 7.49984 12.1269 7.49984 11.6667V10.8333L12.4998 10.8333ZM16.6665 5.83333L13.3332 5.83333V5C13.3332 3.61929 12.2139 2.5 10.8332 2.5H9.1665C7.78579 2.5 6.6665 3.61929 6.6665 5V5.83333H3.33317C2.41269 5.83333 1.6665 6.57953 1.6665 7.5V15.8333C1.6665 16.7538 2.4127 17.5 3.33317 17.5L16.6665 17.5C17.587 17.5 18.3332 16.7538 18.3332 15.8333V7.5C18.3332 6.57952 17.587 5.83333 16.6665 5.83333ZM10.8332 5.83333H11.6665V5C11.6665 4.53996 11.2937 4.16698 10.8338 4.16667L10.8332 4.16667L9.1665 4.16667L9.16592 4.16667C8.70595 4.16698 8.33317 4.53996 8.33317 5V5.83333H9.1665L9.99984 5.83333H10.8332Z" fill="#5B5B5B"/>
</svg>
