<svg width="20" height="20" viewBox="0 0 20 20" fill="none" xmlns="http://www.w3.org/2000/svg">
<path fill-rule="evenodd" clip-rule="evenodd" d="M5 18.3332L15 18.3332C16.3807 18.3332 17.5 17.2139 17.5 15.8332V9.99984L17.5 6.98266C17.5 6.37159 17.2762 5.78169 16.8709 5.32439L15.4974 3.77484L14.4286 2.53451C13.9536 1.9834 13.2622 1.6665 12.5347 1.6665H10H5C3.61929 1.6665 2.5 2.78579 2.5 4.1665V15.8332C2.5 17.2139 3.61929 18.3332 5 18.3332ZM13.3333 3.81669L14.2424 4.87163L15.0947 5.83317H13.3333V3.81669ZM11.6667 3.33317V6.6665C11.6667 7.12674 12.0398 7.49984 12.5 7.49984H15.8333V9.99984L15.8333 15.8332C15.8333 16.2934 15.4602 16.6665 15 16.6665L5 16.6665C4.53976 16.6665 4.16667 16.2934 4.16667 15.8332L4.16667 4.1665C4.16667 3.70627 4.53976 3.33317 5 3.33317L10 3.33317L11.6667 3.33317Z" fill="#5B5B5B"/>
</svg>
