<svg width="18" height="18" viewBox="0 0 18 18" fill="none" xmlns="http://www.w3.org/2000/svg">
<path fill-rule="evenodd" clip-rule="evenodd" d="M3.1665 0.666504H14.8332C16.2139 0.666504 17.3332 1.78579 17.3332 3.1665V14.8332C17.3332 16.2139 16.2139 17.3332 14.8332 17.3332H3.1665C1.78579 17.3332 0.666504 16.2139 0.666504 14.8332V3.1665C0.666504 1.78579 1.78579 0.666504 3.1665 0.666504ZM3.1665 2.33317C2.70627 2.33317 2.33317 2.70627 2.33317 3.1665V14.8332C2.33317 15.2934 2.70627 15.6665 3.1665 15.6665H14.8332C15.2934 15.6665 15.6665 15.2934 15.6665 14.8332V3.1665C15.6665 2.70627 15.2934 2.33317 14.8332 2.33317H3.1665ZM9.00022 4.63097C9.46045 4.63097 9.83355 5.00407 9.83355 5.4643V8.16651H12.5354C12.9956 8.16651 13.3687 8.5396 13.3687 8.99984C13.3687 9.46008 12.9956 9.83317 12.5354 9.83317H9.83355V12.5354C9.83355 12.9956 9.46045 13.3687 9.00022 13.3687C8.53998 13.3687 8.16688 12.9956 8.16688 12.5354V9.83317H5.4643C5.00407 9.83317 4.63097 9.46008 4.63097 8.99984C4.63097 8.5396 5.00407 8.16651 5.4643 8.16651H8.16688V5.4643C8.16688 5.00407 8.53998 4.63097 9.00022 4.63097Z" fill="#5B5B5B"/>
</svg>
