<svg width="20" height="20" viewBox="0 0 20 20" fill="none" xmlns="http://www.w3.org/2000/svg">
<path fill-rule="evenodd" clip-rule="evenodd" d="M3.33317 2.5C2.4127 2.5 1.6665 3.24619 1.6665 4.16667V13.3333C1.6665 14.2538 2.4127 15 3.33317 15H7.49984L6.1665 16C5.79831 16.2761 5.72369 16.7985 5.99984 17.1667C6.27598 17.5349 6.79831 17.6095 7.1665 17.3333L9.99984 15.2083L12.8332 17.3333C13.2014 17.6095 13.7237 17.5349 13.9998 17.1667C14.276 16.7985 14.2014 16.2761 13.8332 16L12.4998 15H16.6665C17.587 15 18.3332 14.2538 18.3332 13.3333V4.16667C18.3332 3.24619 17.587 2.5 16.6665 2.5H3.33317ZM9.99142 13.3333H10.0095H14.9998H16.6665V11.6667V5.83333V4.16667H14.9998H4.99984H3.33317V5.83333V11.6667V13.3333H4.99984H9.99014H9.99142ZM13.633 9.39018C13.9866 9.68482 14.5121 9.63705 14.8067 9.28349C15.1013 8.92992 15.0536 8.40445 14.7 8.10982L12.2 6.02648C12.0044 5.8635 11.7451 5.79886 11.4959 5.85099C11.2467 5.90311 11.035 6.06628 10.9211 6.29399L9.30836 9.51957L7.61666 8.10982C7.42969 7.95401 7.18394 7.88772 6.94398 7.92837C6.70401 7.96903 6.49381 8.11255 6.36859 8.32125L5.11859 10.4046C4.8818 10.7992 5.00977 11.3111 5.40442 11.5479C5.79907 11.7847 6.31096 11.6567 6.54775 11.2621L7.29715 10.0131L9.04968 11.4735C9.24526 11.6365 9.5046 11.7011 9.75379 11.649C10.003 11.5969 10.2147 11.4337 10.3285 11.206L11.9413 7.98043L13.633 9.39018Z" fill="#5B5B5B"/>
</svg>
