<svg xmlns="http://www.w3.org/2000/svg" width="460" height="90" viewBox="0 0 460 90"><g><g><path fill="#ffac63" d="M22.647 25.526h9.237V63.66h-9.237zm32.895 0h7.886V63.66h-9.29l-7.94-24.847V63.66h-7.779V25.526h9.129l7.994 24.739zm36.514 2.214c1.62 1.477 2.43 3.835 2.43 7.076v19.662c0 3.601-.828 6.032-2.485 7.292-1.656 1.26-4.231 1.89-7.724 1.89H69.963V25.526h14.854c3.205 0 5.618.738 7.239 2.214zm-6.86 7.832c0-1.26-.262-2.15-.784-2.674-.522-.52-1.413-.783-2.673-.783H78.93v24.956h2.863c1.26 0 2.142-.225 2.646-.676.504-.45.757-1.305.757-2.565zm29.87-10.046h9.236v27.44c0 1.836-.136 3.367-.406 4.59-.27 1.225-.801 2.386-1.593 3.485-.792 1.098-1.998 1.91-3.619 2.43-1.62.522-3.673.783-6.158.783-4.573 0-7.76-.855-9.56-2.566-1.801-1.709-2.7-4.24-2.7-7.588V25.526h9.182v28.736c0 2.268.972 3.403 2.916 3.403 1.008 0 1.71-.288 2.107-.864.396-.576.594-1.423.594-2.54zm37.08 22.362c.63 1.153.945 3.025.945 5.618 0 .792-.027 1.494-.08 2.106-.055.613-.172 1.315-.352 2.107-.18.792-.432 1.467-.756 2.025-.324.559-.783 1.135-1.377 1.729a7.25 7.25 0 0 1-2.134 1.458c-.829.378-1.873.684-3.133.918-1.26.234-2.665.35-4.213.35-5.69 0-9.327-1.42-10.91-4.266-.685-1.296-1.027-3.366-1.027-6.212v-2.268h9.128v3.025c0 2.017.9 3.024 2.701 3.024 1.945 0 2.917-.881 2.917-2.646 0-1.548-.162-2.583-.486-3.106-.324-.522-1.315-1.377-2.971-2.566l-5.51-3.997c-.18-.144-.522-.387-1.026-.73a45.398 45.398 0 0 1-1.053-.728 15.362 15.362 0 0 1-.891-.73c-.397-.341-.667-.639-.81-.89a66.46 66.46 0 0 0-.622-1.054c-.27-.45-.45-.91-.54-1.377-.09-.468-.18-1.026-.27-1.675a15.72 15.72 0 0 1-.135-2.16c0-4.07.855-6.923 2.565-8.562 1.71-1.638 4.816-2.458 9.318-2.458 1.98 0 3.655.18 5.024.54 1.368.361 2.421.811 3.16 1.35.737.541 1.304 1.307 1.701 2.297.396.99.639 1.917.73 2.782.088.864.134 2.017.134 3.456v1.999h-8.697v-2.701c0-1.116-.161-1.926-.485-2.43-.325-.505-1.027-.756-2.107-.756-1.512 0-2.269.936-2.269 2.808v1.404c0 1.262.576 2.288 1.729 3.08l7.832 5.455c2.016 1.369 3.34 2.63 3.97 3.78zm2.511-22.362h24.523v6.644h-7.616v31.49h-9.345V32.17h-7.562zM205.485 59.5c0 1.801.432 3.187 1.296 4.16h-8.48c-.757-1.19-1.135-3.08-1.135-5.672V51.83c0-1.908-.235-3.123-.702-3.646-.468-.522-1.674-.783-3.619-.783h-1.674V63.66h-8.643V25.526h13.018c3.42 0 5.851.594 7.292 1.782 1.728 1.405 2.593 4.07 2.593 7.994 0 2.486-.343 4.26-1.027 5.32-.684 1.064-1.944 2.099-3.78 3.107 1.908.54 3.167 1.206 3.78 1.998.468.577.765 1.262.892 2.053.125.792.189 1.998.189 3.62zm-8.319-23.442c0-1.729-.207-2.818-.62-3.268-.415-.45-1.27-.676-2.567-.676h-2.808v8.75h2.863c1.404 0 2.276-.314 2.62-.945.341-.629.512-1.917.512-3.861zm28.305-10.533h9.236l-9.506 24.739V63.66h-9.02V50.265l-9.076-24.74h9.075l4.646 16.854zm75.944 38.134H281.7V25.526h19.715v6.698h-10.48v8.804h9.886v6.697h-9.885v9.183h10.479zm9.074-20.201l-6.86-17.933h9.29l3.782 12.262 3.672-12.262h9.183l-6.752 17.933 6.752 20.201h-9.398L316.7 49.076 313.19 63.66h-9.291zm32.084 20.201h-9.183V25.526h16.42c3.061 0 5.14.684 6.24 2.052 1.097 1.369 1.647 3.24 1.647 5.618v9.074c0 2.738-.694 4.664-2.08 5.78-1.386 1.116-3.304 1.674-5.752 1.674h-7.292zm0-20.634h3.457c.936 0 1.638-.18 2.106-.54.468-.36.738-.747.81-1.161.072-.413.109-1.053.109-1.918v-4.861c0-1.007-.253-1.682-.757-2.026-.505-.34-1.279-.513-2.322-.513h-3.403zm39.862 20.634H362.72V25.526h19.715v6.698h-10.479v8.804h9.885v6.697h-9.885v9.183h10.48zm13.612 0h-8.642V25.526h13.017c3.421 0 5.852.594 7.292 1.782 1.729 1.405 2.593 4.07 2.593 7.994 0 2.486-.343 4.26-1.026 5.32-.684 1.064-1.945 2.099-3.781 3.107 1.908.54 3.168 1.206 3.78 1.998.468.577.765 1.262.892 2.053.126.792.19 1.998.19 3.62V59.5c0 1.801.431 3.187 1.296 4.16h-8.48c-.757-1.19-1.135-3.08-1.135-5.672V51.83c0-1.908-.235-3.123-.702-3.646-.468-.522-1.675-.783-3.62-.783h-1.674zm0-22.794h2.863c1.404 0 2.277-.315 2.62-.946.341-.629.513-1.917.513-3.861 0-1.729-.208-2.818-.621-3.268-.415-.45-1.27-.676-2.566-.676h-2.809zm23.983-8.696h-7.562v-6.644h24.523v6.644h-7.617v31.49h-9.344zM460 0v89.999H0v-90zM253 81.998v-74H8v74zm199-74H261v74h191z"/></g></g></svg>