<svg xmlns="http://www.w3.org/2000/svg" width="239" height="46" viewBox="0 0 239 46"><g><g><path fill="#fff" d="M13.892 13.424h4.767v19.683h-4.767zm16.978 0h4.07v19.683h-4.795l-4.098-12.824v12.824h-4.015V13.424h4.712l4.126 12.77zm18.846 1.143c.836.763 1.254 1.98 1.254 3.652v10.149c0 1.859-.427 3.112-1.282 3.763-.855.65-2.184.976-3.987.976h-7.388V13.424h7.667c1.654 0 2.9.382 3.736 1.143zm-3.541 4.043c0-.65-.135-1.11-.404-1.38-.27-.27-.73-.404-1.38-.404h-1.45v12.88h1.478c.65 0 1.105-.116 1.366-.35.26-.231.39-.672.39-1.323zm15.417-5.186h4.767v14.163c0 .948-.07 1.738-.21 2.37a4.847 4.847 0 0 1-.821 1.798c-.41.567-1.032.985-1.869 1.255-.836.269-1.895.404-3.178.404-2.36 0-4.005-.442-4.934-1.325-.93-.882-1.394-2.188-1.394-3.917V13.424h4.74v14.832c0 1.171.501 1.756 1.505 1.756.52 0 .882-.148 1.087-.446.204-.297.307-.734.307-1.31zM80.73 24.966c.326.595.488 1.562.488 2.9 0 .408-.014.77-.041 1.087a8.207 8.207 0 0 1-.182 1.087 3.72 3.72 0 0 1-.39 1.045 4.45 4.45 0 0 1-.71.893 3.749 3.749 0 0 1-1.102.753c-.428.194-.967.353-1.617.473s-1.376.182-2.175.182c-2.936 0-4.814-.734-5.631-2.202-.353-.67-.53-1.738-.53-3.207v-1.17h4.712v1.56c0 1.042.464 1.562 1.394 1.562 1.003 0 1.505-.455 1.505-1.366 0-.8-.084-1.334-.25-1.603-.168-.27-.68-.711-1.534-1.324l-2.844-2.064c-.093-.074-.27-.199-.53-.376-.26-.176-.441-.301-.543-.377a7.567 7.567 0 0 1-.46-.376c-.205-.176-.344-.33-.418-.46-.075-.13-.182-.31-.321-.544a2.169 2.169 0 0 1-.279-.71c-.046-.242-.093-.53-.14-.865a8.111 8.111 0 0 1-.069-1.115c0-2.1.441-3.573 1.324-4.418.883-.846 2.486-1.27 4.81-1.27 1.021 0 1.886.094 2.592.28.707.185 1.25.418 1.631.697.38.278.674.673.878 1.184.205.512.33.99.377 1.436.046.446.07 1.042.07 1.784v1.032h-4.49V18.08c0-.575-.083-.993-.25-1.254-.167-.26-.53-.39-1.087-.39-.781 0-1.171.483-1.171 1.45v.724c0 .65.297 1.18.892 1.589l4.042 2.816c1.041.706 1.724 1.357 2.05 1.951zm1.296-11.542h12.658v3.43h-3.931v16.253h-4.824V16.853h-3.903zm26.234 17.537c0 .93.224 1.644.67 2.146h-4.377c-.39-.614-.586-1.589-.586-2.928v-3.178c0-.985-.121-1.611-.362-1.882-.242-.269-.864-.404-1.868-.404h-.864v8.392h-4.461V13.424h6.719c1.765 0 3.02.307 3.763.92.892.725 1.339 2.1 1.339 4.126 0 1.283-.177 2.198-.53 2.746-.353.549-1.004 1.083-1.952 1.603.985.28 1.635.624 1.952 1.032.241.298.394.65.46 1.06.065.408.097 1.031.097 1.867zm-4.293-12.1c0-.893-.107-1.454-.32-1.687-.214-.232-.656-.348-1.325-.348h-1.45v4.516h1.478c.725 0 1.175-.163 1.352-.488.177-.325.265-.99.265-1.993zm14.609-5.437h4.767l-4.906 12.77v6.913h-4.656v-6.914l-4.684-12.769h4.684l2.397 8.698zm38.197 19.683h-10.175V13.424h10.175v3.458h-5.408v4.544h5.102v3.457h-5.102v4.74h5.408zm4.684-10.427l-3.54-9.256h4.794l1.952 6.33 1.896-6.33h4.74l-3.486 9.256 3.485 10.427h-4.85l-1.785-7.527-1.812 7.527h-4.795zm16.56 10.427h-4.74V13.424h8.475c1.58 0 2.653.353 3.22 1.06.567.706.85 1.672.85 2.9v4.683c0 1.413-.357 2.407-1.073 2.983-.715.576-1.705.864-2.969.864h-3.764zm0-10.65h1.784c.483 0 .845-.093 1.087-.278.241-.186.38-.387.418-.6.037-.214.056-.544.056-.99V18.08c0-.52-.13-.869-.39-1.045-.26-.177-.66-.265-1.2-.265h-1.756zm20.574 10.65h-10.176V13.424h10.176v3.458h-5.409v4.544h5.102v3.457h-5.101v4.74h5.408zm7.026 0h-4.461V13.424h6.719c1.765 0 3.02.307 3.763.92.893.725 1.339 2.1 1.339 4.126 0 1.283-.177 2.198-.53 2.746-.353.549-1.004 1.083-1.952 1.603.985.28 1.636.624 1.952 1.032.241.298.395.65.46 1.06.065.408.098 1.031.098 1.867v4.183c0 .93.223 1.644.669 2.146h-4.377c-.39-.614-.586-1.589-.586-2.928v-3.178c0-.985-.121-1.612-.362-1.882-.242-.269-.864-.404-1.868-.404h-.864zm0-11.765h1.477c.725 0 1.175-.163 1.352-.488.177-.325.265-.99.265-1.993 0-.893-.107-1.454-.32-1.687-.214-.232-.656-.348-1.325-.348h-1.45zm12.378-4.489h-3.903v-3.429h12.657v3.43h-3.931v16.253h-4.823zM239 0v46H0V0zm-107 41V5H5v36zM234 5h-97v36h97z"/></g></g></svg>