<svg width="540" height="232" fill="none" xmlns="http://www.w3.org/2000/svg"><rect width="540" height="232" rx="40" fill="#313131"/><path d="M82.486 158.765v-17.022l60.257-95.187h13.414v25.056h-8.511l-43.1 68.224v1.09h82.591v17.839H82.486zM148.599 186v-32.41l.136-7.762V46.556h19.95V186h-20.086zm148.256-96.855c36.883 36.884 54.76 78.807 39.929 93.639-14.832 14.831-56.755-3.046-93.639-39.929-36.883-36.884-54.76-78.807-39.929-93.639 14.832-14.831 56.755 3.045 93.639 39.93zm55.631 69.62v-17.022l60.257-95.187h13.414v25.056h-8.511l-43.1 68.224v1.09h82.591v17.839H352.486zM418.599 186v-32.41l.136-7.762V46.556h19.95V186h-20.086z" fill="#F5F5F5"/></svg>