<svg width="531" height="232" fill="none" xmlns="http://www.w3.org/2000/svg"><rect width="531" height="232" rx="40" fill="#313131"/><path d="M131.441 187.906c-8.534 0-16.205-1.634-23.014-4.902-6.763-3.313-12.165-7.853-16.205-13.617-4.04-5.765-6.196-12.347-6.468-19.746h20.426c.499 5.992 3.155 10.917 7.966 14.775 4.812 3.858 10.577 5.788 17.295 5.788 5.356 0 10.099-1.226 14.23-3.677 4.176-2.497 7.444-5.924 9.805-10.281 2.406-4.358 3.608-9.328 3.608-14.912 0-5.674-1.225-10.735-3.676-15.183-2.451-4.449-5.833-7.944-10.145-10.486-4.267-2.542-9.17-3.835-14.707-3.881-4.222 0-8.466.726-12.733 2.179-4.267 1.453-7.716 3.359-10.349 5.719l-19.27-2.859 7.831-70.267h76.667v18.043h-59.168l-4.426 39.015h.817c2.723-2.633 6.332-4.835 10.826-6.605 4.539-1.77 9.396-2.655 14.571-2.655 8.488 0 16.046 2.02 22.673 6.06 6.673 4.039 11.915 9.555 15.728 16.545 3.859 6.945 5.765 14.934 5.72 23.967.045 9.033-1.998 17.09-6.128 24.171-4.085 7.081-9.759 12.664-17.022 16.75-7.217 4.04-15.502 6.059-24.852 6.059zm158.414-98.761c36.883 36.884 54.76 78.807 39.929 93.639-14.832 14.831-56.755-3.046-93.639-39.929-36.883-36.884-54.76-78.807-39.929-93.639 14.832-14.831 56.755 3.045 93.639 39.93zm107.105 99.17c-10.758-.045-19.95-2.882-27.576-8.511-7.625-5.629-13.458-13.822-17.498-24.58-4.04-10.758-6.06-23.717-6.06-38.878 0-15.115 2.02-28.03 6.06-38.742 4.085-10.712 9.941-18.883 17.566-24.512 7.672-5.628 16.841-8.442 27.508-8.442 10.667 0 19.814 2.837 27.439 8.51 7.626 5.63 13.459 13.8 17.499 24.512 4.085 10.667 6.128 23.559 6.128 38.674 0 15.206-2.02 28.188-6.06 38.946-4.04 10.713-9.873 18.906-17.498 24.58-7.626 5.629-16.796 8.443-27.508 8.443zm0-18.179c9.442 0 16.818-4.608 22.129-13.822 5.356-9.215 8.034-22.537 8.034-39.968 0-11.575-1.226-21.357-3.677-29.346-2.406-8.034-5.878-14.117-10.417-18.247-4.494-4.176-9.85-6.264-16.069-6.264-9.396 0-16.772 4.63-22.129 13.89-5.356 9.26-8.057 22.582-8.102 39.967 0 11.62 1.203 21.448 3.609 29.482 2.451 7.989 5.923 14.049 10.417 18.18 4.494 4.085 9.896 6.128 16.205 6.128z" fill="#F5F5F5"/></svg>