<svg width="172" height="33" fill="none" xmlns="http://www.w3.org/2000/svg"><path d="M48.82 30.515a19.52 19.52 0 01-3.349-.296 24.565 24.565 0 01-3.145-.721c-.963-.296-1.74-.592-2.332-.888l.352-4.053c.85.481 1.727.895 2.627 1.24.913.333 1.832.598 2.757.796.938.185 1.869.277 2.794.277 1.012 0 1.912-.13 2.702-.388.79-.272 1.406-.685 1.85-1.24.456-.568.685-1.295.685-2.183 0-.852-.253-1.555-.759-2.11-.493-.555-1.215-1.036-2.165-1.443-.95-.42-2.085-.827-3.405-1.221-1.653-.506-3.065-1.067-4.237-1.684-1.172-.63-2.066-1.413-2.683-2.35-.604-.938-.907-2.147-.907-3.627 0-1.43.327-2.708.981-3.83.666-1.123 1.653-1.998 2.96-2.628 1.32-.641 2.968-.962 4.941-.962.79 0 1.58.056 2.369.167a21 21 0 012.294.444c.74.173 1.413.376 2.017.61.604.235 1.129.475 1.573.722l-.389 4.034a12.396 12.396 0 00-2.405-1.258 14.175 14.175 0 00-2.498-.778 10.308 10.308 0 00-2.276-.277c-.9 0-1.727.13-2.48.389-.752.259-1.357.653-1.813 1.184-.456.518-.685 1.184-.685 1.998 0 .74.198 1.363.592 1.869.395.506 1.018.956 1.87 1.35.85.396 1.948.803 3.293 1.222 2.11.666 3.775 1.345 4.996 2.035 1.221.679 2.085 1.48 2.59 2.406.519.925.778 2.085.778 3.478 0 1.493-.334 2.82-1 3.979-.653 1.16-1.683 2.072-3.09 2.738-1.394.666-3.195 1-5.403 1zm24.362.019c-2.11 0-4.01-.333-5.7-1-1.69-.678-3.126-1.627-4.31-2.849-1.185-1.221-2.091-2.664-2.72-4.33-.63-1.665-.944-3.49-.944-5.477 0-2.652.543-5.008 1.628-7.068 1.086-2.06 2.615-3.676 4.589-4.848 1.974-1.172 4.299-1.758 6.976-1.758.863 0 1.708.062 2.535.185.826.111 1.61.272 2.35.481.752.198 1.45.42 2.09.666a11.37 11.37 0 011.684.76l-.37 4.107a18.368 18.368 0 00-2.775-1.406c-.9-.358-1.776-.617-2.628-.777a12.459 12.459 0 00-2.48-.26c-1.75 0-3.311.401-4.68 1.203-1.37.79-2.443 1.925-3.22 3.405-.777 1.48-1.166 3.25-1.166 5.31 0 1.37.198 2.659.592 3.868a9.459 9.459 0 001.814 3.182c.801.913 1.807 1.635 3.016 2.165 1.209.518 2.609.777 4.2.777.617 0 1.227-.037 1.832-.11a13.452 13.452 0 001.832-.39 10.2 10.2 0 001.813-.702 13.2 13.2 0 001.776-1.055l.297 4.07a12.47 12.47 0 01-1.74.833c-.629.235-1.289.426-1.98.574-.69.148-1.4.259-2.128.333-.727.074-1.455.111-2.183.111zm11.234-.444V3.704h9.363c2.06 0 3.787.24 5.181.721 1.394.47 2.442 1.24 3.146 2.313.703 1.061 1.054 2.492 1.054 4.293 0 1.468-.29 2.807-.869 4.015-.568 1.21-1.505 2.184-2.813 2.924-1.307.728-3.065 1.098-5.273 1.11l1.535-1.832 3.96 5.237 1.962 2.59c.69.913 1.363 1.808 2.016 2.684a289.91 289.91 0 011.758 2.33h-5.014a449.663 449.663 0 00-2.295-3.126 494.072 494.072 0 00-2.146-2.96l-4.607-6.329L94 19.932h-6.088v-3.535h4.793c1.344 0 2.455-.154 3.33-.462.889-.321 1.549-.84 1.98-1.555.444-.715.666-1.671.666-2.868 0-.974-.154-1.745-.462-2.313-.308-.567-.716-.993-1.221-1.276a4.552 4.552 0 00-1.629-.555 12.045 12.045 0 00-1.739-.13h-7.975l3.016-2.868v25.72h-4.256zm34.7.444c-2.294 0-4.293-.364-5.995-1.092-1.69-.727-3.096-1.727-4.219-2.997a12.801 12.801 0 01-2.498-4.367c-.555-1.64-.832-3.374-.832-5.2 0-2.553.511-4.86 1.535-6.92a11.875 11.875 0 014.534-4.922c1.998-1.221 4.447-1.832 7.346-1.832 2.195 0 4.126.352 5.791 1.055 1.678.703 3.078 1.684 4.201 2.942a12.323 12.323 0 012.553 4.348c.568 1.653.851 3.43.851 5.33 0 2.602-.518 4.934-1.554 6.994a11.773 11.773 0 01-4.533 4.885c-1.974 1.184-4.367 1.776-7.18 1.776zm-.092-3.664c1.517 0 2.831-.271 3.941-.814a7.737 7.737 0 002.757-2.22 9.435 9.435 0 001.61-3.201 13.07 13.07 0 00.536-3.757c0-1.406-.191-2.713-.573-3.922-.383-1.21-.95-2.27-1.703-3.183a7.574 7.574 0 00-2.757-2.128c-1.097-.518-2.368-.777-3.811-.777-1.493 0-2.794.265-3.905.796a7.903 7.903 0 00-2.794 2.202 9.774 9.774 0 00-1.665 3.2 12.833 12.833 0 00-.555 3.812c0 1.333.179 2.597.537 3.794a9.676 9.676 0 001.628 3.2 7.948 7.948 0 002.794 2.203c1.122.53 2.442.795 3.96.795zm16.353 3.22V3.704h4.349v25.701l-1.573-3.145h14.192v3.83h-16.968zm19.436 0V3.704h4.349v25.701l-1.573-3.145h14.192v3.83h-16.968z" fill="#313131"/><path fill-rule="evenodd" clip-rule="evenodd" d="M6.79.941A6.79 6.79 0 000 7.731v18.42a6.79 6.79 0 006.79 6.79h18.42a6.79 6.79 0 006.79-6.79V7.732A6.79 6.79 0 0025.21.94H6.79zm20.113 26.082c2.403-2.403-.513-9.216-6.514-15.216-6-6.001-12.814-8.918-15.217-6.515-2.403 2.404.513 9.216 6.514 15.217 6.001 6.001 12.814 8.918 15.217 6.514z" fill="#313131"/></svg>