<?xml version="1.0" encoding="utf-8"?><svg viewBox="0 0 56 56" xmlns="http://www.w3.org/2000/svg" xmlns:xlink="http://www.w3.org/1999/xlink"><style>:root>svg{display:none}:root>svg:target{display:block}</style><svg fill="none" viewBox="0 0 27 28" id="icon-arrow-btn-next" xmlns="http://www.w3.org/2000/svg"><path fill-rule="evenodd" clip-rule="evenodd" d="M16.785 14.842H8.678v-.802h8.107l-3.853-3.853.567-.568 4.822 4.822-4.822 4.821-.567-.567 3.853-3.853z" fill="currentColor"/></svg><svg fill="none" viewBox="0 0 22 13" id="icon-arrow-down" xmlns="http://www.w3.org/2000/svg"><path d="M1 1l10 10L21 1" stroke="currentColor" stroke-width="2" stroke-linecap="round"/></svg><svg fill="none" viewBox="0 0 31 31" id="icon-arrow-link-up" xmlns="http://www.w3.org/2000/svg"><path fill-rule="evenodd" clip-rule="evenodd" d="M3 28.842L27.062 4.779v23.428h1.875V1.577l-26.142.037.003 1.875 22.935-.032-24.06 24.059L3 28.842z" fill="currentColor"/></svg><svg fill="none" viewBox="0 0 24 24" id="icon-arrow-next" xmlns="http://www.w3.org/2000/svg"><path fill-rule="evenodd" clip-rule="evenodd" d="M2.049 12.75h17.78l-8.578 8.578 1.06 1.06L22.702 12 12.48 1.81 11.422 2.87l8.403 8.38H2.05v1.5z" fill="currentColor"/></svg><svg fill="none" viewBox="0 0 56 56" id="icon-back" xmlns="http://www.w3.org/2000/svg"><path fill-rule="evenodd" clip-rule="evenodd" d="M3.693 26.906l4.562-5.25-1.51-1.312L.138 27.95l6.65 6.753 1.425-1.404-4.325-4.392H54v-2H3.693z" fill="currentColor"/></svg><svg fill="none" viewBox="0 0 24 24" id="icon-bookmarks" xmlns="http://www.w3.org/2000/svg"><path d="M17 3H7c-1.1 0-2 .9-2 2v16l7-3 7 3V5c0-1.1-.9-2-2-2zm0 15l-5-2.18L7 18V5h10v13z" fill="currentColor"/></svg><svg fill="none" viewBox="0 0 31 32" id="icon-camera" xmlns="http://www.w3.org/2000/svg"><g clip-path="url(#agclip0_10808_19716)"><path d="M25.834 5.667h-4.095l-2.364-2.583h-7.75L9.261 5.667H5.167A2.59 2.59 0 002.584 8.25v15.5a2.59 2.59 0 002.583 2.584h20.666a2.59 2.59 0 002.584-2.584V8.25a2.59 2.59 0 00-2.584-2.583zm0 18.083H5.166V8.25h5.231l2.364-2.583h5.476l2.364 2.583h5.232v15.5zM15.5 9.542A6.46 6.46 0 009.042 16 6.46 6.46 0 0015.5 22.46 6.46 6.46 0 0021.96 16 6.46 6.46 0 0015.5 9.542zm0 10.333A3.886 3.886 0 0111.625 16a3.886 3.886 0 013.875-3.875A3.886 3.886 0 0119.375 16a3.886 3.886 0 01-3.875 3.875z" fill="#525252"/></g><defs><clipPath id="agclip0_10808_19716"><path fill="#fff" transform="translate(0 .5)" d="M0 0h31v31H0z"/></clipPath></defs></svg><svg fill="none" viewBox="0 0 25 24" id="icon-caret" xmlns="http://www.w3.org/2000/svg"><g clip-path="url(#ahclip0_10540_36164)"><path d="M7.91 8.59l4.59 4.58 4.59-4.58L18.5 10l-6 6-6-6 1.41-1.41z" fill="#14171B"/></g><defs><clipPath id="ahclip0_10540_36164"><path fill="#fff" transform="translate(.5)" d="M0 0h24v24H0z"/></clipPath></defs></svg><svg fill="none" viewBox="0 0 32 32" id="icon-close" xmlns="http://www.w3.org/2000/svg"><path d="M25.333 8.547l-1.88-1.88-7.454 7.453-7.453-7.453-1.88 1.88L14.119 16l-7.453 7.454 1.88 1.88 7.453-7.454 7.454 7.454 1.88-1.88L17.879 16l7.454-7.453z" fill="currentColor"/></svg><svg fill="none" viewBox="0 0 25 25" id="icon-close-thin" xmlns="http://www.w3.org/2000/svg"><path fill-rule="evenodd" clip-rule="evenodd" d="M12.001 12.215L.572.786l.572-.571 11.428 11.429L24.001.214l.571.572-11.428 11.429 11.428 11.429-.571.57-11.429-11.428L1.144 24.215l-.572-.571 11.429-11.43z" fill="#313131"/></svg><svg fill="none" viewBox="0 0 46 46" id="icon-dzen" xmlns="http://www.w3.org/2000/svg"><path d="M23.292 4.676L24.17 16.2a6.68 6.68 0 006.154 6.154l11.525.877-11.525.877a6.68 6.68 0 00-6.154 6.153l-.877 11.525-.877-11.525a6.68 6.68 0 00-6.154-6.154l-11.525-.877 11.525-.876a6.68 6.68 0 006.154-6.154l.877-11.525z" fill="currentColor"/></svg><svg fill="none" viewBox="0 0 24 24" id="icon-emoji" xmlns="http://www.w3.org/2000/svg"><path d="M11.99 2C6.47 2 2 6.48 2 12s4.47 10 9.99 10C17.52 22 22 17.52 22 12S17.52 2 11.99 2zM12 20c-4.42 0-8-3.58-8-8s3.58-8 8-8 8 3.58 8 8-3.58 8-8 8zm3.5-9c.83 0 1.5-.67 1.5-1.5S16.33 8 15.5 8 14 8.67 14 9.5s.67 1.5 1.5 1.5zm-7 0c.83 0 1.5-.67 1.5-1.5S9.33 8 8.5 8 7 8.67 7 9.5 7.67 11 8.5 11zm3.5 6.5c2.33 0 4.31-1.46 5.11-3.5H6.89c.8 2.04 2.78 3.5 5.11 3.5z" fill="currentColor"/></svg><svg fill="none" viewBox="0 0 24 24" id="icon-like-thumb-up" xmlns="http://www.w3.org/2000/svg"><path d="M5 9v12H1V9h4zm4 12a2 2 0 01-2-2V9c0-.55.22-1.05.59-1.41L14.17 1l1.06 1.06c.27.27.44.64.44 1.05l-.03.32L14.69 8H21a2 2 0 012 2v2c0 .26-.05.5-.14.73l-3.02 7.05C19.54 20.5 18.83 21 18 21H9zm0-2h9.03L21 12v-2h-8.79l1.13-5.32L9 9.03V19z" fill="currentColor"/></svg><svg fill="none" viewBox="0 0 32 32" id="icon-nav-01" xmlns="http://www.w3.org/2000/svg"><path fill-rule="evenodd" clip-rule="evenodd" d="M16 8.616a6.151 6.151 0 00-8.699 8.699l7.285 7.285a2 2 0 002.828 0l7.285-7.285A6.151 6.151 0 0016 8.615zm7.285 7.285a4.151 4.151 0 00-5.87-5.87l-.708.706a1 1 0 01-1.414 0l-.707-.707a4.151 4.151 0 00-5.87 5.87L16 23.186l7.285-7.284z" fill="#898989"/></svg><svg fill="none" viewBox="0 0 32 32" id="icon-nav-02" xmlns="http://www.w3.org/2000/svg"><path fill-rule="evenodd" clip-rule="evenodd" d="M25 16a9 9 0 11-18 0 9 9 0 0118 0zm2 0c0 6.075-4.925 11-11 11S5 22.075 5 16 9.925 5 16 5s11 4.925 11 11zm-13.046 3.892c.136.136.328.204.576.204.256 0 .448-.068.576-.204.136-.144.204-.348.204-.612v-.948h1.44c.184 0 .324-.044.42-.132a.512.512 0 00.156-.396c0-.168-.052-.296-.156-.384-.096-.096-.236-.144-.42-.144h-1.44v-.816h1.368c.592 0 1.096-.1 1.512-.3.416-.2.736-.48.96-.84.224-.36.336-.784.336-1.272 0-.504-.112-.944-.336-1.32a2.167 2.167 0 00-.972-.876c-.424-.208-.944-.312-1.56-.312h-2.1c-.248 0-.44.068-.576.204-.128.128-.192.316-.192.564v3.096h-.54c-.184 0-.328.048-.432.144-.096.088-.144.216-.144.384s.048.3.144.396c.104.088.248.132.432.132h.54v.816h-.54c-.184 0-.328.048-.432.144-.096.088-.144.216-.144.384s.048.3.144.396c.104.088.248.132.432.132h.54v.948c0 .264.068.468.204.612zm2.472-4.488h-1.14v-2.568h1.14c.512 0 .9.108 1.164.324.272.216.408.548.408.996 0 .448-.136.768-.408.96-.272.192-.66.288-1.164.288z" fill="#898989"/></svg><svg fill="none" viewBox="0 0 32 32" id="icon-nav-03" xmlns="http://www.w3.org/2000/svg"><path fill-rule="evenodd" clip-rule="evenodd" d="M6.77 9.892h18.458a1 1 0 011 1v10.216a1 1 0 01-1 1H6.771a1 1 0 01-1-1V10.892a1 1 0 011-1zm-3 1a3 3 0 013-3h18.458a3 3 0 013.002 3v10.216a3 3 0 01-3.002 3H6.771a3 3 0 01-3.001-3V10.892zm4.462 2.19a.75.75 0 100 1.5h8.49a.75.75 0 100-1.5h-8.49zm-.75 3.706a.75.75 0 01.75-.75h4.244a.75.75 0 110 1.5H8.232a.75.75 0 01-.75-.75z" fill="#898989"/></svg><svg fill="none" viewBox="0 0 32 32" id="icon-nav-04" xmlns="http://www.w3.org/2000/svg"><path fill-rule="evenodd" clip-rule="evenodd" d="M19.21 10.282a2.914 2.914 0 11-5.827 0 2.914 2.914 0 015.828 0zm-1.556 4.724a4.916 4.916 0 00-1.357-9.638A4.914 4.914 0 0014.919 15h-.257a8 8 0 00-8 8v.632a3 3 0 003 3h12.676a3 3 0 003-3V23a8 8 0 00-7.684-7.994zM14.662 17h2.676a6 6 0 016 6v.632a1 1 0 01-1 1H9.662a1 1 0 01-1-1V23a6 6 0 016-6z" fill="#898989"/></svg><svg fill="none" viewBox="0 0 32 32" id="icon-nav-05" xmlns="http://www.w3.org/2000/svg"><path fill-rule="evenodd" clip-rule="evenodd" d="M23.646 12.883v10.074a1 1 0 01-1 1H9.352a1 1 0 01-1-1V12.92a1 1 0 01.506-.87l6.823-3.877a1 1 0 011.005.01l6.47 3.84a1 1 0 01.49.86zm-17.294.037a3 3 0 011.517-2.608l6.824-3.878a3 3 0 013.013.029l6.471 3.84a3 3 0 011.47 2.58v10.074a3 3 0 01-3 3H9.351a3 3 0 01-3-3V12.92zm13.4 2.376a1 1 0 10-1.414-1.414l-6.09 6.09a1 1 0 001.414 1.414l6.09-6.09zm-5.02-.303a1.373 1.373 0 11-2.748 0 1.373 1.373 0 012.747 0zm3.909 6.655a1.373 1.373 0 100-2.746 1.373 1.373 0 000 2.746z" fill="#898989"/></svg><svg fill="none" viewBox="0 0 32 32" id="icon-nav-06" xmlns="http://www.w3.org/2000/svg"><path fill-rule="evenodd" clip-rule="evenodd" d="M7.686 10.444a10 10 0 00-1.685 5.539h1.477a.7.7 0 01.483 1.206l-2.478 2.367a.7.7 0 01-.967 0l-2.478-2.367a.7.7 0 01.484-1.206H4a12 12 0 0120.485-8.468 1 1 0 01-1.414 1.414 10 10 0 00-15.386 1.515zm18.832 2a.7.7 0 01.967 0l2.478 2.367a.7.7 0 01-.483 1.206H28a12 12 0 01-20.484 8.468 1 1 0 111.414-1.414A10 10 0 0026 16.017h-1.476a.7.7 0 01-.484-1.206l2.478-2.367zm-12.623 7.63c.136.136.328.204.576.204.256 0 .448-.068.576-.204.136-.144.204-.348.204-.612v-.948h1.44c.184 0 .324-.044.42-.132a.512.512 0 00.156-.396c0-.168-.052-.296-.156-.384-.096-.096-.236-.144-.42-.144h-1.44v-.816h1.368c.592 0 1.096-.1 1.512-.3.416-.2.736-.48.96-.84.224-.36.336-.784.336-1.272 0-.504-.112-.944-.336-1.32a2.167 2.167 0 00-.972-.876c-.424-.208-.944-.312-1.56-.312h-2.1c-.248 0-.44.068-.576.204-.128.128-.192.316-.192.564v3.096h-.54c-.184 0-.328.048-.432.144-.096.088-.144.216-.144.384s.048.3.144.396c.104.088.248.132.432.132h.54v.816h-.54c-.184 0-.328.048-.432.144-.096.088-.144.216-.144.384s.048.3.144.396c.104.088.248.132.432.132h.54v.948c0 .264.068.468.204.612zm1.332-4.488h1.14c.504 0 .892-.096 1.164-.288.272-.192.408-.512.408-.96 0-.448-.136-.78-.408-.996-.264-.216-.652-.324-1.164-.324h-1.14v2.568z" fill="#898989"/></svg><svg fill="none" viewBox="0 0 32 32" id="icon-nav-07" xmlns="http://www.w3.org/2000/svg"><path fill-rule="evenodd" clip-rule="evenodd" d="M26.295 13.356L16 7.644 5.705 13.356h20.59zm-9.323-7.46a2.005 2.005 0 00-1.945 0L4.733 11.607c-1.807 1.002-1.094 3.748.972 3.748h1.283v8.703a2.25 2.25 0 00-2.002 2.235h2.002v.062h2.003v-.062h18.023a2.25 2.25 0 00-2.002-2.235v-8.703h1.283c2.066 0 2.779-2.746.972-3.748L16.973 5.895zm6.037 18.15v-8.69h-6.008v8.69h6.008zm-8.01 0v-8.69H8.99v8.69h6.008z" fill="#898989"/></svg><svg fill="none" viewBox="0 0 32 32" id="icon-nav-08" xmlns="http://www.w3.org/2000/svg"><path fill-rule="evenodd" clip-rule="evenodd" d="M7.552 9.758H22.1a1 1 0 01.904.572l3.832 8.096a1 1 0 01-.904 1.428h-.808a3.382 3.382 0 00-6.455 0H13.16a3.382 3.382 0 00-6.454 0h-.639a1 1 0 01-.983-1.18l1.485-8.096a1 1 0 01.983-.82zm-.851 12.096h-.634a3 3 0 01-2.95-3.541L4.6 10.217a3 3 0 012.951-2.459H22.1a3 3 0 012.712 1.717l3.831 8.096c.942 1.99-.51 4.283-2.711 4.283h-.803a3.382 3.382 0 01-6.464 0h-5.5a3.382 3.382 0 01-6.463 0zm3.232.388a1.38 1.38 0 100-2.76 1.38 1.38 0 000 2.76zm11.963 0a1.38 1.38 0 100-2.76 1.38 1.38 0 000 2.76z" fill="#898989"/></svg><svg fill="none" viewBox="0 0 32 32" id="icon-nav-09" xmlns="http://www.w3.org/2000/svg"><path fill-rule="evenodd" clip-rule="evenodd" d="M14.463 7.872h3a1 1 0 011 1v1.287h-5V8.872a1 1 0 011-1zm-3 2.287V8.872a3 3 0 013-3h3a3 3 0 013 3v1.287h4.762a3 3 0 013 3v9.969a3 3 0 01-3 3H6.773a3 3 0 01-3-3v-9.969a3 3 0 013-3h4.69zm0 2h-4.69a1 1 0 00-1 1v9.969a1 1 0 001 1h18.452a1 1 0 001-1v-9.969a1 1 0 00-1-1h-4.762v.003h-9v-.003z" fill="#898989"/></svg><svg fill="none" viewBox="0 0 32 32" id="icon-nav-10" xmlns="http://www.w3.org/2000/svg"><path fill-rule="evenodd" clip-rule="evenodd" d="M26.282 12.856L16 7.144 5.718 12.856h20.564zM4.747 11.108c-1.575.875-1.233 3.079.253 3.624v9.124a3 3 0 003 3h16a3 3 0 003-3v-9.123c1.485-.546 1.828-2.75.253-3.625L16.97 5.396a2 2 0 00-1.942 0L4.747 11.108zM20 24.856h4a1 1 0 001-1v-9H7v9a1 1 0 001 1h4v-4a3 3 0 013-3h2a3 3 0 013 3v4zm-6 0h4v-4a1 1 0 00-1-1h-2a1 1 0 00-1 1v4z" fill="#898989"/></svg><svg fill="none" viewBox="0 0 32 32" id="icon-nav-11" xmlns="http://www.w3.org/2000/svg"><path fill-rule="evenodd" clip-rule="evenodd" d="M15.636 6.414L8.612 13.44a1 1 0 000 1.414l2.017 2.017a1 1 0 001.414 0l7.025-7.025a1 1 0 000-1.414L17.05 6.414a1 1 0 00-1.415 0zm-8.439 5.61a3 3 0 000 4.243l2.017 2.017a3 3 0 004.243 0l1.634-1.634.162.162 7.137 7.137a2.656 2.656 0 003.755-3.756l-7.136-7.137-.162-.162 1.635-1.634a3 3 0 000-4.243L18.465 5a3 3 0 00-4.243 0l-7.025 7.025zM6.077 25.88a1 1 0 100 2h9a1 1 0 100-2h-9zm17.727-3.345l-7.137-7.136.928-.927 7.136 7.136a.656.656 0 01-.927.928z" fill="#898989"/></svg><svg fill="none" viewBox="0 0 32 32" id="icon-nav-12" xmlns="http://www.w3.org/2000/svg"><path fill-rule="evenodd" clip-rule="evenodd" d="M24 9H8a1 1 0 00-1 1v11.764l2.472-1.236A5 5 0 0111.708 20H24a1 1 0 001-1v-9a1 1 0 00-1-1zM7 24l3.367-1.683A3 3 0 0111.708 22H24a3 3 0 003-3v-9a3 3 0 00-3-3H8a3 3 0 00-3 3v15l2-1zm7.02-9.365l2.38-3.333a.337.337 0 01.612.196v2.321h.696c.274 0 .434.31.274.534l-2.38 3.333a.337.337 0 01-.612-.197v-2.32h-.696a.337.337 0 01-.274-.534z" fill="#898989"/></svg><svg fill="none" viewBox="0 0 32 32" id="icon-nav-13" xmlns="http://www.w3.org/2000/svg"><path fill-rule="evenodd" clip-rule="evenodd" d="M7.959 8.02c5.102-1.74 10.978-1.74 16.081 0a.87.87 0 01.575.772c.405 5.67-.21 8.95-1.544 11.186-1.333 2.232-3.48 3.591-6.633 5.202a.972.972 0 01-.88 0c-3.152-1.61-5.297-2.97-6.63-5.202-1.334-2.235-1.948-5.515-1.543-11.186a.87.87 0 01.574-.773zm16.727-1.893c-5.522-1.883-11.852-1.883-17.372 0A2.87 2.87 0 005.39 8.65c-.414 5.809.172 9.59 1.821 12.353 1.651 2.766 4.274 4.342 7.438 5.958a2.972 2.972 0 002.7 0c3.163-1.616 5.787-3.191 7.439-5.958 1.65-2.763 2.237-6.545 1.821-12.354a2.87 2.87 0 00-1.923-2.522zm-4.756 7.622a.75.75 0 00-1.06-1.061l-3.42 3.42-1.444-1.445a.75.75 0 00-1.061 1.06l1.975 1.975.53.53.53-.53 3.95-3.95z" fill="#898989"/></svg><svg fill="none" viewBox="0 0 32 32" id="icon-nav-14" xmlns="http://www.w3.org/2000/svg"><path fill-rule="evenodd" clip-rule="evenodd" d="M24.945 17a9.001 9.001 0 01-17.89 0h17.89zm-.88-5H7.934A9 9 0 0116 7a9 9 0 018.064 5zM27 16c0 6.075-4.925 11-11 11S5 22.075 5 16 9.925 5 16 5s11 4.925 11 11zM9.748 13.5a1 1 0 100 2h4.221a1 1 0 000-2H9.748zm7.174 1a1 1 0 011-1h4.221a1 1 0 110 2h-4.221a1 1 0 01-1-1z" fill="#898989"/></svg><svg fill="none" viewBox="0 0 32 32" id="icon-nav-15" xmlns="http://www.w3.org/2000/svg"><path fill-rule="evenodd" clip-rule="evenodd" d="M10.11 7.533h11.779a1 1 0 011 1v14.935a1 1 0 01-1 1h-11.78a1 1 0 01-1-1V8.533a1 1 0 011-1zm-3 1a3 3 0 013-3h11.779a3 3 0 013 3v14.935a3 3 0 01-3 3h-11.78a3 3 0 01-3-3V8.533zm14.36 10.404a.75.75 0 00-1.06-1.06l-3.42 3.419-1.444-1.445a.75.75 0 00-1.06 1.061l1.974 1.975.53.53.53-.53 3.95-3.95zm-10.835-7.81a.75.75 0 01.75-.75h8.487a.75.75 0 010 1.5h-8.487a.75.75 0 01-.75-.75zm.75 2.207a.75.75 0 100 1.5h4.242a.75.75 0 100-1.5h-4.242z" fill="#898989"/></svg><svg fill="none" viewBox="0 0 32 32" id="icon-nav-16" xmlns="http://www.w3.org/2000/svg"><path fill-rule="evenodd" clip-rule="evenodd" d="M25.294 13.59l-.526.841-11.206-7.01a1 1 0 00-1.06 1.695l11.205 7.01-.532.852a.619.619 0 00.676.928l2.684-.677a.619.619 0 00.455-.726l-.565-2.71a.619.619 0 00-1.131-.202zM6.996 11.613l17.77 11.12H7.996a1 1 0 01-1-1v-10.12zm-2 0c0-1.571 1.729-2.529 3.061-1.695l17.77 11.12c1.703 1.065.948 3.695-1.06 3.695H7.996a3 3 0 01-3-3v-10.12z" fill="#898989"/></svg><svg fill="none" viewBox="0 0 32 32" id="icon-nav-17" xmlns="http://www.w3.org/2000/svg"><path fill-rule="evenodd" clip-rule="evenodd" d="M16.197 24.998a9.251 9.251 0 01-.394 0c-.15-.046-.345-.152-.585-.38-.372-.355-.775-.94-1.147-1.777a13.115 13.115 0 01-.785-2.465 28.312 28.312 0 015.438-.044 13.16 13.16 0 01-.795 2.509c-.371.837-.775 1.421-1.147 1.776-.24.229-.435.335-.585.38zm2.786-6.148a29.819 29.819 0 00-5.96.045c-.122-.901-.19-1.869-.19-2.882 0-1.022.069-1.999.194-2.908 1.982.203 3.864.238 5.952.045.121.897.188 1.858.188 2.863 0 .996-.065 1.948-.184 2.837zm1.239 1.651c-.344 1.639-.87 3.045-1.519 4.086a9.02 9.02 0 004.733-3.515 43.14 43.14 0 00-3.214-.57zm3.983-.797c-1.35-.3-2.579-.524-3.732-.682.126-.953.194-1.963.194-3.009 0-1.055-.069-2.074-.197-3.035a46.194 46.194 0 003.735-.682c.51 1.13.795 2.383.795 3.704 0 1.32-.284 2.575-.795 3.704zm-12.671-.628a22.977 22.977 0 01-.201-3.063c0-1.074.072-2.112.204-3.088a80.364 80.364 0 01-3.744-.624A8.968 8.968 0 007 16c0 1.319.284 2.57.793 3.7 1.342-.251 2.57-.463 3.741-.624zM8.57 21.08a9.02 9.02 0 004.727 3.506c-.642-1.03-1.164-2.417-1.508-4.033-1.011.139-2.07.317-3.219.527zm5.501-11.895a13.077 13.077 0 00-.78 2.438c1.815.18 3.535.21 5.427.044a13.143 13.143 0 00-.789-2.482c-.371-.837-.775-1.422-1.147-1.776-.323-.308-.565-.394-.724-.41h-.115c-.16.016-.402.102-.725.41-.372.354-.775.939-1.147 1.776zm6.145 2.313a43.118 43.118 0 003.22-.571 9.02 9.02 0 00-4.754-3.522c.656 1.04 1.187 2.449 1.534 4.093zM8.57 10.92c1.15.21 2.212.389 3.225.527.348-1.622.874-3.012 1.523-4.04A9.02 9.02 0 008.57 10.92zM27 16c0 6.075-4.925 11-11 11S5 22.075 5 16 9.925 5 16 5s11 4.925 11 11z" fill="#898989"/></svg><svg fill="none" viewBox="0 0 24 24" id="icon-notifications" xmlns="http://www.w3.org/2000/svg"><path d="M12 22c1.1 0 2-.9 2-2h-4c0 1.1.9 2 2 2zm6-6v-5c0-3.07-1.63-5.64-4.5-6.32V4c0-.83-.67-1.5-1.5-1.5s-1.5.67-1.5 1.5v.68C7.64 5.36 6 7.92 6 11v5l-2 2v1h16v-1l-2-2zm-2 1H8v-6c0-2.48 1.51-4.5 4-4.5s4 2.02 4 4.5v6z" fill="currentColor"/></svg><svg fill="none" viewBox="0 0 32 32" id="icon-play" xmlns="http://www.w3.org/2000/svg"><g clip-path="url(#bfclip0_10412_916)"><path d="M32 16c0 8.837-7.163 16-16 16S0 24.837 0 16 7.163 0 16 0s16 7.163 16 16z" fill="#fff"/><path d="M14.054 21.099a.833.833 0 01-1.252-.72V11.62a.833.833 0 011.252-.719l7.508 4.38a.833.833 0 010 1.438l-7.508 4.38z" fill="currentColor"/></g><defs><clipPath id="bfclip0_10412_916"><path fill="#fff" d="M0 0h32v32H0z"/></clipPath></defs></svg><svg fill="none" viewBox="0 0 16 16" id="icon-plus" xmlns="http://www.w3.org/2000/svg"><path fill-rule="evenodd" clip-rule="evenodd" d="M7.433 7.215V.567h1.134v6.648h6.648v1.133H8.567v6.648H7.433V8.348H.785V7.215h6.648z" fill="currentColor"/></svg><svg fill="none" viewBox="0 0 24 24" id="icon-reply" xmlns="http://www.w3.org/2000/svg"><path d="M13.889 9.2V6l6.611 5.6-6.611 5.6v-3.28C9.167 13.92 3.5 18 3.5 18c.944-4 3.778-8 10.389-8.8z" stroke="currentColor" stroke-width="2"/></svg><svg fill="none" viewBox="0 0 24 24" id="icon-search" xmlns="http://www.w3.org/2000/svg"><path d="M15.5 14h-.79l-.28-.27A6.471 6.471 0 0016 9.5 6.5 6.5 0 109.5 16c1.61 0 3.09-.59 4.23-1.57l.27.28v.79l5 4.99L20.49 19l-4.99-5zm-6 0C7.01 14 5 11.99 5 9.5S7.01 5 9.5 5 14 7.01 14 9.5 11.99 14 9.5 14z" fill="currentColor"/></svg><svg fill="none" viewBox="0 0 32 32" id="icon-settings" xmlns="http://www.w3.org/2000/svg"><path d="M25.598 17.266c.052-.413.09-.827.09-1.266 0-.439-.038-.852-.09-1.266l2.726-2.13a.652.652 0 00.155-.828l-2.584-4.469a.645.645 0 00-.568-.323.604.604 0 00-.22.04l-3.216 1.29a9.436 9.436 0 00-2.183-1.265l-.49-3.423a.63.63 0 00-.634-.542h-5.166a.63.63 0 00-.633.542l-.49 3.423a9.923 9.923 0 00-2.184 1.266L6.895 7.023a.732.732 0 00-.233-.039.64.64 0 00-.555.323l-2.583 4.47a.637.637 0 00.155.826l2.725 2.131c-.052.414-.09.84-.09 1.266 0 .426.038.853.09 1.266l-2.725 2.131a.652.652 0 00-.155.827l2.583 4.47a.645.645 0 00.568.322.602.602 0 00.22-.039l3.216-1.291a9.438 9.438 0 002.183 1.265l.49 3.423a.63.63 0 00.634.543h5.166a.63.63 0 00.633-.543l.491-3.423a9.924 9.924 0 002.183-1.265l3.216 1.291a.73.73 0 00.233.039.64.64 0 00.555-.323l2.584-4.47a.652.652 0 00-.155-.826l-2.726-2.131zm-2.557-2.209c.051.4.064.672.064.943a9.6 9.6 0 01-.064.943l-.181 1.46 1.15.904 1.394 1.085-.904 1.563-1.64-.659-1.343-.543-1.163.879a7.56 7.56 0 01-1.614.943l-1.37.555-.206 1.46-.259 1.744h-1.808l-.245-1.744-.207-1.46-1.37-.555a7.327 7.327 0 01-1.588-.917l-1.175-.905-1.37.556-1.64.659-.904-1.563 1.395-1.085 1.15-.904-.181-1.46A10.39 10.39 0 018.897 16c0-.258.026-.555.065-.943l.18-1.46-1.15-.903-1.394-1.086.904-1.562 1.64.658 1.344.543 1.162-.879a7.564 7.564 0 011.615-.942l1.369-.556.207-1.46.258-1.743h1.795l.246 1.744.206 1.46 1.37.555c.555.232 1.072.53 1.588.917l1.176.904 1.369-.556 1.64-.658.905 1.563-1.383 1.098-1.15.904.182 1.46zM16 10.834A5.165 5.165 0 0010.834 16a5.165 5.165 0 005.167 5.167A5.165 5.165 0 0021.168 16 5.165 5.165 0 0016 10.834zm0 7.75A2.59 2.59 0 0113.418 16 2.59 2.59 0 0116 13.417 2.591 2.591 0 0118.584 16a2.59 2.59 0 01-2.583 2.584z" fill="currentColor"/></svg><svg fill="none" viewBox="0 0 31 32" id="icon-sort" xmlns="http://www.w3.org/2000/svg"><g clip-path="url(#bkclip0_10613_21230)"><path d="M3.875 24.18h7.75v-2.584h-7.75v2.584zm0-15.5v2.583h23.25V8.68H3.875zm0 9.041h15.5v-2.583h-15.5v2.583z" fill="#FDFDFE"/></g><defs><clipPath id="bkclip0_10613_21230"><path fill="#fff" transform="translate(0 .93)" d="M0 0h31v31H0z"/></clipPath></defs></svg><svg fill="none" viewBox="0 0 31 32" id="icon-spa" xmlns="http://www.w3.org/2000/svg"><g clip-path="url(#blclip0_10613_21059)"><path d="M20.008 13.369c-.232-3.604-1.692-7.117-4.43-9.856a15.742 15.742 0 00-4.586 9.856 17.911 17.911 0 014.508 3.397 18.544 18.544 0 014.508-3.397zm-4.443-5.735a13.104 13.104 0 011.679 4.365c-.607.388-1.175.814-1.73 1.266a20.893 20.893 0 00-1.719-1.253c.323-1.55.917-3.035 1.77-4.378zM15.5 20.886a15.642 15.642 0 00-3.952-4.133c-.168-.116-.35-.207-.517-.336.168.116.349.22.504.323a15.212 15.212 0 00-8.951-2.893c0 6.871 4.34 12.684 10.372 14.84a13.89 13.89 0 002.544.66 16.72 16.72 0 002.545-.66c6.032-2.156 10.372-7.969 10.372-14.84-5.4 0-10.14 2.802-12.917 7.04zm1.705 5.36c-.568.194-1.136.35-1.718.478a11.558 11.558 0 01-1.653-.465c-4.25-1.524-7.363-5.153-8.331-9.493 1.42.336 2.777.917 4.03 1.718l-.026.012c.168.117.336.233.504.323l.09.052a12.79 12.79 0 013.242 3.423l2.157 3.307 2.157-3.294a13.163 13.163 0 013.268-3.436l.09-.064c.117-.065.233-.143.35-.22l-.014-.026a12.906 12.906 0 014.147-1.808c-.97 4.353-4.07 7.982-8.293 9.494zm-5.593-9.454a.279.279 0 01-.064-.052s.013 0 .013.013c.012.013.025.026.051.038z" fill="#FDFDFE"/></g><defs><clipPath id="blclip0_10613_21059"><path fill="#fff" transform="translate(0 .93)" d="M0 0h31v31H0z"/></clipPath></defs></svg><svg fill="none" viewBox="0 0 47 47" id="icon-telegram" xmlns="http://www.w3.org/2000/svg"><path fill-rule="evenodd" clip-rule="evenodd" d="M41.053 37.45a22.903 22.903 0 005.035-14.364c0-12.703-10.298-23-23-23-7.273 0-13.757 3.376-17.972 8.646a22.903 22.903 0 00-5.03 14.356c0 12.703 10.297 23 23 23 7.27 0 13.752-3.373 17.967-8.639zm-17.965 8.636c7.269 0 13.75-3.372 17.965-8.637a22.903 22.903 0 005.033-14.36c0-12.703-10.297-23-23-23-7.272 0-13.755 3.374-17.97 8.643A22.903 22.903 0 00.088 23.086c0 12.703 10.297 23 23 23zm-12.59-23.24c6.704-2.922 11.175-4.848 13.412-5.778 6.387-2.657 7.715-3.118 8.58-3.134.19-.003.615.044.891.268.233.189.297.444.327.623.031.179.07.587.039.905-.346 3.637-1.844 12.463-2.606 16.536-.322 1.724-.957 2.302-1.572 2.358-1.057.097-1.914-.513-2.866-1.192-.251-.179-.508-.362-.777-.539a171.125 171.125 0 01-2.693-1.806c-.75-.51-1.5-1.023-2.44-1.642-1.955-1.288-1.136-2.076-.045-3.128.176-.17.36-.347.54-.535.08-.083.474-.449 1.03-.965 1.78-1.656 5.22-4.855 5.308-5.225.014-.06.027-.287-.107-.406-.135-.12-.333-.079-.476-.046-.203.046-3.437 2.183-9.702 6.412-.918.63-1.75.937-2.494.921-.822-.017-2.401-.464-3.575-.846l-.503-.16c-1.194-.375-2.07-.65-1.983-1.35.052-.415.622-.838 1.711-1.271z" fill="currentColor"/></svg><svg fill="none" viewBox="0 0 46 46" id="icon-vcru" xmlns="http://www.w3.org/2000/svg"><path fill-rule="evenodd" clip-rule="evenodd" d="M31.009 8.55c-1.927.437-3.753 1.887-4.624 3.67-.477.977-.682 1.895-.684 3.064-.003 1.844.666 3.469 1.97 4.786 1.332 1.346 2.904 1.991 4.847 1.991 1.233 0 1.997-.174 3.054-.695.77-.38 2.204-1.607 2.204-1.886 0-.075-.362-.421-.805-.768l-.804-.632-.548.524c-.816.78-1.736 1.177-2.849 1.23-1.934.094-3.391-.768-4.18-2.473-.653-1.408-.622-3.01.087-4.44 1.083-2.186 3.71-3.037 6.046-1.957l.554.256v2.22h2.186v-3.241l-.39-.312c-.56-.445-1.555-.928-2.438-1.183-1.004-.29-2.709-.363-3.626-.154zM10.708 9.812v1.104h2.254l1.07 3.023c.589 1.663 1.47 4.148 1.96 5.524l.89 2.5 1.05-.03 1.05-.03.498-1.314c.273-.723 1.188-3.183 2.031-5.467l1.534-4.153 1.067-.03 1.067-.03v-2.2h-3.802l-.44 1.287a4878.18 4878.18 0 01-2.795 8.175c-.05.14-.066.14-.144 0-.076-.135-1.427-4.061-2.832-8.227l-.417-1.236h-4.041v1.104zm8.45 14.99c-1.082.216-2.214.955-2.915 1.906l-.382.518-.068-.558a14.122 14.122 0 01-.078-1.216l-.01-.657h-4.06v1.998h2.082v8.831h-2.082v2.105l4.97-.027 4.972-.027v-1.998l-2.759-.053-2.759-.052-.028-2.524c-.03-2.772.03-3.282.506-4.244.529-1.069 1.724-1.95 2.75-2.028l.416-.032-.032.97-.032.971h2.199V24.69l-1.12.011c-.616.007-1.322.052-1.57.101zm5.188 1.097v1.104h1.978v3.5c0 3.771.045 4.182.576 5.29.324.675 1.232 1.552 1.954 1.886.303.14.908.31 1.343.38 1.783.279 3.381-.41 4.34-1.871.361-.552.36-.554.536.672l.125.867H38.713V35.624h-1.64l-.065-.328c-.036-.18-.065-2.617-.065-5.415v-5.086h-4.58v2.208h2.306l-.038 3.023c-.045 3.545-.098 3.783-1.08 4.853-.733.8-1.39 1.105-2.386 1.106-1.13.002-1.783-.422-2.26-1.466-.236-.518-.24-.58-.27-5.124l-.031-4.6h-4.258v1.104zM7.168 36.676v1.164l1.12-.03 1.118-.03v-2.208l-1.119-.03-1.119-.03v1.164z" fill="currentColor"/></svg><svg fill="none" viewBox="0 0 46 46" id="icon-vk" xmlns="http://www.w3.org/2000/svg"><path d="M7.763 13.992c.249 11.96 6.229 19.147 16.713 19.147h.594v-6.842c3.853.383 6.766 3.2 7.935 6.842h5.443c-1.495-5.443-5.424-8.452-7.877-9.602 2.453-1.419 5.903-4.869 6.727-9.545h-4.945c-1.073 3.795-4.255 7.245-7.283 7.57v-7.57h-4.945v13.263c-3.067-.767-6.938-4.485-7.11-13.263H7.762z" fill="currentColor"/></svg></svg>